<?xml version="1.0" encoding="utf-8"?>
<svg width="240.26367px" height="265.25px" viewBox="0 0 240.26367 265.25" version="1.1" xmlns:xlink="http://www.w3.org/1999/xlink" xmlns="http://www.w3.org/2000/svg">
  <defs>
    <linearGradient gradientUnits="userSpaceOnUse" x1="39.239666" y1="0" x2="92.28857" y2="52.253746" id="gradient_1">
      <stop offset="0%" stop-color="#FFCABA" />
      <stop offset="100%" stop-color="#FD6F50" />
    </linearGradient>
    <linearGradient gradientUnits="userSpaceOnUse" x1="0" y1="0" x2="78.47933" y2="66.91878" id="gradient_2">
      <stop offset="0%" stop-color="#FFA53E" />
      <stop offset="100%" stop-color="#FF7643" />
    </linearGradient>
    <linearGradient gradientUnits="userSpaceOnUse" x1="0" y1="0" x2="73.53575" y2="71.5445" id="gradient_3">
      <stop offset="0%" stop-color="#FFA53E" />
      <stop offset="100%" stop-color="#FF7643" />
    </linearGradient>
    <linearGradient gradientUnits="userSpaceOnUse" x1="21.831371" y1="-6.737592" x2="-1.5167545" y2="73.478966" id="gradient_4">
      <stop offset="0%" stop-color="#FFE9E2" />
      <stop offset="100%" stop-color="#FFC7B0" />
    </linearGradient>
    <linearGradient gradientUnits="userSpaceOnUse" x1="2.3173032" y1="0" x2="2.3173032" y2="66.91878" id="gradient_5">
      <stop offset="0%" stop-color="#FFF3F0" />
      <stop offset="100%" stop-color="#FF9A84" />
    </linearGradient>
    <linearGradient gradientUnits="userSpaceOnUse" x1="12.387199" y1="0" x2="-18.742207" y2="42.28682" id="gradient_6">
      <stop offset="0%" stop-color="#FFF2EE" />
      <stop offset="100%" stop-color="#FFC7B0" />
    </linearGradient>
    <linearGradient gradientUnits="userSpaceOnUse" x1="5.5615273" y1="0" x2="0" y2="19.097826" id="gradient_7">
      <stop offset="0%" stop-color="#FFF3F0" />
      <stop offset="100%" stop-color="#FF9A84" />
    </linearGradient>
    <linearGradient gradientUnits="userSpaceOnUse" x1="183.45827" y1="0" x2="25.982208" y2="292.42664" id="gradient_8">
      <stop offset="0%" stop-color="#EEF1FF" />
      <stop offset="100%" stop-color="#99A8FF" />
    </linearGradient>
    <linearGradient gradientUnits="userSpaceOnUse" x1="119.65391" y1="175.25652" x2="-290.13907" y2="467.70438" id="gradient_9">
      <stop offset="0%" stop-color="#EEF1FF" />
      <stop offset="100%" stop-color="#99A8FF" />
    </linearGradient>
    <linearGradient gradientUnits="userSpaceOnUse" x1="17.545937" y1="0" x2="2.4849365" y2="13.809036" id="gradient_10">
      <stop offset="0%" stop-color="#EEF1FF" />
      <stop offset="100%" stop-color="#9079DC" />
    </linearGradient>
    <linearGradient gradientUnits="userSpaceOnUse" x1="95.65671" y1="0" x2="-144.73148" y2="230.22824" id="gradient_11">
      <stop offset="0%" stop-color="#F6EEFF" />
      <stop offset="100%" stop-color="#D9C5FF" />
    </linearGradient>
    <linearGradient gradientUnits="userSpaceOnUse" x1="0" y1="0" x2="73.535774" y2="71.54449" id="gradient_12">
      <stop offset="0%" stop-color="#FFA53E" />
      <stop offset="100%" stop-color="#FF7643" />
    </linearGradient>
    <linearGradient gradientUnits="userSpaceOnUse" x1="86.09105" y1="0" x2="-130.25835" y2="207.2054" id="gradient_13">
      <stop offset="0%" stop-color="#F6EEFF" />
      <stop offset="100%" stop-color="#D9C5FF" />
    </linearGradient>
    <linearGradient gradientUnits="userSpaceOnUse" x1="12.976898" y1="0" x2="12.976898" y2="19.687065" id="gradient_14">
      <stop offset="0%" stop-color="#FFCABA" />
      <stop offset="100%" stop-color="#FF9A84" />
    </linearGradient>
    <linearGradient gradientUnits="userSpaceOnUse" x1="10.900596" y1="38.91518" x2="-7.21391" y2="9.400874" id="gradient_15">
      <stop offset="0%" stop-color="#FFD4D4" />
      <stop offset="100%" stop-color="#DE6262" />
    </linearGradient>
    <linearGradient gradientUnits="userSpaceOnUse" x1="26.068407" y1="49.655464" x2="-7.3382287" y2="-43.152878" id="gradient_16">
      <stop offset="0%" stop-color="#DEE4FF" />
      <stop offset="100%" stop-color="#FF99DF" />
    </linearGradient>
    <linearGradient gradientUnits="userSpaceOnUse" x1="18.867043" y1="4.7186317" x2="-5.3110523" y2="-4.1007075" id="gradient_17">
      <stop offset="0%" stop-color="#DEE4FF" />
      <stop offset="100%" stop-color="#FF99DF" />
    </linearGradient>
    <linearGradient gradientUnits="userSpaceOnUse" x1="49.41165" y1="9.526891" x2="-3.0587413" y2="2.1338146" id="gradient_18">
      <stop offset="0%" stop-color="#FFD4D4" />
      <stop offset="100%" stop-color="#DE6262" />
    </linearGradient>
    <linearGradient gradientUnits="userSpaceOnUse" x1="22.916395" y1="29.130592" x2="-2.2326941" y2="10.927485" id="gradient_19">
      <stop offset="0%" stop-color="#FFD4D4" />
      <stop offset="100%" stop-color="#DE6262" />
    </linearGradient>
    <linearGradient gradientUnits="userSpaceOnUse" x1="45.04863" y1="54.23908" x2="-11.464365" y2="-47.085342" id="gradient_20">
      <stop offset="0%" stop-color="#DEE4FF" />
      <stop offset="100%" stop-color="#FF99DF" />
    </linearGradient>
    <linearGradient gradientUnits="userSpaceOnUse" x1="18.129448" y1="12.505345" x2="-7.246167" y2="-11.947217" id="gradient_21">
      <stop offset="0%" stop-color="#DEE4FF" />
      <stop offset="100%" stop-color="#FF75D4" />
    </linearGradient>
    <linearGradient gradientUnits="userSpaceOnUse" x1="50.85315" y1="6.882898" x2="-5.564857" y2="6.882898" id="gradient_22">
      <stop offset="0%" stop-color="#FFD4D4" />
      <stop offset="100%" stop-color="#DE6262" />
    </linearGradient>
    <linearGradient gradientUnits="userSpaceOnUse" x1="36.346962" y1="39.147717" x2="-11.139741" y2="-24.83809" id="gradient_23">
      <stop offset="0%" stop-color="#EEF0FF" />
      <stop offset="100%" stop-color="#B58EFF" />
    </linearGradient>
    <linearGradient gradientUnits="userSpaceOnUse" x1="15.683907" y1="8.883409" x2="-6.238312" y2="-6.640735" id="gradient_24">
      <stop offset="0%" stop-color="#EEF0FF" />
      <stop offset="45.507103%" stop-color="#CED3FF" />
      <stop offset="100%" stop-color="#8E99FF" />
    </linearGradient>
    <linearGradient gradientUnits="userSpaceOnUse" x1="18.334913" y1="21.87924" x2="12.218937" y2="-4.0855045" id="gradient_25">
      <stop offset="0%" stop-color="#DEE4FF" />
      <stop offset="100%" stop-color="#99A8FF" />
    </linearGradient>
    <linearGradient gradientUnits="userSpaceOnUse" x1="18.005121" y1="15.964272" x2="5.3833613" y2="2.3541183" id="gradient_26">
      <stop offset="0%" stop-color="#FFD4D4" />
      <stop offset="100%" stop-color="#DE6262" />
    </linearGradient>
    <linearGradient gradientUnits="userSpaceOnUse" x1="32.39682" y1="2.2921727" x2="7.151239" y2="39.34462" id="gradient_27">
      <stop offset="0%" stop-color="#8E46A1" />
      <stop offset="100%" stop-color="#B858AF" />
    </linearGradient>
    <linearGradient gradientUnits="userSpaceOnUse" x1="5.9470477" y1="-1.5744054" x2="8.2486105" y2="4.8160124" id="gradient_28">
      <stop offset="0%" stop-color="#FFCABA" />
      <stop offset="100%" stop-color="#FD6F50" />
    </linearGradient>
    <linearGradient gradientUnits="userSpaceOnUse" x1="0" y1="0" x2="67.66526" y2="22.820223" id="gradient_29">
      <stop offset="0%" stop-color="#FFA53E" />
      <stop offset="100%" stop-color="#FF7643" />
    </linearGradient>
    <linearGradient gradientUnits="userSpaceOnUse" x1="12.07034" y1="33.135998" x2="126.50819" y2="-5.256648" id="gradient_30">
      <stop offset="0%" stop-color="#9079DC" />
      <stop offset="100%" stop-color="#EEF1FF" />
    </linearGradient>
    <linearGradient gradientUnits="userSpaceOnUse" x1="19.613068" y1="0" x2="-29.67516" y2="66.954124" id="gradient_31">
      <stop offset="0%" stop-color="#FFF2EE" />
      <stop offset="100%" stop-color="#FFC7B0" />
    </linearGradient>
    <path d="M1.232 0L9.27311 0Q9.33363 0 9.39386 0.00593243Q9.4541 0.0118649 9.51346 0.0236726Q9.57282 0.0354803 9.63074 0.0530496Q9.68866 0.0706189 9.74457 0.0937806Q9.80049 0.116942 9.85387 0.145473Q9.90725 0.174004 9.95757 0.20763Q10.0079 0.241256 10.0547 0.279652Q10.1015 0.318048 10.1443 0.360845Q10.1871 0.403643 10.2255 0.450429Q10.2639 0.497215 10.2975 0.547539Q10.3311 0.597863 10.3596 0.651241Q10.3882 0.704619 10.4113 0.760536Q10.4345 0.816453 10.4521 0.874372Q10.4696 0.93229 10.4814 0.991651Q10.4932 1.05101 10.4992 1.11125Q10.5051 1.17148 10.5051 1.232L10.5051 9.25297Q10.5051 9.31349 10.4992 9.37372Q10.4932 9.43396 10.4814 9.49332Q10.4696 9.55268 10.4521 9.6106Q10.4345 9.66852 10.4113 9.72443Q10.3882 9.78035 10.3596 9.83373Q10.3311 9.88711 10.2975 9.93743Q10.2639 9.98776 10.2255 10.0345Q10.1871 10.0813 10.1443 10.1241Q10.1015 10.1669 10.0547 10.2053Q10.0079 10.2437 9.95757 10.2773Q9.90725 10.311 9.85387 10.3395Q9.80049 10.368 9.74457 10.3912Q9.68866 10.4144 9.63074 10.4319Q9.57282 10.4495 9.51346 10.4613Q9.4541 10.4731 9.39386 10.479Q9.33363 10.485 9.27311 10.485L1.232 10.485Q1.17148 10.485 1.11125 10.479Q1.05101 10.4731 0.991651 10.4613Q0.93229 10.4495 0.874372 10.4319Q0.816453 10.4144 0.760536 10.3912Q0.704619 10.368 0.651241 10.3395Q0.597863 10.311 0.547539 10.2773Q0.497215 10.2437 0.450429 10.2053Q0.403643 10.1669 0.360845 10.1241Q0.318048 10.0813 0.279652 10.0345Q0.241256 9.98776 0.20763 9.93743Q0.174004 9.88711 0.145473 9.83373Q0.116942 9.78035 0.0937806 9.72443Q0.0706189 9.66852 0.0530496 9.6106Q0.0354803 9.55268 0.0236726 9.49332Q0.0118649 9.43396 0.00593243 9.37372Q0 9.31349 0 9.25297L0 1.232Q0 1.17148 0.00593243 1.11125Q0.0118649 1.05101 0.0236726 0.991651Q0.0354803 0.93229 0.0530496 0.874372Q0.0706189 0.816453 0.0937806 0.760536Q0.116942 0.704619 0.145473 0.651241Q0.174004 0.597863 0.20763 0.547539Q0.241256 0.497215 0.279652 0.450429Q0.318048 0.403643 0.360845 0.360845Q0.403643 0.318048 0.450429 0.279652Q0.497215 0.241256 0.547539 0.20763Q0.597863 0.174004 0.651241 0.145473Q0.704619 0.116942 0.760536 0.0937806Q0.816453 0.0706189 0.874372 0.0530496Q0.93229 0.0354803 0.991651 0.0236726Q1.05101 0.0118649 1.11125 0.00593243Q1.17148 0 1.232 0L1.232 0Z" id="path_1" />
    <path d="M1.232 0L9.27311 0Q9.33363 0 9.39386 0.00593243Q9.4541 0.0118649 9.51346 0.0236726Q9.57282 0.0354803 9.63074 0.0530496Q9.68866 0.0706189 9.74457 0.0937806Q9.80049 0.116942 9.85387 0.145473Q9.90725 0.174004 9.95757 0.20763Q10.0079 0.241256 10.0547 0.279652Q10.1015 0.318048 10.1443 0.360845Q10.1871 0.403643 10.2255 0.450429Q10.2639 0.497215 10.2975 0.547539Q10.3311 0.597863 10.3596 0.651241Q10.3882 0.704619 10.4113 0.760536Q10.4345 0.816453 10.4521 0.874372Q10.4696 0.93229 10.4814 0.991651Q10.4932 1.05101 10.4992 1.11125Q10.5051 1.17148 10.5051 1.232L10.5051 9.25296Q10.5051 9.31349 10.4992 9.37372Q10.4932 9.43395 10.4814 9.49332Q10.4696 9.55268 10.4521 9.6106Q10.4345 9.66851 10.4113 9.72443Q10.3882 9.78035 10.3596 9.83373Q10.3311 9.8871 10.2975 9.93743Q10.2639 9.98775 10.2255 10.0345Q10.1871 10.0813 10.1443 10.1241Q10.1015 10.1669 10.0547 10.2053Q10.0079 10.2437 9.95757 10.2773Q9.90725 10.311 9.85387 10.3395Q9.80049 10.368 9.74457 10.3912Q9.68866 10.4143 9.63074 10.4319Q9.57282 10.4495 9.51346 10.4613Q9.4541 10.4731 9.39386 10.479Q9.33363 10.485 9.27311 10.485L1.232 10.485Q1.17148 10.485 1.11125 10.479Q1.05101 10.4731 0.991651 10.4613Q0.93229 10.4495 0.874372 10.4319Q0.816453 10.4143 0.760536 10.3912Q0.704619 10.368 0.651241 10.3395Q0.597863 10.311 0.547539 10.2773Q0.497215 10.2437 0.450429 10.2053Q0.403643 10.1669 0.360845 10.1241Q0.318048 10.0813 0.279652 10.0345Q0.241256 9.98775 0.20763 9.93743Q0.174004 9.8871 0.145473 9.83373Q0.116942 9.78035 0.0937806 9.72443Q0.0706189 9.66851 0.0530496 9.6106Q0.0354803 9.55268 0.0236726 9.49332Q0.0118649 9.43395 0.00593243 9.37372Q0 9.31349 0 9.25296L0 1.232Q0 1.17148 0.00593243 1.11125Q0.0118649 1.05101 0.0236726 0.991651Q0.0354803 0.93229 0.0530496 0.874372Q0.0706189 0.816453 0.0937806 0.760536Q0.116942 0.704619 0.145473 0.651241Q0.174004 0.597863 0.20763 0.547539Q0.241256 0.497215 0.279652 0.450429Q0.318048 0.403643 0.360845 0.360845Q0.403643 0.318048 0.450429 0.279652Q0.497215 0.241256 0.547539 0.20763Q0.597863 0.174004 0.651241 0.145473Q0.704619 0.116942 0.760536 0.0937806Q0.816453 0.0706189 0.874372 0.0530496Q0.93229 0.0354803 0.991651 0.0236726Q1.05101 0.0118649 1.11125 0.00593243Q1.17148 0 1.232 0L1.232 0Z" id="path_2" />
    <path d="M1.232 0L9.27311 0Q9.33363 0 9.39386 0.00593243Q9.4541 0.0118649 9.51346 0.0236726Q9.57282 0.0354803 9.63074 0.0530496Q9.68866 0.0706189 9.74457 0.0937806Q9.80049 0.116942 9.85387 0.145473Q9.90725 0.174004 9.95757 0.20763Q10.0079 0.241256 10.0547 0.279652Q10.1015 0.318048 10.1443 0.360845Q10.1871 0.403643 10.2255 0.450429Q10.2639 0.497215 10.2975 0.547539Q10.3311 0.597863 10.3596 0.651241Q10.3882 0.704619 10.4113 0.760536Q10.4345 0.816453 10.4521 0.874372Q10.4696 0.93229 10.4814 0.991651Q10.4932 1.05101 10.4992 1.11125Q10.5051 1.17148 10.5051 1.232L10.5051 9.25296Q10.5051 9.31349 10.4992 9.37372Q10.4932 9.43395 10.4814 9.49331Q10.4696 9.55268 10.4521 9.61059Q10.4345 9.66851 10.4113 9.72443Q10.3882 9.78035 10.3596 9.83372Q10.3311 9.8871 10.2975 9.93743Q10.2639 9.98775 10.2255 10.0345Q10.1871 10.0813 10.1443 10.1241Q10.1015 10.1669 10.0547 10.2053Q10.0079 10.2437 9.95757 10.2773Q9.90725 10.311 9.85387 10.3395Q9.80049 10.368 9.74457 10.3912Q9.68866 10.4143 9.63074 10.4319Q9.57282 10.4495 9.51346 10.4613Q9.4541 10.4731 9.39386 10.479Q9.33363 10.485 9.27311 10.485L1.232 10.485Q1.17148 10.485 1.11125 10.479Q1.05101 10.4731 0.991651 10.4613Q0.93229 10.4495 0.874372 10.4319Q0.816453 10.4143 0.760536 10.3912Q0.704619 10.368 0.651241 10.3395Q0.597863 10.311 0.547539 10.2773Q0.497215 10.2437 0.450429 10.2053Q0.403643 10.1669 0.360845 10.1241Q0.318048 10.0813 0.279652 10.0345Q0.241256 9.98775 0.20763 9.93743Q0.174004 9.8871 0.145473 9.83372Q0.116942 9.78035 0.0937806 9.72443Q0.0706189 9.66851 0.0530496 9.61059Q0.0354803 9.55268 0.0236726 9.49331Q0.0118649 9.43395 0.00593243 9.37372Q0 9.31349 0 9.25296L0 1.232Q0 1.17148 0.00593243 1.11125Q0.0118649 1.05101 0.0236726 0.991651Q0.0354803 0.93229 0.0530496 0.874372Q0.0706189 0.816453 0.0937806 0.760536Q0.116942 0.704619 0.145473 0.651241Q0.174004 0.597863 0.20763 0.547539Q0.241256 0.497215 0.279652 0.450429Q0.318048 0.403643 0.360845 0.360845Q0.403643 0.318048 0.450429 0.279652Q0.497215 0.241256 0.547539 0.20763Q0.597863 0.174004 0.651241 0.145473Q0.704619 0.116942 0.760536 0.0937806Q0.816453 0.0706189 0.874372 0.0530496Q0.93229 0.0354803 0.991651 0.0236726Q1.05101 0.0118649 1.11125 0.00593243Q1.17148 0 1.232 0L1.232 0Z" id="path_3" />
    <clipPath id="mask_1">
      <use xlink:href="#path_1" />
    </clipPath>
    <clipPath id="mask_2">
      <use xlink:href="#path_2" />
    </clipPath>
    <clipPath id="mask_3">
      <use xlink:href="#path_3" />
    </clipPath>
  </defs>
  <g id="Group-35-Copy-2" transform="translate(0.25 0.25)">
    <g id="Group-20" transform="translate(104.980446 0)">
      <path d="M6.47661 0L75.7104 0Q75.8239 0 75.9372 0.00556832Q76.0506 0.0111366 76.1635 0.0222599Q76.2765 0.0333831 76.3887 0.0500344Q76.501 0.0666858 76.6123 0.0888251Q76.7236 0.110964 76.8336 0.138538Q76.9437 0.166112 77.0523 0.199055Q77.1609 0.231997 77.2678 0.270228Q77.3746 0.308459 77.4795 0.351887Q77.5843 0.395315 77.6869 0.443835Q77.7895 0.492355 77.8896 0.54585Q77.9896 0.599345 78.087 0.657687Q78.1843 0.716028 78.2787 0.779076Q78.373 0.842123 78.4642 0.909725Q78.5553 0.977326 78.6431 1.04932Q78.7308 1.12131 78.8149 1.19752Q78.899 1.27373 78.9792 1.35398Q79.0594 1.43422 79.1356 1.5183Q79.2119 1.60239 79.2839 1.69011Q79.3558 1.77784 79.4234 1.86899Q79.491 1.96014 79.5541 2.05449Q79.6171 2.14885 79.6755 2.24619Q79.7338 2.34352 79.7873 2.44361Q79.8408 2.54369 79.8893 2.64628Q79.9379 2.74886 79.9813 2.85371Q80.0247 2.95855 80.0629 3.0654Q80.1012 3.17225 80.1341 3.28085Q80.1671 3.38944 80.1946 3.49952Q80.2222 3.6096 80.2443 3.72091Q80.2665 3.83221 80.2831 3.94446Q80.2998 4.05672 80.3109 4.16965Q80.322 4.28259 80.3276 4.39593Q80.3332 4.50928 80.3332 4.62276L80.3332 66.9188L1.85384 66.9188L1.85384 4.62276Q1.85384 4.50928 1.85941 4.39593Q1.86498 4.28259 1.8761 4.16965Q1.88723 4.05672 1.90388 3.94446Q1.92053 3.83221 1.94267 3.72091Q1.96481 3.6096 1.99238 3.49952Q2.01995 3.38944 2.0529 3.28085Q2.08584 3.17225 2.12407 3.0654Q2.1623 2.95855 2.20573 2.85371Q2.24916 2.74886 2.29768 2.64628Q2.3462 2.54369 2.39969 2.44361Q2.45319 2.34352 2.51153 2.24619Q2.56987 2.14885 2.63292 2.05449Q2.69597 1.96014 2.76357 1.86899Q2.83117 1.77784 2.90316 1.69011Q2.97515 1.60239 3.05136 1.5183Q3.12757 1.43422 3.20782 1.35398Q3.28806 1.27373 3.37215 1.19752Q3.45623 1.12131 3.54396 1.04932Q3.63168 0.977326 3.72283 0.909725Q3.81398 0.842123 3.90834 0.779076Q4.00269 0.716028 4.10003 0.657687Q4.19737 0.599345 4.29745 0.54585Q4.39753 0.492355 4.50012 0.443835Q4.60271 0.395315 4.70755 0.351887Q4.81239 0.308459 4.91924 0.270228Q5.02609 0.231997 5.13469 0.199055Q5.24328 0.166112 5.35336 0.138538Q5.46345 0.110964 5.57475 0.0888251Q5.68605 0.0666858 5.79831 0.0500344Q5.91056 0.0333831 6.0235 0.0222599Q6.13643 0.0111366 6.24978 0.00556832Q6.36312 0 6.47661 0Z" id="Rectangle-Copy-7" fill="url(#gradient_1)" fill-rule="evenodd" stroke="none" />
      <path d="M4.62276 0L73.8566 0Q73.97 0 74.0834 0.00556832Q74.1967 0.0111366 74.3097 0.0222599Q74.4226 0.0333831 74.5349 0.0500344Q74.6471 0.0666858 74.7584 0.0888251Q74.8697 0.110964 74.9798 0.138538Q75.0899 0.166112 75.1985 0.199055Q75.3071 0.231997 75.4139 0.270228Q75.5208 0.308459 75.6256 0.351887Q75.7305 0.395315 75.833 0.443835Q75.9356 0.492355 76.0357 0.54585Q76.1358 0.599345 76.2331 0.657687Q76.3305 0.716028 76.4248 0.779076Q76.5192 0.842123 76.6103 0.909725Q76.7015 0.977326 76.7892 1.04932Q76.8769 1.12131 76.961 1.19752Q77.0451 1.27373 77.1254 1.35398Q77.2056 1.43422 77.2818 1.5183Q77.358 1.60239 77.43 1.69011Q77.502 1.77784 77.5696 1.86899Q77.6372 1.96014 77.7002 2.05449Q77.7633 2.14885 77.8216 2.24619Q77.88 2.34352 77.9335 2.44361Q77.987 2.54369 78.0355 2.64628Q78.084 2.74886 78.1274 2.85371Q78.1709 2.95855 78.2091 3.0654Q78.2473 3.17225 78.2803 3.28085Q78.3132 3.38944 78.3408 3.49952Q78.3684 3.6096 78.3905 3.72091Q78.4126 3.83221 78.4293 3.94446Q78.4459 4.05672 78.4571 4.16965Q78.4682 4.28259 78.4738 4.39593Q78.4793 4.50928 78.4793 4.62276L78.4793 66.9188L0 66.9188L0 4.62276Q0 4.50928 0.00556832 4.39593Q0.0111366 4.28259 0.0222599 4.16965Q0.0333831 4.05672 0.0500344 3.94446Q0.0666858 3.83221 0.0888251 3.72091Q0.110964 3.6096 0.138538 3.49952Q0.166112 3.38944 0.199055 3.28085Q0.231997 3.17225 0.270228 3.0654Q0.308459 2.95855 0.351887 2.85371Q0.395315 2.74886 0.443835 2.64628Q0.492355 2.54369 0.54585 2.44361Q0.599345 2.34352 0.657687 2.24619Q0.716028 2.14885 0.779076 2.05449Q0.842123 1.96014 0.909725 1.86899Q0.977326 1.77784 1.04932 1.69011Q1.12131 1.60239 1.19752 1.5183Q1.27373 1.43422 1.35398 1.35398Q1.43422 1.27373 1.5183 1.19752Q1.60239 1.12131 1.69011 1.04932Q1.77784 0.977326 1.86899 0.909725Q1.96014 0.842123 2.05449 0.779076Q2.14885 0.716028 2.24619 0.657687Q2.34352 0.599345 2.44361 0.54585Q2.54369 0.492355 2.64628 0.443835Q2.74886 0.395315 2.85371 0.351887Q2.95855 0.308459 3.0654 0.270228Q3.17225 0.231997 3.28085 0.199055Q3.38944 0.166112 3.49952 0.138538Q3.6096 0.110964 3.72091 0.0888251Q3.83221 0.0666858 3.94446 0.0500344Q4.05672 0.0333831 4.16965 0.0222599Q4.28259 0.0111366 4.39593 0.00556832Q4.50928 0 4.62276 0Z" id="Rectangle" fill="url(#gradient_2)" stroke="none" />
      <path d="M6.78775 84.4965L72.9275 84.4965Q73.1091 84.4965 73.2899 84.5143Q73.4707 84.5321 73.6489 84.5676Q73.8271 84.603 74.0009 84.6558Q74.1748 84.7085 74.3426 84.778Q74.5105 84.8475 74.6707 84.9332Q74.8309 85.0188 74.982 85.1197Q75.133 85.2207 75.2735 85.3359Q75.4139 85.4512 75.5424 85.5796Q75.6708 85.7081 75.7861 85.8485Q75.9013 85.989 76.0023 86.14Q76.1032 86.2911 76.1888 86.4513Q76.2745 86.6115 76.344 86.7793Q76.4135 86.9472 76.4662 87.121Q76.519 87.2949 76.5544 87.4731Q76.5899 87.6513 76.6077 87.8321Q76.6255 88.0129 76.6255 88.1945L76.6255 152.343Q76.6255 152.525 76.6077 152.705Q76.5899 152.886 76.5544 153.064Q76.519 153.243 76.4662 153.416Q76.4135 153.59 76.344 153.758Q76.2745 153.926 76.1888 154.086Q76.1032 154.246 76.0023 154.398Q75.9013 154.549 75.7861 154.689Q75.6708 154.829 75.5424 154.958Q75.4139 155.086 75.2735 155.202Q75.133 155.317 74.982 155.418Q74.8309 155.519 74.6707 155.604Q74.5105 155.69 74.3426 155.759Q74.1748 155.829 74.0009 155.882Q73.8271 155.935 73.6489 155.97Q73.4707 156.005 73.2899 156.023Q73.1091 156.041 72.9275 156.041L6.78775 156.041Q6.60608 156.041 6.42528 156.023Q6.24448 156.005 6.0663 155.97Q5.88812 155.935 5.71427 155.882Q5.54042 155.829 5.37258 155.759Q5.20474 155.69 5.04452 155.604Q4.8843 155.519 4.73324 155.418Q4.58219 155.317 4.44176 155.202Q4.30132 155.086 4.17286 154.958Q4.0444 154.829 3.92915 154.689Q3.8139 154.549 3.71296 154.398Q3.61203 154.246 3.52639 154.086Q3.44075 153.926 3.37123 153.758Q3.30171 153.59 3.24897 153.416Q3.19624 153.243 3.16079 153.064Q3.12535 152.886 3.10754 152.705Q3.08974 152.525 3.08974 152.343L3.08974 88.1945Q3.08974 88.0129 3.10754 87.8321Q3.12535 87.6513 3.16079 87.4731Q3.19624 87.2949 3.24897 87.121Q3.30171 86.9472 3.37123 86.7794Q3.44075 86.6115 3.52639 86.4513Q3.61203 86.2911 3.71296 86.14Q3.8139 85.989 3.92915 85.8485Q4.0444 85.7081 4.17286 85.5796Q4.30132 85.4512 4.44175 85.3359Q4.58219 85.2207 4.73324 85.1197Q4.8843 85.0188 5.04452 84.9332Q5.20474 84.8475 5.37258 84.778Q5.54042 84.7085 5.71427 84.6557Q5.88812 84.603 6.0663 84.5676Q6.24448 84.5321 6.42528 84.5143Q6.60608 84.4965 6.78775 84.4965L6.78775 84.4965Z" id="Rectangle" fill="url(#gradient_3)" stroke="none" />
      <path d="M15.4487 0L33.0602 0L33.0602 66.9188L15.4487 66.9188L15.4487 0Z" id="Rectangle-Copy-6" fill="url(#gradient_4)" fill-rule="evenodd" stroke="none" />
      <path d="M15.4487 0L20.0833 0L20.0833 66.9188L15.4487 66.9188L15.4487 0Z" id="Rectangle-Copy-8" fill="url(#gradient_5)" fill-opacity="0.39274088" style="mix-blend-mode: multiply;" fill-rule="evenodd" stroke="none" />
      <g id="Group-19" transform="translate(60.558857 9.868206)">
        <path d="M5.56153 11.1017C8.63307 11.1017 11.1231 8.61652 11.1231 5.55087C11.1231 2.48521 8.63307 0 5.56153 0C2.48998 0 0 2.48521 0 5.55087C0 8.61652 2.48998 11.1017 5.56153 11.1017Z" id="Oval" fill="url(#gradient_6)" fill-rule="evenodd" stroke="none" />
        <path d="M5.56153 18.8113C8.63307 18.8113 11.1231 16.3261 11.1231 13.2604C11.1231 10.1947 8.63307 7.70954 5.56153 7.70954C2.48998 7.70954 0 10.1947 0 13.2604C0 16.3261 2.48998 18.8113 5.56153 18.8113Z" id="Oval-Copy-4" fill="url(#gradient_7)" style="mix-blend-mode: multiply;" fill-rule="evenodd" stroke="none" />
      </g>
    </g>
    <path d="M0.154487 262.587L239.609 262.587" id="Path-34" fill="none" fill-rule="evenodd" stroke="#292930" stroke-width="0.5" />
    <g id="Group" transform="translate(86.750984 40.39797)">
      <path d="M15.3949 0L111.81 0Q111.974 0 112.139 0.00808574Q112.304 0.0161715 112.468 0.0323235Q112.632 0.0484755 112.795 0.0726549Q112.958 0.0968342 113.119 0.128983Q113.281 0.161131 113.441 0.201171Q113.601 0.241211 113.758 0.289047Q113.916 0.336882 114.071 0.392397Q114.226 0.447913 114.378 0.510974Q114.531 0.574036 114.68 0.644491Q114.829 0.714947 114.974 0.792628Q115.119 0.870308 115.261 0.955026Q115.402 1.03974 115.539 1.13129Q115.676 1.22285 115.808 1.32101Q115.941 1.41917 116.068 1.52371Q116.196 1.62825 116.318 1.73892Q116.44 1.84958 116.556 1.96611Q116.673 2.08263 116.783 2.20473Q116.894 2.32683 116.999 2.45421Q117.103 2.58159 117.201 2.71395Q117.299 2.84631 117.391 2.98332Q117.483 3.12034 117.567 3.26168Q117.652 3.40303 117.73 3.54836Q117.807 3.69369 117.878 3.84265Q117.948 3.99162 118.011 4.14386Q118.074 4.29611 118.13 4.45126Q118.185 4.60642 118.233 4.76411Q118.281 4.9218 118.321 5.08165Q118.361 5.2415 118.393 5.40312Q118.426 5.56474 118.45 5.72775Q118.474 5.89075 118.49 6.05474Q118.506 6.21874 118.514 6.38333Q118.522 6.54792 118.522 6.7127L118.522 215.322Q118.522 215.487 118.514 215.651Q118.506 215.816 118.49 215.98Q118.474 216.144 118.45 216.307Q118.426 216.47 118.393 216.632Q118.361 216.793 118.321 216.953Q118.281 217.113 118.233 217.271Q118.185 217.428 118.13 217.583Q118.074 217.739 118.011 217.891Q117.948 218.043 117.878 218.192Q117.807 218.341 117.73 218.486Q117.652 218.632 117.567 218.773Q117.483 218.914 117.391 219.051Q117.299 219.188 117.201 219.321Q117.103 219.453 116.999 219.58Q116.894 219.708 116.783 219.83Q116.673 219.952 116.556 220.069Q116.44 220.185 116.318 220.296Q116.196 220.406 116.068 220.511Q115.941 220.615 115.808 220.714Q115.676 220.812 115.539 220.903Q115.402 220.995 115.261 221.08Q115.119 221.164 114.974 221.242Q114.829 221.32 114.68 221.39Q114.531 221.461 114.378 221.524Q114.226 221.587 114.071 221.642Q113.916 221.698 113.758 221.746Q113.601 221.793 113.441 221.833Q113.281 221.874 113.119 221.906Q112.958 221.938 112.795 221.962Q112.632 221.986 112.468 222.002Q112.304 222.018 112.139 222.027Q111.974 222.035 111.81 222.035L15.3949 222.035Q15.2301 222.035 15.0655 222.027Q14.9009 222.018 14.7369 222.002Q14.5729 221.986 14.4099 221.962Q14.2469 221.938 14.0853 221.906Q13.9237 221.874 13.7638 221.833Q13.604 221.793 13.4463 221.746Q13.2886 221.698 13.1334 221.642Q12.9783 221.587 12.826 221.524Q12.6738 221.461 12.5248 221.39Q12.3758 221.32 12.2305 221.242Q12.0852 221.164 11.9438 221.08Q11.8025 220.995 11.6655 220.903Q11.5285 220.812 11.3961 220.714Q11.2638 220.615 11.1364 220.511Q11.009 220.406 10.8869 220.296Q10.7648 220.185 10.6483 220.069Q10.5317 219.952 10.4211 219.83Q10.3104 219.708 10.2059 219.58Q10.1013 219.453 10.0032 219.321Q9.90501 219.188 9.81346 219.051Q9.7219 218.914 9.63719 218.773Q9.55247 218.632 9.47479 218.486Q9.39711 218.341 9.32665 218.192Q9.2562 218.043 9.19314 217.891Q9.13008 217.739 9.07456 217.583Q9.01904 217.428 8.97121 217.271Q8.92338 217.113 8.88334 216.953Q8.84329 216.793 8.81115 216.632Q8.779 216.47 8.75482 216.307Q8.73064 216.144 8.71449 215.98Q8.69833 215.816 8.69025 215.651Q8.68216 215.487 8.68216 215.322L8.68216 6.7127Q8.68216 6.54792 8.69025 6.38333Q8.69833 6.21874 8.71449 6.05474Q8.73064 5.89075 8.75482 5.72775Q8.779 5.56474 8.81115 5.40312Q8.84329 5.2415 8.88334 5.08165Q8.92338 4.9218 8.97121 4.76411Q9.01904 4.60642 9.07456 4.45126Q9.13008 4.29611 9.19314 4.14386Q9.2562 3.99162 9.32665 3.84265Q9.39711 3.69369 9.47479 3.54836Q9.55247 3.40303 9.63719 3.26168Q9.7219 3.12034 9.81346 2.98332Q9.90501 2.84631 10.0032 2.71395Q10.1013 2.58159 10.2059 2.45421Q10.3104 2.32683 10.4211 2.20473Q10.5317 2.08263 10.6483 1.96611Q10.7648 1.84958 10.8869 1.73892Q11.009 1.62825 11.1364 1.52371Q11.2638 1.41917 11.3961 1.32101Q11.5285 1.22285 11.6655 1.13129Q11.8025 1.03974 11.9438 0.955025Q12.0852 0.870308 12.2305 0.792627Q12.3758 0.714947 12.5248 0.644491Q12.6738 0.574036 12.826 0.510974Q12.9783 0.447913 13.1334 0.392397Q13.2886 0.336882 13.4463 0.289047Q13.604 0.241211 13.7638 0.201171Q13.9237 0.161131 14.0853 0.128983Q14.2469 0.0968342 14.4099 0.0726549Q14.5729 0.0484755 14.7369 0.0323235Q14.9009 0.0161715 15.0655 0.00808574Q15.2301 0 15.3949 0Z" id="Rectangle-Copy-2" fill="url(#gradient_8)" fill-rule="evenodd" stroke="none" />
      <path d="M6.7127 0L103.127 0Q103.292 0 103.457 0.00808574Q103.621 0.0161715 103.785 0.0323235Q103.949 0.0484755 104.112 0.0726549Q104.275 0.0968342 104.437 0.128983Q104.599 0.161131 104.759 0.201171Q104.918 0.241211 105.076 0.289047Q105.234 0.336882 105.389 0.392397Q105.544 0.447913 105.696 0.510974Q105.849 0.574036 105.998 0.644491Q106.146 0.714947 106.292 0.792628Q106.437 0.870308 106.578 0.955026Q106.72 1.03974 106.857 1.13129Q106.994 1.22285 107.126 1.32101Q107.259 1.41917 107.386 1.52371Q107.513 1.62825 107.635 1.73892Q107.758 1.84958 107.874 1.96611Q107.991 2.08263 108.101 2.20473Q108.212 2.32683 108.316 2.45421Q108.421 2.58159 108.519 2.71395Q108.617 2.84631 108.709 2.98332Q108.8 3.12034 108.885 3.26168Q108.97 3.40303 109.048 3.54836Q109.125 3.69369 109.196 3.84265Q109.266 3.99162 109.329 4.14386Q109.392 4.29611 109.448 4.45126Q109.503 4.60642 109.551 4.76411Q109.599 4.9218 109.639 5.08165Q109.679 5.2415 109.711 5.40312Q109.743 5.56474 109.768 5.72775Q109.792 5.89075 109.808 6.05474Q109.824 6.21874 109.832 6.38333Q109.84 6.54792 109.84 6.7127L109.84 215.322Q109.84 215.487 109.832 215.651Q109.824 215.816 109.808 215.98Q109.792 216.144 109.768 216.307Q109.743 216.47 109.711 216.632Q109.679 216.793 109.639 216.953Q109.599 217.113 109.551 217.271Q109.503 217.428 109.448 217.583Q109.392 217.739 109.329 217.891Q109.266 218.043 109.196 218.192Q109.125 218.341 109.048 218.486Q108.97 218.632 108.885 218.773Q108.8 218.914 108.709 219.051Q108.617 219.188 108.519 219.321Q108.421 219.453 108.316 219.58Q108.212 219.708 108.101 219.83Q107.991 219.952 107.874 220.069Q107.758 220.185 107.635 220.296Q107.513 220.406 107.386 220.511Q107.259 220.615 107.126 220.714Q106.994 220.812 106.857 220.903Q106.72 220.995 106.579 221.08Q106.437 221.164 106.292 221.242Q106.147 221.32 105.998 221.39Q105.849 221.461 105.696 221.524Q105.544 221.587 105.389 221.642Q105.234 221.698 105.076 221.746Q104.918 221.793 104.759 221.833Q104.599 221.874 104.437 221.906Q104.275 221.938 104.112 221.962Q103.949 221.986 103.785 222.002Q103.621 222.018 103.457 222.027Q103.292 222.035 103.127 222.035L6.7127 222.035Q6.54792 222.035 6.38333 222.027Q6.21874 222.018 6.05474 222.002Q5.89075 221.986 5.72775 221.962Q5.56474 221.938 5.40312 221.906Q5.2415 221.874 5.08165 221.833Q4.9218 221.793 4.76411 221.746Q4.60642 221.698 4.45126 221.642Q4.29611 221.587 4.14386 221.524Q3.99162 221.461 3.84265 221.39Q3.69369 221.32 3.54836 221.242Q3.40303 221.164 3.26168 221.08Q3.12034 220.995 2.98332 220.903Q2.84631 220.812 2.71395 220.714Q2.58159 220.615 2.45421 220.511Q2.32683 220.406 2.20473 220.296Q2.08263 220.185 1.96611 220.069Q1.84958 219.952 1.73892 219.83Q1.62825 219.708 1.52371 219.58Q1.41917 219.453 1.32101 219.321Q1.22285 219.188 1.13129 219.051Q1.03974 218.914 0.955025 218.773Q0.870308 218.632 0.792627 218.486Q0.714947 218.341 0.644491 218.192Q0.574036 218.043 0.510974 217.891Q0.447913 217.739 0.392397 217.583Q0.336882 217.428 0.289047 217.271Q0.241211 217.113 0.201171 216.953Q0.161131 216.793 0.128983 216.632Q0.0968342 216.47 0.0726549 216.307Q0.0484755 216.144 0.0323235 215.98Q0.0161715 215.816 0.00808574 215.651Q0 215.487 0 215.322L0 6.7127Q0 6.54792 0.00808574 6.38333Q0.0161715 6.21874 0.0323235 6.05474Q0.0484755 5.89075 0.0726549 5.72775Q0.0968342 5.56474 0.128983 5.40312Q0.161131 5.2415 0.201171 5.08165Q0.241211 4.9218 0.289047 4.76411Q0.336882 4.60642 0.392397 4.45126Q0.447913 4.29611 0.510974 4.14386Q0.574036 3.99162 0.644491 3.84265Q0.714947 3.69369 0.792628 3.54836Q0.870308 3.40303 0.955026 3.26168Q1.03974 3.12034 1.13129 2.98332Q1.22285 2.84631 1.32101 2.71395Q1.41917 2.58159 1.52371 2.45421Q1.62825 2.32683 1.73892 2.20473Q1.84958 2.08263 1.96611 1.96611Q2.08263 1.84958 2.20473 1.73892Q2.32683 1.62825 2.45421 1.52371Q2.58159 1.41917 2.71395 1.32101Q2.84631 1.22285 2.98332 1.13129Q3.12034 1.03974 3.26168 0.955025Q3.40303 0.870308 3.54836 0.792627Q3.69369 0.714947 3.84265 0.644491Q3.99162 0.574036 4.14386 0.510974Q4.29611 0.447913 4.45126 0.392397Q4.60642 0.336882 4.76411 0.289047Q4.9218 0.241211 5.08165 0.201171Q5.2415 0.161131 5.40312 0.128983Q5.56474 0.0968342 5.72775 0.0726549Q5.89075 0.0484755 6.05474 0.0323235Q6.21874 0.0161715 6.38333 0.00808574Q6.54792 0 6.7127 0L6.7127 0Z" id="Rectangle" fill="url(#gradient_9)" fill-rule="evenodd" stroke="none" />
      <path d="M10.1843 5.92092L26.9609 5.92092Q27.6546 5.92092 28.3387 6.03578Q29.0229 6.15063 29.6785 6.37717Q30.3342 6.60371 30.9433 6.93568Q31.5524 7.26764 32.0981 7.69588L35.729 10.545Q36.2748 10.9732 36.8839 11.3052Q37.493 11.6372 38.1486 11.8637Q38.8043 12.0902 39.4884 12.2051Q40.1726 12.32 40.8662 12.32L71.218 12.32Q71.9105 12.32 72.5935 12.2055Q73.2765 12.091 73.9312 11.8652Q74.5859 11.6394 75.1943 11.3085Q75.8026 10.9776 76.3479 10.5507L80.0017 7.69017Q80.547 7.26326 81.1554 6.93235Q81.7637 6.60145 82.4184 6.37566Q83.0731 6.14987 83.7561 6.0354Q84.4391 5.92092 85.1317 5.92092L99.6559 5.92092Q99.7694 5.92092 99.8827 5.92649Q99.9961 5.93206 100.109 5.94318Q100.222 5.95431 100.334 5.97096Q100.446 5.98761 100.558 6.00975Q100.669 6.03189 100.779 6.05946Q100.889 6.08704 100.998 6.11998Q101.106 6.15292 101.213 6.19115Q101.32 6.22938 101.425 6.27281Q101.53 6.31624 101.632 6.36476Q101.735 6.41328 101.835 6.46677Q101.935 6.52027 102.032 6.57861Q102.13 6.63695 102.224 6.7Q102.319 6.76305 102.41 6.83065Q102.501 6.89825 102.589 6.97024Q102.676 7.04223 102.76 7.11844Q102.844 7.19465 102.925 7.2749Q103.005 7.35514 103.081 7.43923Q103.157 7.52331 103.229 7.61104Q103.301 7.69876 103.369 7.78991Q103.437 7.88106 103.5 7.97542Q103.563 8.06977 103.621 8.16711Q103.679 8.26445 103.733 8.36453Q103.786 8.46461 103.835 8.5672Q103.883 8.66979 103.927 8.77463Q103.97 8.87947 104.008 8.98632Q104.047 9.09317 104.08 9.20177Q104.113 9.31036 104.14 9.42045Q104.168 9.53053 104.19 9.64183Q104.212 9.75313 104.229 9.86539Q104.245 9.97764 104.256 10.0906Q104.268 10.2035 104.273 10.3169Q104.279 10.4302 104.279 10.5437L104.279 211.614Q104.279 211.728 104.273 211.841Q104.268 211.955 104.256 212.067Q104.245 212.18 104.229 212.293Q104.212 212.405 104.19 212.516Q104.168 212.627 104.14 212.738Q104.113 212.848 104.08 212.956Q104.047 213.065 104.008 213.172Q103.97 213.279 103.927 213.383Q103.883 213.488 103.835 213.591Q103.786 213.693 103.733 213.793Q103.679 213.894 103.621 213.991Q103.563 214.088 103.5 214.183Q103.437 214.277 103.369 214.368Q103.301 214.459 103.229 214.547Q103.157 214.635 103.081 214.719Q103.005 214.803 102.925 214.883Q102.844 214.963 102.76 215.04Q102.676 215.116 102.589 215.188Q102.501 215.26 102.41 215.327Q102.319 215.395 102.224 215.458Q102.13 215.521 102.032 215.579Q101.935 215.638 101.835 215.691Q101.735 215.745 101.632 215.793Q101.53 215.842 101.425 215.885Q101.32 215.929 101.213 215.967Q101.106 216.005 100.998 216.038Q100.889 216.071 100.779 216.099Q100.669 216.126 100.558 216.148Q100.446 216.17 100.334 216.187Q100.222 216.204 100.109 216.215Q99.9961 216.226 99.8827 216.232Q99.7694 216.237 99.6559 216.237L10.1843 216.237Q10.0708 216.237 9.95746 216.232Q9.84412 216.226 9.73118 216.215Q9.61824 216.204 9.50599 216.187Q9.39374 216.17 9.28243 216.148Q9.17113 216.126 9.06105 216.099Q8.95097 216.071 8.84237 216.038Q8.73378 216.005 8.62693 215.967Q8.52008 215.929 8.41524 215.885Q8.31039 215.842 8.2078 215.793Q8.10522 215.745 8.00513 215.691Q7.90505 215.638 7.80771 215.579Q7.71038 215.521 7.61602 215.458Q7.52166 215.395 7.43051 215.327Q7.33936 215.26 7.25164 215.188Q7.16392 215.116 7.07983 215.04Q6.99575 214.963 6.9155 214.883Q6.83526 214.803 6.75905 214.719Q6.68284 214.635 6.61085 214.547Q6.53885 214.459 6.47125 214.368Q6.40365 214.277 6.3406 214.183Q6.27756 214.088 6.21921 213.991Q6.16087 213.894 6.10738 213.793Q6.05388 213.693 6.00536 213.591Q5.95684 213.488 5.91341 213.383Q5.86999 213.279 5.83176 213.172Q5.79352 213.065 5.76058 212.956Q5.72764 212.848 5.70007 212.738Q5.67249 212.627 5.65035 212.516Q5.62821 212.405 5.61156 212.293Q5.59491 212.18 5.58379 212.067Q5.57266 211.954 5.5671 211.841Q5.56153 211.728 5.56153 211.614L5.56153 10.5437Q5.56153 10.4302 5.5671 10.3169Q5.57266 10.2035 5.58379 10.0906Q5.59491 9.97764 5.61156 9.86539Q5.62821 9.75313 5.65035 9.64183Q5.67249 9.53053 5.70007 9.42045Q5.72764 9.31036 5.76058 9.20177Q5.79352 9.09317 5.83176 8.98632Q5.86999 8.87947 5.91341 8.77463Q5.95684 8.66979 6.00536 8.5672Q6.05388 8.46461 6.10738 8.36453Q6.16087 8.26445 6.21921 8.16711Q6.27756 8.06977 6.3406 7.97542Q6.40365 7.88106 6.47125 7.78991Q6.53885 7.69876 6.61085 7.61104Q6.68284 7.52331 6.75905 7.43923Q6.83526 7.35514 6.9155 7.2749Q6.99575 7.19465 7.07983 7.11844Q7.16392 7.04223 7.25164 6.97024Q7.33936 6.89825 7.43051 6.83065Q7.52166 6.76305 7.61602 6.7Q7.71038 6.63695 7.80771 6.57861Q7.90505 6.52027 8.00514 6.46677Q8.10522 6.41328 8.2078 6.36476Q8.31039 6.31624 8.41524 6.27281Q8.52008 6.22938 8.62693 6.19115Q8.73378 6.15292 8.84237 6.11998Q8.95097 6.08704 9.06105 6.05946Q9.17113 6.03189 9.28243 6.00975Q9.39374 5.98761 9.50599 5.97096Q9.61825 5.95431 9.73118 5.94318Q9.84412 5.93206 9.95746 5.92649Q10.0708 5.92092 10.1843 5.92092Z" id="Rectangle-Copy" fill="#FFFFFF" fill-rule="evenodd" stroke="none" />
      <path d="M0 138.463L55.9339 138.463Q56.1156 138.463 56.2964 138.481Q56.4772 138.499 56.6554 138.534Q56.8336 138.57 57.0074 138.623Q57.1813 138.675 57.3491 138.745Q57.5169 138.814 57.6772 138.9Q57.8374 138.986 57.9884 139.087Q58.1395 139.187 58.2799 139.303Q58.4204 139.418 58.5488 139.546Q58.6773 139.675 58.7925 139.815Q58.9078 139.956 59.0087 140.107Q59.1096 140.258 59.1953 140.418Q59.2809 140.578 59.3504 140.746Q59.42 140.914 59.4727 141.088Q59.5254 141.262 59.5609 141.44Q59.5963 141.618 59.6141 141.799Q59.6319 141.98 59.6319 142.161L59.6319 157.585Q59.6319 157.767 59.6141 157.948Q59.5963 158.129 59.5609 158.307Q59.5254 158.485 59.4727 158.659Q59.42 158.833 59.3504 159.001Q59.2809 159.168 59.1953 159.329Q59.1096 159.489 59.0087 159.64Q58.9078 159.791 58.7925 159.931Q58.6773 160.072 58.5488 160.2Q58.4204 160.329 58.2799 160.444Q58.1395 160.559 57.9884 160.66Q57.8374 160.761 57.6772 160.847Q57.5169 160.932 57.3491 161.002Q57.1813 161.072 57.0074 161.124Q56.8336 161.177 56.6554 161.212Q56.4772 161.248 56.2964 161.266Q56.1156 161.284 55.9339 161.284L0 161.284L0 138.463Z" id="Rectangle-Copy-11" fill="#7C8EF8" fill-opacity="0.11716425" style="mix-blend-mode: multiply;" fill-rule="evenodd" stroke="none" />
      <path d="M0 175.469L55.9339 175.469Q56.1156 175.469 56.2964 175.487Q56.4772 175.505 56.6554 175.54Q56.8336 175.576 57.0074 175.628Q57.1813 175.681 57.3491 175.751Q57.5169 175.82 57.6772 175.906Q57.8374 175.991 57.9884 176.092Q58.1395 176.193 58.2799 176.308Q58.4204 176.424 58.5488 176.552Q58.6773 176.681 58.7925 176.821Q58.9078 176.962 59.0087 177.113Q59.1096 177.264 59.1953 177.424Q59.2809 177.584 59.3504 177.752Q59.42 177.92 59.4727 178.094Q59.5254 178.267 59.5609 178.446Q59.5963 178.624 59.6141 178.805Q59.6319 178.985 59.6319 179.167L59.6319 194.591Q59.6319 194.773 59.6141 194.954Q59.5963 195.135 59.5609 195.313Q59.5254 195.491 59.4727 195.665Q59.42 195.839 59.3504 196.006Q59.2809 196.174 59.1953 196.334Q59.1096 196.495 59.0087 196.646Q58.9078 196.797 58.7925 196.937Q58.6773 197.078 58.5488 197.206Q58.4204 197.335 58.2799 197.45Q58.1395 197.565 57.9884 197.666Q57.8374 197.767 57.6772 197.853Q57.5169 197.938 57.3491 198.008Q57.1813 198.077 57.0074 198.13Q56.8336 198.183 56.6554 198.218Q56.4772 198.254 56.2964 198.271Q56.1156 198.289 55.9339 198.289L0 198.289L0 175.469Z" id="Rectangle-Copy-12" fill="#7C8EF8" fill-opacity="0.11716425" style="mix-blend-mode: multiply;" fill-rule="evenodd" stroke="none" />
      <g id="Group-36" transform="translate(22.555086 25.904045)">
        <g id="Group-22" transform="translate(15.139716 2.7754333)">
          <path d="M1.7522e-14 0.310723L37.6948 0" id="Path-2" fill="none" fill-rule="evenodd" stroke="#412A8D" stroke-width="1.3563038" stroke-linecap="round" stroke-linejoin="round" />
          <path d="M1.75631e-14 5.55321L16.0666 5.24249" id="Path-2-Copy" fill="none" fill-rule="evenodd" stroke="#FE9178" stroke-width="1.3563038" stroke-linecap="round" stroke-linejoin="round" />
        </g>
        <g id="Group-24">
          <path d="M1.232 0L9.27311 0Q9.33363 0 9.39386 0.00593243Q9.4541 0.0118649 9.51346 0.0236726Q9.57282 0.0354803 9.63074 0.0530496Q9.68866 0.0706189 9.74457 0.0937806Q9.80049 0.116942 9.85387 0.145473Q9.90725 0.174004 9.95757 0.20763Q10.0079 0.241256 10.0547 0.279652Q10.1015 0.318048 10.1443 0.360845Q10.1871 0.403643 10.2255 0.450429Q10.2639 0.497215 10.2975 0.547539Q10.3311 0.597863 10.3596 0.651241Q10.3882 0.704619 10.4113 0.760536Q10.4345 0.816453 10.4521 0.874372Q10.4696 0.93229 10.4814 0.991651Q10.4932 1.05101 10.4992 1.11125Q10.5051 1.17148 10.5051 1.232L10.5051 9.25297Q10.5051 9.31349 10.4992 9.37372Q10.4932 9.43396 10.4814 9.49332Q10.4696 9.55268 10.4521 9.6106Q10.4345 9.66852 10.4113 9.72443Q10.3882 9.78035 10.3596 9.83373Q10.3311 9.88711 10.2975 9.93743Q10.2639 9.98776 10.2255 10.0345Q10.1871 10.0813 10.1443 10.1241Q10.1015 10.1669 10.0547 10.2053Q10.0079 10.2437 9.95757 10.2773Q9.90725 10.311 9.85387 10.3395Q9.80049 10.368 9.74457 10.3912Q9.68866 10.4144 9.63074 10.4319Q9.57282 10.4495 9.51346 10.4613Q9.4541 10.4731 9.39386 10.479Q9.33363 10.485 9.27311 10.485L1.232 10.485Q1.17148 10.485 1.11125 10.479Q1.05101 10.4731 0.991651 10.4613Q0.93229 10.4495 0.874372 10.4319Q0.816453 10.4144 0.760536 10.3912Q0.704619 10.368 0.651241 10.3395Q0.597863 10.311 0.547539 10.2773Q0.497215 10.2437 0.450429 10.2053Q0.403643 10.1669 0.360845 10.1241Q0.318048 10.0813 0.279652 10.0345Q0.241256 9.98776 0.20763 9.93743Q0.174004 9.88711 0.145473 9.83373Q0.116942 9.78035 0.0937806 9.72443Q0.0706189 9.66852 0.0530496 9.6106Q0.0354803 9.55268 0.0236726 9.49332Q0.0118649 9.43396 0.00593243 9.37372Q0 9.31349 0 9.25297L0 1.232Q0 1.17148 0.00593243 1.11125Q0.0118649 1.05101 0.0236726 0.991651Q0.0354803 0.93229 0.0530496 0.874372Q0.0706189 0.816453 0.0937806 0.760536Q0.116942 0.704619 0.145473 0.651241Q0.174004 0.597863 0.20763 0.547539Q0.241256 0.497215 0.279652 0.450429Q0.318048 0.403643 0.360845 0.360845Q0.403643 0.318048 0.450429 0.279652Q0.497215 0.241256 0.547539 0.20763Q0.597863 0.174004 0.651241 0.145473Q0.704619 0.116942 0.760536 0.0937806Q0.816453 0.0706189 0.874372 0.0530496Q0.93229 0.0354803 0.991651 0.0236726Q1.05101 0.0118649 1.11125 0.00593243Q1.17148 0 1.232 0L1.232 0Z" id="Rectangle-Copy-9" fill="url(#gradient_10)" fill-rule="evenodd" stroke="none" />
          <g clip-path="url(#mask_1)">
            <path d="M5.25255 5.55087C6.10576 5.55087 6.79742 4.86053 6.79742 4.00896C6.79742 3.15739 6.10576 2.46705 5.25255 2.46705C4.39935 2.46705 3.70769 3.15739 3.70769 4.00896C3.70769 4.86053 4.39935 5.55087 5.25255 5.55087Z" id="Oval" fill="none" fill-rule="evenodd" stroke="#FFFFFF" stroke-width="1.6275645" stroke-linecap="round" stroke-linejoin="round" />
            <path d="M5.25255 13.5688C6.78833 13.5688 8.03332 12.3262 8.03332 10.7934C8.03332 9.26052 6.78833 8.01792 5.25255 8.01792C3.71678 8.01792 2.47179 9.26052 2.47179 10.7934C2.47179 12.3262 3.71678 13.5688 5.25255 13.5688Z" id="Oval-Copy-5" fill="none" fill-rule="evenodd" stroke="#FFFFFF" stroke-width="1.6275645" stroke-linecap="round" stroke-linejoin="round" />
          </g>
        </g>
      </g>
    </g>
    <g id="Group-18" transform="translate(153.79831 171.46008)">
      <g id="Group-6">
        <path d="M10.1865 12.3353L42.9474 12.3353L42.9474 72.778L10.1865 72.778Q10.0048 72.778 9.82399 72.7602Q9.64319 72.7424 9.46501 72.707Q9.28683 72.6715 9.11298 72.6188Q8.93913 72.566 8.77129 72.4965Q8.60345 72.427 8.44323 72.3414Q8.28301 72.2557 8.13195 72.1548Q7.9809 72.0539 7.84047 71.9386Q7.70003 71.8234 7.57157 71.6949Q7.44311 71.5664 7.32786 71.426Q7.21261 71.2856 7.11168 71.1345Q7.01074 70.9835 6.92511 70.8232Q6.83947 70.663 6.76994 70.4952Q6.70042 70.3273 6.64768 70.1535Q6.59495 69.9796 6.5595 69.8015Q6.52406 69.6233 6.50626 69.4425Q6.48845 69.2617 6.48845 69.08L6.48845 16.0333Q6.48845 15.8516 6.50626 15.6708Q6.52406 15.49 6.5595 15.3118Q6.59495 15.1336 6.64768 14.9598Q6.70042 14.7859 6.76994 14.6181Q6.83947 14.4503 6.92511 14.29Q7.01074 14.1298 7.11168 13.9788Q7.21261 13.8277 7.32786 13.6873Q7.44311 13.5468 7.57157 13.4184Q7.70003 13.2899 7.84047 13.1747Q7.9809 13.0594 8.13195 12.9585Q8.28301 12.8576 8.44323 12.7719Q8.60345 12.6863 8.77129 12.6168Q8.93913 12.5472 9.11298 12.4945Q9.28683 12.4418 9.46501 12.4063Q9.64319 12.3709 9.82399 12.3531Q10.0048 12.3353 10.1865 12.3353L10.1865 12.3353Z" id="Rectangle-Copy-3" fill="#7C8EF8" fill-opacity="0.11716425" style="mix-blend-mode: multiply;" fill-rule="evenodd" stroke="none" />
        <path d="M3.69801 0L82.1967 0Q82.3784 0 82.5592 0.0178069Q82.74 0.0356139 82.9181 0.0710562Q83.0963 0.106499 83.2702 0.159235Q83.444 0.211972 83.6118 0.281494Q83.7797 0.351017 83.9399 0.436656Q84.1001 0.522296 84.2512 0.623227Q84.4022 0.724158 84.5427 0.83941Q84.6831 0.954661 84.8116 1.08312Q84.94 1.21158 85.0553 1.35202Q85.1705 1.49245 85.2715 1.64351Q85.3724 1.79456 85.458 1.95478Q85.5437 2.115 85.6132 2.28284Q85.6827 2.45069 85.7355 2.62453Q85.7882 2.79838 85.8236 2.97656Q85.8591 3.15475 85.8769 3.33554Q85.8947 3.51634 85.8947 3.69801L85.8947 56.7448Q85.8947 56.9264 85.8769 57.1072Q85.8591 57.288 85.8236 57.4662Q85.7882 57.6444 85.7355 57.8182Q85.6827 57.9921 85.6132 58.1599Q85.5437 58.3278 85.458 58.488Q85.3724 58.6482 85.2715 58.7992Q85.1705 58.9503 85.0553 59.0907Q84.94 59.2312 84.8116 59.3596Q84.6831 59.4881 84.5427 59.6034Q84.4022 59.7186 84.2512 59.8195Q84.1001 59.9205 83.9399 60.0061Q83.7797 60.0917 83.6118 60.1613Q83.444 60.2308 83.2702 60.2835Q83.0963 60.3363 82.9181 60.3717Q82.74 60.4072 82.5592 60.425Q82.3784 60.4428 82.1967 60.4428L3.69801 60.4428Q3.51634 60.4428 3.33554 60.425Q3.15475 60.4071 2.97656 60.3717Q2.79838 60.3363 2.62453 60.2835Q2.45069 60.2308 2.28284 60.1613Q2.115 60.0917 1.95478 60.0061Q1.79456 59.9205 1.64351 59.8195Q1.49245 59.7186 1.35202 59.6033Q1.21158 59.4881 1.08312 59.3596Q0.954661 59.2312 0.83941 59.0907Q0.724158 58.9503 0.623227 58.7993Q0.522296 58.6482 0.436656 58.488Q0.351017 58.3278 0.281494 58.1599Q0.211972 57.9921 0.159235 57.8182Q0.106499 57.6444 0.0710562 57.4662Q0.0356139 57.288 0.0178069 57.1072Q0 56.9264 0 56.7448L0 3.69801Q0 3.51634 0.0178069 3.33554Q0.0356139 3.15475 0.0710562 2.97656Q0.106499 2.79838 0.159235 2.62453Q0.211972 2.45069 0.281494 2.28284Q0.351017 2.115 0.436656 1.95478Q0.522296 1.79456 0.623227 1.64351Q0.724158 1.49245 0.83941 1.35202Q0.954661 1.21158 1.08312 1.08312Q1.21158 0.954661 1.35202 0.83941Q1.49245 0.724158 1.64351 0.623227Q1.79456 0.522296 1.95478 0.436656Q2.115 0.351017 2.28284 0.281494Q2.45069 0.211972 2.62453 0.159235Q2.79838 0.106499 2.97656 0.0710562Q3.15475 0.0356139 3.33554 0.0178069Q3.51634 0 3.69801 0Z" id="Rectangle" fill="url(#gradient_11)" fill-rule="evenodd" stroke="none" />
      </g>
      <g id="Group-17" transform="translate(23.173033 16.344217)">
        <g id="Group-13">
          <g id="Group-11">
            <path d="M24.5634 30.2214C25.5019 30.2214 26.2628 29.462 26.2628 28.5253C26.2628 27.5886 25.5019 26.8292 24.5634 26.8292C23.6249 26.8292 22.8641 27.5886 22.8641 28.5253C22.8641 29.462 23.6249 30.2214 24.5634 30.2214Z" id="Oval-Copy-2" fill="#AEB9FD" style="mix-blend-mode: multiply;" fill-rule="evenodd" stroke="none" />
            <path d="M13.4404 30.2214C14.3789 30.2214 15.1397 29.462 15.1397 28.5253C15.1397 27.5886 14.3789 26.8292 13.4404 26.8292C12.5018 26.8292 11.741 27.5886 11.741 28.5253C11.741 29.462 12.5018 30.2214 13.4404 30.2214Z" id="Oval-Copy-3" fill="#AEB9FD" style="mix-blend-mode: multiply;" fill-rule="evenodd" stroke="none" />
            <path d="M-3.38894e-14 -2.1994e-14L4.35508 -2.1994e-14L10.8305 24.763L28.572 24.763" id="Path-35" fill="none" fill-rule="evenodd" stroke="#412A8D" stroke-width="1.3563038" stroke-linecap="round" stroke-linejoin="round" />
            <path d="M5.8245 5.57902L35.469 5.57902L31.4679 19.6163L9.49576 19.6163L5.8245 5.57902Z" id="Path-36" fill="none" fill-rule="evenodd" stroke="#412A8D" stroke-width="1.3563038" stroke-linecap="round" stroke-linejoin="round" />
            <path d="M14.1047 28.8337C14.8555 28.8337 15.4641 28.2262 15.4641 27.4768C15.4641 26.7274 14.8555 26.1199 14.1047 26.1199C13.3538 26.1199 12.7452 26.7274 12.7452 27.4768C12.7452 28.2262 13.3538 28.8337 14.1047 28.8337Z" id="Oval" fill="none" fill-rule="evenodd" stroke="#412A8D" stroke-width="1.3563038" stroke-linecap="round" stroke-linejoin="round" />
            <path d="M25.4903 28.8337C26.2412 28.8337 26.8498 28.2262 26.8498 27.4768C26.8498 26.7274 26.2412 26.1199 25.4903 26.1199C24.7395 26.1199 24.1309 26.7274 24.1309 27.4768C24.1309 28.2262 24.7395 28.8337 25.4903 28.8337Z" id="Oval-Copy" fill="none" fill-rule="evenodd" stroke="#412A8D" stroke-width="1.3563038" stroke-linecap="round" stroke-linejoin="round" />
          </g>
          <g id="Group-12" transform="translate(11.790699 5.5790176)">
            <path d="M0 0L2.80427 14.0372" id="Path-37" fill="none" fill-rule="evenodd" stroke="#412A8D" stroke-width="1.3563038" stroke-linecap="round" stroke-linejoin="round" />
            <path d="M17.0789 0L14.2746 14.0372" id="Path-37-Copy" fill="none" fill-rule="evenodd" stroke="#412A8D" stroke-width="1.3563038" stroke-linecap="round" stroke-linejoin="round" />
            <path d="M8.85605 0L8.85605 13.6999" id="Path-38" fill="none" fill-rule="evenodd" stroke="#412A8D" stroke-width="1.3563038" stroke-linecap="round" stroke-linejoin="round" />
          </g>
        </g>
        <path d="M8.34229 1.85029L42.3294 1.85029L35.469 22.9848L13.146 22.9848L8.34229 1.85029Z" id="Rectangle" fill="#BFBFFD" style="mix-blend-mode: multiply;" fill-rule="evenodd" stroke="none" />
      </g>
    </g>
    <g id="Group-23" transform="translate(108.07018 84.49651)">
      <path d="M3.69801 0L69.8378 0Q70.0194 0 70.2002 0.0178069Q70.381 0.0356139 70.5592 0.0710562Q70.7374 0.106499 70.9112 0.159235Q71.0851 0.211972 71.2529 0.281494Q71.4208 0.351017 71.581 0.436656Q71.7412 0.522296 71.8923 0.623227Q72.0433 0.724158 72.1838 0.83941Q72.3242 0.954661 72.4526 1.08312Q72.5811 1.21158 72.6964 1.35202Q72.8116 1.49245 72.9125 1.64351Q73.0135 1.79456 73.0991 1.95478Q73.1848 2.115 73.2543 2.28284Q73.3238 2.45069 73.3765 2.62453Q73.4293 2.79838 73.4647 2.97656Q73.5002 3.15475 73.518 3.33554Q73.5358 3.51634 73.5358 3.69801L73.5358 67.8465Q73.5358 68.0282 73.518 68.2089Q73.5002 68.3897 73.4647 68.5679Q73.4293 68.7461 73.3765 68.9199Q73.3238 69.0938 73.2543 69.2616Q73.1848 69.4295 73.0991 69.5897Q73.0135 69.7499 72.9125 69.901Q72.8116 70.052 72.6964 70.1925Q72.5811 70.3329 72.4527 70.4614Q72.3242 70.5898 72.1838 70.7051Q72.0433 70.8203 71.8923 70.9213Q71.7412 71.0222 71.581 71.1078Q71.4208 71.1935 71.2529 71.263Q71.0851 71.3325 70.9112 71.3853Q70.7374 71.438 70.5592 71.4734Q70.381 71.5089 70.2002 71.5267Q70.0194 71.5445 69.8378 71.5445L3.69801 71.5445Q3.51634 71.5445 3.33554 71.5267Q3.15475 71.5089 2.97656 71.4734Q2.79838 71.438 2.62453 71.3853Q2.45069 71.3325 2.28284 71.263Q2.115 71.1935 1.95478 71.1078Q1.79456 71.0222 1.64351 70.9213Q1.49245 70.8203 1.35202 70.7051Q1.21158 70.5898 1.08312 70.4614Q0.954661 70.3329 0.83941 70.1925Q0.724158 70.052 0.623227 69.901Q0.522296 69.7499 0.436656 69.5897Q0.351017 69.4295 0.281494 69.2616Q0.211972 69.0938 0.159235 68.9199Q0.106499 68.7461 0.0710562 68.5679Q0.0356139 68.3897 0.0178069 68.2089Q0 68.0282 0 67.8465L0 3.69801Q0 3.51634 0.0178069 3.33554Q0.0356139 3.15475 0.0710562 2.97656Q0.106499 2.79838 0.159235 2.62453Q0.211972 2.45069 0.281494 2.28284Q0.351017 2.115 0.436656 1.95478Q0.522296 1.79456 0.623227 1.64351Q0.724158 1.49245 0.83941 1.35202Q0.954661 1.21158 1.08312 1.08312Q1.21158 0.954661 1.35202 0.83941Q1.49245 0.724158 1.64351 0.623227Q1.79456 0.522296 1.95478 0.436656Q2.115 0.351017 2.28284 0.281494Q2.45069 0.211972 2.62453 0.159235Q2.79838 0.106499 2.97656 0.0710562Q3.15475 0.0356139 3.33554 0.0178069Q3.51634 0 3.69801 0L3.69801 0Z" id="Rectangle" fill="url(#gradient_12)" stroke="none" />
      <g id="Group-21" transform="translate(22.246117 17.269358)">
        <path d="M5.96374 0L7.93067 0L10.6849 2.85017Q10.8628 3.03429 11.0591 3.19873Q11.2554 3.36317 11.4678 3.50611Q11.6802 3.64905 11.9065 3.76891Q12.1327 3.88878 12.3703 3.98424Q12.6079 4.07971 12.8542 4.14972Q13.1005 4.21973 13.3527 4.26352Q13.605 4.3073 13.8605 4.32438Q14.116 4.34146 14.3718 4.33163L14.3727 4.3316Q14.6271 4.32183 14.8789 4.28428Q15.1308 4.24672 15.3769 4.18182Q15.6231 4.11692 15.8607 4.02545Q16.0983 3.93399 16.3245 3.81707Q16.5506 3.70015 16.7626 3.55916Q16.9746 3.41818 17.1699 3.25484Q17.3652 3.0915 17.5414 2.90776Q17.7177 2.72402 17.8727 2.52209L19.8094 0L21.9342 0Q22.0385 0 22.1423 0.010222Q22.2461 0.0204439 22.3484 0.0407894Q22.4507 0.0611349 22.5505 0.091408Q22.6502 0.121681 22.7466 0.16159Q22.8429 0.201499 22.9349 0.25066Q23.0269 0.299821 23.1136 0.35776Q23.2003 0.415699 23.2809 0.481858Q23.3615 0.548018 23.4353 0.62176Q23.509 0.695502 23.5752 0.776118Q23.6414 0.856733 23.6993 0.943445Q23.7572 1.03016 23.8064 1.12213Q23.8556 1.2141 23.8955 1.31045Q23.9354 1.4068 23.9656 1.5066Q23.9959 1.6064 24.0163 1.70868Q24.0366 1.81096 24.0468 1.91475Q24.0571 2.01853 24.0571 2.12282L24.0571 7.34988Q24.0571 7.672 23.9709 7.9824L22.3945 13.6655Q22.2709 14.1113 22.1842 14.5657Q22.0976 15.0201 22.0486 15.4801Q21.9996 15.9401 21.9886 16.4026Q21.9775 16.865 22.0045 17.3268Q22.0315 17.7887 22.0963 18.2467Q22.1612 18.7047 22.2634 19.1559Q22.3656 19.6071 22.5046 20.0483Q22.6435 20.4895 22.8183 20.9179L28.8867 35.7945Q28.9072 35.8448 28.9246 35.8963Q28.942 35.9477 28.9562 36.0001Q28.9704 36.0525 28.9814 36.1057Q28.9924 36.1589 29.0001 36.2127Q29.0079 36.2664 29.0123 36.3206Q29.0167 36.3747 29.0178 36.429Q29.0189 36.4833 29.0166 36.5376Q29.0144 36.5918 29.0089 36.6458Q29.0033 36.6999 28.9945 36.7535Q28.9857 36.807 28.9736 36.86Q28.9615 36.9129 28.9462 36.965Q28.9309 37.0171 28.9124 37.0682Q28.8939 37.1193 28.8724 37.1691Q28.8508 37.219 28.8262 37.2674Q28.8017 37.3159 28.7742 37.3627Q28.7467 37.4095 28.7164 37.4546Q28.6861 37.4997 28.6531 37.5428Q28.6201 37.586 28.5846 37.627Q28.549 37.668 28.511 37.7068Q28.473 37.7456 28.4327 37.782Q28.3923 37.8184 28.3499 37.8523Q28.3074 37.8861 28.263 37.9173Q28.2185 37.9485 28.1722 37.9769Q28.1259 38.0054 28.078 38.0309Q28.0301 38.0564 27.9807 38.079Q27.9313 38.1015 27.8806 38.121Q27.8299 38.1405 27.7781 38.1569Q27.7263 38.1732 27.6736 38.1864Q27.6209 38.1996 27.5675 38.2095Q27.5141 38.2194 27.4602 38.226Q27.4063 38.2327 27.3521 38.236Q27.2979 38.2393 27.2436 38.2393L2.51797 38.2393Q2.46489 38.2393 2.41191 38.2361Q2.35893 38.2329 2.30622 38.2266Q2.25352 38.2203 2.2013 38.2108Q2.14907 38.2013 2.0975 38.1888Q2.04594 38.1762 1.99521 38.1605Q1.94449 38.1449 1.89479 38.1263Q1.84509 38.1076 1.79659 38.0861Q1.7481 38.0645 1.70098 38.04Q1.65386 38.0156 1.60829 37.9884Q1.56271 37.9612 1.51885 37.9313Q1.47498 37.9014 1.43298 37.869Q1.39098 37.8365 1.35099 37.8016Q1.311 37.7667 1.27317 37.7295Q1.23535 37.6922 1.19981 37.6528Q1.16427 37.6134 1.13116 37.5719Q1.09804 37.5304 1.06747 37.487Q1.03689 37.4436 1.00896 37.3985Q0.981031 37.3533 0.955849 37.3066Q0.930668 37.2599 0.908325 37.2117Q0.885981 37.1636 0.866556 37.1142Q0.84713 37.0648 0.830692 37.0143Q0.814253 36.9639 0.800861 36.9125Q0.787468 36.8611 0.77717 36.8091Q0.766871 36.757 0.759703 36.7044Q0.752536 36.6518 0.748524 36.5989Q0.744512 36.546 0.743671 36.4929Q0.74283 36.4398 0.745163 36.3868Q0.747496 36.3338 0.752994 36.281Q0.758492 36.2282 0.767136 36.1758Q0.775779 36.1234 0.787538 36.0717Q0.799296 36.0199 0.814128 35.9689Q0.828959 35.918 0.84681 35.868L6.08943 21.1872Q6.25043 20.7363 6.37252 20.2734Q6.49461 19.8106 6.57692 19.339Q6.65923 18.8674 6.70115 18.3905Q6.74308 17.9137 6.74433 17.4349Q6.74557 16.9562 6.70612 16.4792Q6.66667 16.0021 6.58682 15.5301Q6.50696 15.0581 6.38728 14.5946Q6.26759 14.1311 6.10894 13.6794L4.13253 8.05271Q3.9988 7.672 3.9988 7.26848L3.9988 1.96494Q3.9988 1.86841 4.00826 1.77234Q4.01772 1.67627 4.03656 1.5816Q4.05539 1.48692 4.08341 1.39455Q4.11143 1.30217 4.14837 1.21299Q4.18531 1.12381 4.23082 1.03867Q4.27632 0.953539 4.32995 0.873276Q4.38358 0.793014 4.44482 0.718394Q4.50606 0.643775 4.57432 0.575517Q4.64257 0.507259 4.71719 0.44602Q4.79181 0.384781 4.87208 0.331152Q4.95234 0.277522 5.03747 0.232017Q5.12261 0.186513 5.21179 0.149572Q5.30097 0.112631 5.39335 0.0846095Q5.48572 0.056588 5.5804 0.0377557Q5.67507 0.0189234 5.77114 0.00946171Q5.86721 0 5.96374 0Z" id="Path-40" fill="none" fill-rule="evenodd" stroke="#FFFFFF" stroke-width="1.6275645" stroke-linecap="round" stroke-linejoin="round" />
        <path d="M14.3686 4.31734L14.3686 11.2559" id="Path-43" fill="none" fill-rule="evenodd" stroke="#FFFFFF" stroke-width="1.6275645" stroke-linecap="round" stroke-linejoin="round" />
        <path d="M6.98832 17.7319L21.7488 17.7319" id="Path-42" fill="none" fill-rule="evenodd" stroke="#FFFFFF" stroke-width="1.6275645" stroke-linecap="round" stroke-linejoin="round" />
        <path d="M6.98832 20.5074L22.0942 20.5074" id="Path-42-Copy" fill="none" fill-rule="evenodd" stroke="#FFFFFF" stroke-width="1.6275645" stroke-linecap="round" stroke-linejoin="round" />
      </g>
    </g>
    <g id="Group-23-Copy" transform="translate(108.07018 171.46008)" opacity="0" />
    <g id="Group-6-Copy" transform="matrix(-1 0 0 1 129.0804 107.31674)">
      <path d="M3.60619 11.1017L42.2985 11.1017L42.2985 63.0332L3.60619 63.0332Q3.44269 63.0332 3.27997 63.0171Q3.11726 63.0011 2.9569 62.9692Q2.79655 62.9373 2.64009 62.8899Q2.48363 62.8424 2.33257 62.7798Q2.18152 62.7173 2.03733 62.6402Q1.89313 62.5631 1.75719 62.4723Q1.62124 62.3814 1.49486 62.2777Q1.36847 62.174 1.25286 62.0584Q1.13725 61.9428 1.03352 61.8164Q0.929799 61.69 0.838964 61.5541Q0.748128 61.4181 0.671055 61.2739Q0.593982 61.1297 0.531413 60.9787Q0.468845 60.8276 0.421384 60.6712Q0.373922 60.5147 0.342025 60.3543Q0.310128 60.194 0.294102 60.0313Q0.278076 59.8686 0.278076 59.7051L0.278076 14.4298Q0.278076 14.2663 0.294102 14.1036Q0.310128 13.9409 0.342025 13.7806Q0.373922 13.6202 0.421384 13.4637Q0.468845 13.3073 0.531413 13.1562Q0.593982 13.0052 0.671055 12.861Q0.748128 12.7168 0.838964 12.5808Q0.929799 12.4449 1.03352 12.3185Q1.13725 12.1921 1.25286 12.0765Q1.36847 11.9609 1.49486 11.8572Q1.62124 11.7535 1.75719 11.6626Q1.89313 11.5718 2.03733 11.4947Q2.18152 11.4176 2.33257 11.3551Q2.48363 11.2925 2.64009 11.245Q2.79655 11.1976 2.9569 11.1657Q3.11726 11.1338 3.27997 11.1178Q3.44269 11.1017 3.60619 11.1017Z" id="Rectangle-Copy-3" fill="#7C8EF8" fill-opacity="0.11716425" style="mix-blend-mode: multiply;" fill-rule="evenodd" stroke="none" />
      <path d="M10.7435 0L81.3925 0Q81.556 0 81.7187 0.0160258Q81.8814 0.0320515 82.0418 0.0639487Q82.2021 0.0958458 82.3586 0.143307Q82.5151 0.190769 82.6661 0.253337Q82.8172 0.315906 82.9614 0.392979Q83.1056 0.470052 83.2415 0.560887Q83.3774 0.651723 83.5038 0.755446Q83.6302 0.859169 83.7458 0.97478Q83.8614 1.09039 83.9652 1.21678Q84.0689 1.34317 84.1597 1.47911Q84.2506 1.61506 84.3276 1.75925Q84.4047 1.90344 84.4673 2.0545Q84.5298 2.20555 84.5773 2.36201Q84.6248 2.51847 84.6567 2.67883Q84.6886 2.83918 84.7046 3.0019Q84.7206 3.16461 84.7206 3.32811L84.7206 51.0704Q84.7206 51.2339 84.7046 51.3966Q84.6886 51.5593 84.6567 51.7196Q84.6248 51.88 84.5773 52.0365Q84.5298 52.1929 84.4673 52.344Q84.4047 52.495 84.3276 52.6392Q84.2506 52.7834 84.1597 52.9194Q84.0689 53.0553 83.9652 53.1817Q83.8614 53.3081 83.7458 53.4237Q83.6302 53.5393 83.5038 53.643Q83.3774 53.7468 83.2415 53.8376Q83.1056 53.9284 82.9614 54.0055Q82.8172 54.0826 82.6661 54.1451Q82.5151 54.2077 82.3586 54.2552Q82.2021 54.3026 82.0418 54.3345Q81.8814 54.3664 81.7187 54.3825Q81.556 54.3985 81.3925 54.3985L10.7435 54.3985Q10.58 54.3985 10.4173 54.3825Q10.2546 54.3664 10.0942 54.3345Q9.93384 54.3026 9.77738 54.2552Q9.62092 54.2077 9.46987 54.1451Q9.31881 54.0826 9.17462 54.0055Q9.03043 53.9284 8.89448 53.8376Q8.75854 53.7468 8.63215 53.643Q8.50576 53.5393 8.39015 53.4237Q8.27454 53.3081 8.17082 53.1817Q8.06709 53.0553 7.97626 52.9194Q7.88542 52.7834 7.80835 52.6392Q7.73128 52.495 7.66871 52.344Q7.60614 52.1929 7.55868 52.0365Q7.51122 51.88 7.47932 51.7196Q7.44742 51.5593 7.4314 51.3966Q7.41537 51.2339 7.41537 51.0704L7.41537 3.32811Q7.41537 3.16461 7.4314 3.0019Q7.44742 2.83918 7.47932 2.67883Q7.51122 2.51847 7.55868 2.36201Q7.60614 2.20555 7.66871 2.0545Q7.73128 1.90344 7.80835 1.75925Q7.88542 1.61506 7.97626 1.47911Q8.06709 1.34317 8.17082 1.21678Q8.27454 1.09039 8.39015 0.97478Q8.50576 0.859169 8.63215 0.755446Q8.75854 0.651723 8.89448 0.560887Q9.03043 0.470052 9.17462 0.392979Q9.31881 0.315906 9.46987 0.253337Q9.62092 0.190769 9.77738 0.143307Q9.93384 0.0958458 10.0942 0.0639487Q10.2546 0.0320515 10.4173 0.0160258Q10.58 0 10.7435 0Z" id="Rectangle" fill="url(#gradient_13)" fill-rule="evenodd" stroke="none" />
      <g id="Group-16" transform="translate(21.319191 17.886124)">
        <g id="Rectangle-Copy-5" transform="translate(0.120780684 3.3921957)">
          <path d="M6.93758 0L40.0264 0Q40.1967 0 40.3668 0.00835662Q40.537 0.0167132 40.7064 0.0334064Q40.8759 0.0500995 41.0444 0.0750889Q41.2129 0.100078 41.3799 0.133304Q41.5469 0.166529 41.7121 0.207911Q41.8773 0.249292 42.0403 0.29873Q42.2033 0.348168 42.3636 0.405543Q42.524 0.462918 42.6813 0.528092Q42.8387 0.593266 42.9926 0.666082Q43.1466 0.738898 43.2968 0.819181Q43.447 0.899464 43.5931 0.98702Q43.7391 1.07458 43.8808 1.16919Q44.0224 1.26381 44.1592 1.36526Q44.2959 1.46672 44.4276 1.57476Q44.5592 1.6828 44.6854 1.79717Q44.8116 1.91154 44.932 2.03197Q45.0525 2.1524 45.1669 2.27859Q45.2812 2.40478 45.3893 2.53643Q45.4973 2.66808 45.5988 2.80487Q45.7002 2.94166 45.7948 3.08327Q45.8894 3.22487 45.977 3.37095Q46.0646 3.51703 46.1448 3.66723Q46.2251 3.81743 46.2979 3.97138Q46.3708 4.12534 46.4359 4.28268Q46.5011 4.44003 46.5585 4.60038Q46.6158 4.76073 46.6653 4.92371Q46.7147 5.08668 46.7561 5.25189Q46.7975 5.41709 46.8307 5.58413Q46.8639 5.75116 46.8889 5.91963Q46.9139 6.08809 46.9306 6.25758Q46.9473 6.42707 46.9557 6.59717Q46.964 6.76728 46.964 6.93758L46.964 6.93958Q46.964 7.10989 46.9557 7.27999Q46.9473 7.4501 46.9306 7.61959Q46.9139 7.78907 46.8889 7.95754Q46.8639 8.126 46.8307 8.29304Q46.7975 8.46007 46.7561 8.62528Q46.7147 8.79048 46.6653 8.95346Q46.6158 9.11643 46.5585 9.27678Q46.5011 9.43714 46.4359 9.59448Q46.3708 9.75182 46.2979 9.90578Q46.2251 10.0597 46.1448 10.2099Q46.0646 10.3601 45.977 10.5062Q45.8895 10.6523 45.7948 10.7939Q45.7002 10.9355 45.5988 11.0723Q45.4973 11.2091 45.3893 11.3407Q45.2812 11.4724 45.1669 11.5986Q45.0525 11.7248 44.932 11.8452Q44.8116 11.9656 44.6854 12.08Q44.5592 12.1944 44.4276 12.3024Q44.2959 12.4104 44.1591 12.5119Q44.0224 12.6134 43.8808 12.708Q43.7391 12.8026 43.5931 12.8901Q43.447 12.9777 43.2968 13.058Q43.1466 13.1383 42.9926 13.2111Q42.8387 13.2839 42.6813 13.3491Q42.524 13.4142 42.3636 13.4716Q42.2033 13.529 42.0403 13.5784Q41.8773 13.6279 41.7121 13.6693Q41.5469 13.7106 41.3799 13.7439Q41.2129 13.7771 41.0444 13.8021Q40.8759 13.8271 40.7064 13.8438Q40.537 13.8605 40.3669 13.8688Q40.1967 13.8772 40.0264 13.8772L6.93758 13.8772Q6.76728 13.8772 6.59717 13.8688Q6.42707 13.8605 6.25758 13.8438Q6.08809 13.8271 5.91963 13.8021Q5.75116 13.7771 5.58413 13.7439Q5.41709 13.7106 5.25189 13.6693Q5.08668 13.6279 4.92371 13.5784Q4.76073 13.529 4.60038 13.4716Q4.44003 13.4142 4.28268 13.3491Q4.12534 13.2839 3.97138 13.2111Q3.81743 13.1383 3.66723 13.058Q3.51703 12.9777 3.37095 12.8901Q3.22487 12.8026 3.08327 12.708Q2.94166 12.6134 2.80487 12.5119Q2.66808 12.4104 2.53643 12.3024Q2.40478 12.1944 2.27859 12.08Q2.1524 11.9656 2.03197 11.8452Q1.91154 11.7248 1.79717 11.5986Q1.6828 11.4724 1.57476 11.3407Q1.46672 11.2091 1.36526 11.0723Q1.26381 10.9355 1.16919 10.7939Q1.07458 10.6523 0.987019 10.5062Q0.899464 10.3601 0.819181 10.2099Q0.738898 10.0597 0.666082 9.90578Q0.593266 9.75182 0.528092 9.59448Q0.462918 9.43714 0.405543 9.27678Q0.348168 9.11643 0.29873 8.95346Q0.249292 8.79048 0.207911 8.62528Q0.166529 8.46007 0.133304 8.29304Q0.100078 8.126 0.0750889 7.95754Q0.0500995 7.78907 0.0334064 7.61959Q0.0167132 7.4501 0.00835662 7.27999Q0 7.10989 0 6.93958L0 6.93758Q0 6.76728 0.00835662 6.59717Q0.0167132 6.42707 0.0334064 6.25758Q0.0500995 6.08809 0.0750889 5.91963Q0.100078 5.75116 0.133304 5.58413Q0.166529 5.41709 0.207911 5.25189Q0.249292 5.08668 0.29873 4.92371Q0.348168 4.76073 0.405543 4.60038Q0.462918 4.44003 0.528092 4.28268Q0.593266 4.12534 0.666082 3.97138Q0.738898 3.81743 0.819181 3.66723Q0.899464 3.51703 0.98702 3.37095Q1.07458 3.22487 1.16919 3.08327Q1.26381 2.94166 1.36526 2.80487Q1.46672 2.66808 1.57476 2.53643Q1.6828 2.40478 1.79717 2.27859Q1.91154 2.1524 2.03197 2.03197Q2.1524 1.91154 2.27859 1.79717Q2.40478 1.6828 2.53643 1.57476Q2.66808 1.46672 2.80487 1.36526Q2.94166 1.26381 3.08327 1.16919Q3.22487 1.07458 3.37095 0.987019Q3.51703 0.899464 3.66723 0.819181Q3.81743 0.738898 3.97138 0.666082Q4.12534 0.593266 4.28268 0.528092Q4.44003 0.462918 4.60038 0.405543Q4.76073 0.348168 4.92371 0.29873Q5.08668 0.249292 5.25189 0.207911Q5.41709 0.166529 5.58413 0.133304Q5.75116 0.100078 5.91963 0.0750889Q6.08809 0.0500995 6.25758 0.0334064Q6.42707 0.0167132 6.59717 0.00835662Q6.76728 0 6.93758 0Z" id="Rectangle-Copy-4" fill="#D4C7FD" style="mix-blend-mode: multiply;" fill-rule="evenodd" stroke="none" />
        </g>
        <g id="Group-14" transform="translate(2.2835975 0)">
          <path d="M6.93758 0L40.0264 0Q40.1967 0 40.3668 0.00835662Q40.537 0.0167132 40.7064 0.0334064Q40.8759 0.0500995 41.0444 0.0750888Q41.2129 0.100078 41.3799 0.133304Q41.5469 0.166529 41.7121 0.207911Q41.8773 0.249292 42.0403 0.29873Q42.2033 0.348168 42.3636 0.405543Q42.524 0.462918 42.6813 0.528092Q42.8387 0.593266 42.9926 0.666082Q43.1466 0.738898 43.2968 0.819181Q43.447 0.899464 43.5931 0.987019Q43.7391 1.07458 43.8808 1.16919Q44.0224 1.26381 44.1592 1.36526Q44.2959 1.46672 44.4276 1.57476Q44.5592 1.6828 44.6854 1.79717Q44.8116 1.91154 44.932 2.03197Q45.0525 2.1524 45.1669 2.27859Q45.2812 2.40478 45.3893 2.53643Q45.4973 2.66808 45.5988 2.80487Q45.7002 2.94166 45.7948 3.08327Q45.8894 3.22487 45.977 3.37095Q46.0646 3.51703 46.1448 3.66723Q46.2251 3.81743 46.2979 3.97138Q46.3708 4.12534 46.4359 4.28268Q46.5011 4.44003 46.5585 4.60038Q46.6158 4.76073 46.6653 4.92371Q46.7147 5.08668 46.7561 5.25189Q46.7975 5.41709 46.8307 5.58413Q46.8639 5.75116 46.8889 5.91963Q46.9139 6.08809 46.9306 6.25758Q46.9473 6.42707 46.9557 6.59717Q46.964 6.76727 46.964 6.93758L46.964 6.93958Q46.964 7.10989 46.9557 7.27999Q46.9473 7.4501 46.9306 7.61958Q46.9139 7.78907 46.8889 7.95754Q46.8639 8.126 46.8307 8.29304Q46.7975 8.46007 46.7561 8.62528Q46.7147 8.79048 46.6653 8.95346Q46.6158 9.11643 46.5585 9.27678Q46.5011 9.43714 46.4359 9.59448Q46.3708 9.75182 46.2979 9.90578Q46.2251 10.0597 46.1448 10.2099Q46.0646 10.3601 45.977 10.5062Q45.8895 10.6523 45.7948 10.7939Q45.7002 10.9355 45.5988 11.0723Q45.4973 11.2091 45.3893 11.3407Q45.2812 11.4724 45.1669 11.5986Q45.0525 11.7248 44.932 11.8452Q44.8116 11.9656 44.6854 12.08Q44.5592 12.1944 44.4276 12.3024Q44.2959 12.4104 44.1591 12.5119Q44.0224 12.6134 43.8808 12.708Q43.7391 12.8026 43.5931 12.8901Q43.447 12.9777 43.2968 13.058Q43.1466 13.1383 42.9926 13.2111Q42.8387 13.2839 42.6813 13.3491Q42.524 13.4142 42.3636 13.4716Q42.2033 13.529 42.0403 13.5784Q41.8773 13.6279 41.7121 13.6693Q41.5469 13.7106 41.3799 13.7439Q41.2129 13.7771 41.0444 13.8021Q40.8759 13.8271 40.7064 13.8438Q40.537 13.8605 40.3669 13.8688Q40.1967 13.8772 40.0264 13.8772L6.93758 13.8772Q6.76727 13.8772 6.59717 13.8688Q6.42707 13.8605 6.25758 13.8438Q6.08809 13.8271 5.91963 13.8021Q5.75116 13.7771 5.58413 13.7439Q5.41709 13.7106 5.25189 13.6693Q5.08668 13.6279 4.92371 13.5784Q4.76073 13.529 4.60038 13.4716Q4.44003 13.4142 4.28268 13.3491Q4.12534 13.2839 3.97138 13.2111Q3.81743 13.1383 3.66723 13.058Q3.51703 12.9777 3.37095 12.8901Q3.22487 12.8026 3.08327 12.708Q2.94166 12.6134 2.80487 12.5119Q2.66808 12.4104 2.53643 12.3024Q2.40478 12.1944 2.27859 12.08Q2.1524 11.9656 2.03197 11.8452Q1.91154 11.7248 1.79717 11.5986Q1.6828 11.4724 1.57476 11.3407Q1.46672 11.2091 1.36526 11.0723Q1.26381 10.9355 1.16919 10.7939Q1.07458 10.6523 0.987019 10.5062Q0.899464 10.3601 0.819181 10.2099Q0.738898 10.0597 0.666082 9.90578Q0.593266 9.75182 0.528092 9.59448Q0.462918 9.43713 0.405543 9.27678Q0.348168 9.11643 0.29873 8.95346Q0.249292 8.79048 0.207911 8.62528Q0.166529 8.46007 0.133304 8.29304Q0.100078 8.126 0.0750889 7.95754Q0.0500995 7.78907 0.0334064 7.61959Q0.0167132 7.4501 0.00835662 7.27999Q0 7.10989 0 6.93958L0 6.93758Q0 6.76727 0.00835662 6.59717Q0.0167132 6.42707 0.0334064 6.25758Q0.0500995 6.08809 0.0750888 5.91963Q0.100078 5.75116 0.133304 5.58413Q0.166529 5.41709 0.207911 5.25189Q0.249292 5.08668 0.29873 4.92371Q0.348168 4.76073 0.405543 4.60038Q0.462918 4.44003 0.528092 4.28268Q0.593266 4.12534 0.666082 3.97138Q0.738898 3.81743 0.819181 3.66723Q0.899464 3.51703 0.987019 3.37095Q1.07458 3.22487 1.16919 3.08327Q1.26381 2.94166 1.36526 2.80487Q1.46672 2.66808 1.57476 2.53643Q1.6828 2.40478 1.79717 2.27859Q1.91154 2.1524 2.03197 2.03197Q2.1524 1.91154 2.27859 1.79717Q2.40478 1.6828 2.53643 1.57476Q2.66808 1.46672 2.80487 1.36526Q2.94166 1.26381 3.08327 1.16919Q3.22487 1.07458 3.37095 0.987019Q3.51703 0.899464 3.66723 0.819181Q3.81743 0.738898 3.97138 0.666082Q4.12534 0.593266 4.28268 0.528092Q4.44003 0.462918 4.60038 0.405543Q4.76073 0.348168 4.92371 0.29873Q5.08668 0.249292 5.25189 0.207911Q5.41709 0.166529 5.58413 0.133304Q5.75116 0.100078 5.91963 0.0750889Q6.08809 0.0500995 6.25758 0.0334064Q6.42707 0.0167132 6.59717 0.00835662Q6.76727 0 6.93758 0L6.93758 0Z" id="Rectangle" fill="none" fill-rule="evenodd" stroke="#412A8D" stroke-width="1.3563038" stroke-linecap="round" stroke-linejoin="round" />
          <path d="M7.29847 6.93858L38.4441 6.93858" id="Path-39" fill="none" fill-rule="evenodd" stroke="#412A8D" stroke-width="1.3563038" stroke-linecap="round" stroke-linejoin="round" />
        </g>
      </g>
    </g>
    <g id="Group-34" transform="translate(0.23832774 107.9335)">
      <g id="Group-5" transform="translate(0 10.114909)">
        <g id="Group-2" transform="translate(0 49.09432)">
          <path d="M5.34368 4.83542L20.6101 4.83542Q20.7081 4.83542 20.8057 4.84396Q20.9033 4.8525 20.9998 4.86952Q21.0962 4.88654 21.1909 4.91191Q21.2855 4.93727 21.3776 4.9708Q21.4696 5.00432 21.5584 5.04573Q21.6472 5.08715 21.732 5.13616Q21.8169 5.18516 21.8971 5.24137Q21.9774 5.29759 22.0524 5.36058Q22.1274 5.42358 22.1967 5.49288Q22.2659 5.56217 22.3289 5.63724Q22.3918 5.71232 22.448 5.79259Q22.5042 5.87287 22.5531 5.95773Q22.6021 6.0426 22.6434 6.13141Q22.6848 6.22022 22.7183 6.3123Q22.7517 6.40438 22.777 6.49902Q22.8023 6.59367 22.8193 6.69016L25.4913 21.8911Q25.5125 22.0117 25.5204 22.1338Q25.5283 22.256 25.523 22.3783Q25.5176 22.5006 25.4989 22.6216Q25.4802 22.7426 25.4485 22.8608Q25.4167 22.9791 25.3723 23.0932Q25.3279 23.2072 25.2713 23.3158Q25.2148 23.4244 25.1467 23.5262Q25.0787 23.6279 25 23.7217Q24.9212 23.8155 24.8328 23.9001Q24.7443 23.9847 24.6472 24.0592Q24.5501 24.1337 24.4454 24.1972Q24.3407 24.2607 24.2298 24.3125Q24.1188 24.3642 24.0029 24.4035Q23.8869 24.4429 23.7674 24.4693Q23.6479 24.4958 23.5262 24.5092Q23.4045 24.5225 23.2821 24.5225L2.67173 24.5225Q2.54931 24.5225 2.42761 24.5092Q2.30591 24.4958 2.18639 24.4693Q2.06686 24.4429 1.95093 24.4035Q1.835 24.3642 1.72404 24.3125Q1.61308 24.2607 1.50841 24.1972Q1.40374 24.1337 1.3066 24.0592Q1.20946 23.9847 1.121 23.9001Q1.03255 23.8155 0.953828 23.7217Q0.87511 23.6279 0.807065 23.5262Q0.739019 23.4244 0.682453 23.3158Q0.625888 23.2072 0.581475 23.0932Q0.537062 22.9791 0.505329 22.8608Q0.473595 22.7426 0.454919 22.6216Q0.436243 22.5006 0.430846 22.3783Q0.425448 22.256 0.433394 22.1338Q0.44134 22.0117 0.462534 21.8911L3.13449 6.69016Q3.15145 6.59367 3.17676 6.49902Q3.20207 6.40438 3.23553 6.3123Q3.269 6.22022 3.31036 6.13141Q3.35173 6.0426 3.40068 5.95773Q3.44963 5.87287 3.5058 5.79259Q3.56196 5.71232 3.62491 5.63724Q3.68786 5.56217 3.75712 5.49288Q3.82638 5.42358 3.90141 5.36058Q3.97644 5.29759 4.05668 5.24137Q4.13693 5.18516 4.22176 5.13616Q4.3066 5.08715 4.39538 5.04574Q4.48417 5.00432 4.57623 4.9708Q4.66829 4.93727 4.76292 4.91191Q4.85755 4.88654 4.95403 4.86952Q5.05051 4.8525 5.14811 4.84396Q5.24571 4.83542 5.34368 4.83542L5.34368 4.83542Z" id="Rectangle" fill="url(#gradient_14)" fill-rule="evenodd" stroke="none" />
          <path d="M17.4756 6.92896L17.4756 4.66273C17.4756 2.08757 15.384 -1.64339e-14 12.8039 -1.64339e-14C10.2238 -1.64339e-14 8.13219 2.08757 8.13219 4.66273L8.13219 6.92896" id="Path" fill="none" fill-rule="evenodd" stroke="#FFA08A" stroke-width="1.7262046" stroke-linecap="round" />
        </g>
        <g id="Group-19-Copy">
          <g id="Group-3" transform="translate(10.895344 105.407074)">
            <path d="M0.247179 3.45387L0.247179 38.9547L11.1478 38.9547L5.45308 35.9778L9.43559 0.0395527L0.247179 3.45387Z" id="Path-10-Copy" fill="url(#gradient_15)" fill-rule="evenodd" stroke="none" />
            <path d="M0.173025 36.7344L0.0567062 39.0839L11.515 39.0839L7.35162 36.8984C7.35162 36.8984 7.06188 37.8282 5.8811 37.7981C4.70032 37.768 0.173025 36.7344 0.173025 36.7344Z" id="Path-10-Copy-3" fill="#9C4CA6" fill-rule="evenodd" stroke="none" />
          </g>
          <path d="M20.6175 111.322L25.6582 61.531L9.48071 61.8405L10.4992 111.292L20.6175 111.322Z" id="Path-7-Copy-2" fill="url(#gradient_16)" fill-rule="evenodd" stroke="none" />
          <path d="M21.161 110.902L21.5457 107.485Q21.5515 107.433 21.5464 107.382Q21.5413 107.33 21.5255 107.28Q21.5098 107.231 21.484 107.186Q21.4582 107.141 21.4236 107.102Q21.389 107.063 21.3471 107.032Q21.3051 107.002 21.2577 106.981Q21.2103 106.959 21.1595 106.948Q21.1087 106.938 21.0567 106.938L10.4105 106.935Q10.3613 106.935 10.313 106.944Q10.2648 106.954 10.2195 106.973Q10.1741 106.992 10.1334 107.02Q10.0928 107.048 10.0584 107.083Q10.024 107.118 9.99722 107.159Q9.97047 107.2 9.95243 107.246Q9.93438 107.292 9.92575 107.34Q9.91712 107.389 9.91825 107.438L9.99601 110.831Q9.9971 110.879 10.0073 110.926Q10.0176 110.972 10.0365 111.016Q10.0555 111.06 10.0825 111.099Q10.1095 111.138 10.1436 111.172Q10.1777 111.205 10.2175 111.231Q10.2573 111.257 10.3014 111.275Q10.3456 111.294 10.3923 111.303Q10.4391 111.312 10.4868 111.312L20.6706 111.339Q20.7157 111.339 20.76 111.331Q20.8044 111.323 20.8465 111.307Q20.8887 111.291 20.9272 111.268Q20.9658 111.244 20.9994 111.214Q21.0331 111.184 21.0607 111.149Q21.0883 111.113 21.1091 111.073Q21.1298 111.033 21.1429 110.99Q21.156 110.947 21.161 110.902Z" id="Path-7-Copy-3" fill="url(#gradient_17)" fill-rule="evenodd" stroke="none" />
          <path d="M22.2805 93.9519L25.6697 61.5314L14.479 61.5314L22.2805 93.9519Z" id="Path-7-Copy" fill="#EEADEA" fill-opacity="0.36283946" style="mix-blend-mode: multiply;" fill-rule="evenodd" stroke="none" />
          <path d="M12.3949 40.8614L11.9925 44.0042L29.7316 41.2662L31.5843 39.3707C31.5843 39.3707 33.3821 37.7423 33.6437 37.7572C33.9053 37.7722 32.8895 39.672 32.8895 39.672C32.8895 39.672 34.2008 39.8143 34.6565 39.6522C36.0071 39.1718 37.2054 38.798 37.3642 38.9909C37.6695 39.3618 34.8412 42.4193 32.2738 43.3798C29.7064 44.3403 11.304 52.1747 7.66471 51.3345C4.02539 50.4943 5.37779 38.9909 5.37779 38.9909L12.3949 40.8614Z" id="Path-9-Copy" fill="url(#gradient_18)" fill-rule="evenodd" stroke="none" />
          <g id="Group-10" transform="translate(16.138443 57.18997)">
            <g id="Group-4" transform="translate(18.31306 44.738564)">
              <path d="M1.31415e-14 7.15445L2.85335 42.6553L13.1499 42.6553L8.23515 39.895L9.44937 0L1.31415e-14 7.15445Z" id="Path-10" fill="url(#gradient_19)" fill-rule="evenodd" stroke="none" />
              <path d="M2.72249 40.5278L2.85335 42.6553L13.1499 42.6553L9.65391 40.6918C9.65391 40.6918 9.36417 41.6217 8.18339 41.5916C7.00261 41.5615 2.72249 40.5278 2.72249 40.5278Z" id="Path-10-Copy-2" fill="#9C4CA6" fill-rule="evenodd" stroke="none" />
            </g>
            <g id="Group-9">
              <path d="M28.5012 53.1286L28.5012 43.3886Q28.5012 42.129 28.3074 40.8844L22.1504 1.34757L3.81542 1.34757L16.8284 42.0082L17.5743 54.0002L28.5012 53.1286Z" id="Path-8-Copy" fill="url(#gradient_20)" fill-rule="evenodd" stroke="none" />
              <path d="M29.0237 53.1866L29.0237 49.8884Q29.0237 49.8136 29.0087 49.7403Q28.9937 49.667 28.9643 49.5982Q28.9349 49.5294 28.8923 49.4678Q28.8497 49.4063 28.7956 49.3546Q28.7415 49.3029 28.6782 49.263Q28.6149 49.2232 28.5448 49.1969Q28.4748 49.1705 28.4009 49.1588Q28.327 49.147 28.2522 49.1503L17.3397 49.6331Q17.2664 49.6363 17.1952 49.6539Q17.1241 49.6714 17.0577 49.7026Q16.9914 49.7339 16.9325 49.7775Q16.8736 49.8211 16.8244 49.8755Q16.7752 49.9299 16.7377 49.9928Q16.7002 50.0558 16.6757 50.1249Q16.6513 50.194 16.6409 50.2666Q16.6306 50.3392 16.6347 50.4124L16.8228 53.7791Q16.8268 53.8515 16.8449 53.9218Q16.863 53.9921 16.8943 54.0575Q16.9257 54.1229 16.9693 54.181Q17.0128 54.239 17.0667 54.2875Q17.1207 54.336 17.1831 54.3731Q17.2455 54.4101 17.3139 54.4343Q17.3823 54.4585 17.4541 54.469Q17.5259 54.4794 17.5984 54.4757L28.3228 53.9245Q28.3931 53.9208 28.4614 53.904Q28.5297 53.8872 28.5937 53.8578Q28.6576 53.8284 28.7148 53.7874Q28.7721 53.7465 28.8205 53.6955Q28.869 53.6444 28.907 53.5852Q28.9449 53.5259 28.971 53.4606Q28.9971 53.3952 29.0104 53.3261Q29.0237 53.257 29.0237 53.1866Z" id="Path-8-Copy-2" fill="url(#gradient_21)" fill-rule="evenodd" stroke="none" />
            </g>
          </g>
          <path d="M41.5254 36.2896L44.4247 39.9515C44.4247 39.9515 66.6482 23.1003 67.0412 23.1737C67.4341 23.2471 65.9079 24.9545 65.9079 25.1296C65.9079 25.2198 66.4984 26.1759 66.073 26.9282C65.6898 27.6058 63.3329 28.9959 63.3329 28.9959C63.3329 28.9959 45.5384 50.0406 42.7029 50.0406C39.8674 50.0406 34.3305 39.9515 34.3305 39.9515L41.5254 36.2896Z" id="Path-9" fill="url(#gradient_22)" fill-rule="evenodd" stroke="none" />
          <g id="Group-7" transform="matrix(0.9945219 0.104528464 -0.104528464 0.9945219 4.8803425 16.942709)">
            <path d="M16.5663 0.939861C10.5644 2.31384 3.13639 5.00097 1.61663 8.5521C0.0968597 12.1032 0.150001 25.0832 0.150001 25.0832C0.150001 25.0832 4.74574 25.3885 8.64584 24.3465C12.5459 23.3046 6.14327 37.6936 8.60246 45.9069C8.60246 45.9069 10.8352 45.5136 12.5844 45.4883C17.4196 45.4184 22.7728 47.0244 27.3092 43.9407C36.2833 37.8404 38.6233 40.465 38.6233 40.465C38.6233 40.465 34.6429 27.9192 33.9307 24.8563C31.8838 16.053 30.9196 13.3155 29.6093 9.25618C28.2989 5.19689 27.4932 0.200516 27.4932 0.200516C27.4932 0.200516 22.5681 -0.434117 16.5663 0.939861Z" id="Path-4" fill="url(#gradient_23)" fill-rule="evenodd" stroke="none" />
            <path d="M27.3118 0.173377C30.0134 0.0536743 32.0772 0.931359 33.8593 4.73448C35.6414 8.53759 40.7106 16.2559 40.7106 16.2559C40.7106 16.2559 37.7006 19.7024 32.6968 20.8262C32.6968 20.8262 26.0016 7.29458 25.4315 5.10789C24.8613 2.9212 24.6102 0.293079 27.3118 0.173377Z" id="Path-5" fill="url(#gradient_24)" fill-rule="evenodd" stroke="none" />
          </g>
          <g id="Group-15" transform="translate(0.062665105 0)">
            <path d="M11.1125 48.327C11.1125 48.327 19.567 46.4404 22.9135 44.6089C31.9307 39.6739 29.6789 23.197 27.4688 13.0957C27.1563 11.6677 16.9529 8.74584 13.3568 17.9743C11.8817 21.7597 15.0754 28.7203 14.3646 34.7986C14.1181 36.9063 11.9454 39.108 12.1165 41.2702C12.2877 43.4325 11.1125 48.327 11.1125 48.327Z" id="Path-3-Copy" fill="url(#gradient_25)" fill-opacity="0.6405785" style="mix-blend-mode: multiply;" fill-rule="evenodd" stroke="none" />
            <g id="Group-8" transform="matrix(0.99939084 0.034899496 -0.034899496 0.99939084 22.150753 1.6772316)">
              <path d="M5.31531 0.51152C1.48784 1.73679 0.205325 4.89655 0.205325 6.13337C0.205325 7.3702 1.92045 7.83378 1.92045 7.83378C1.92045 7.83378 4.12786 10.9057 7.42547 11.1444C9.7584 11.3133 11.7525 8.81 10.6214 2.703C10.4078 1.54974 9.14278 -0.713753 5.31531 0.51152Z" id="Path" fill="url(#gradient_26)" fill-rule="evenodd" stroke="none" />
            </g>
            <path d="M26.0973 32.6804C27.2283 28.8479 30.5173 6.80309 30.5173 6.80309C30.5173 6.80309 33.4446 5.58478 33.7163 4.53733C34.1716 2.78239 30.8847 0.607786 25.202 0.246705C22.4454 0.0715536 15.6771 10.8944 13.6101 12.8113C8.16913 17.8572 0.711787 20.8425 0.16004 25.553C-1.84835 42.6993 23.0643 42.9581 26.0973 32.6804Z" id="Path-3" fill="url(#gradient_27)" fill-rule="evenodd" stroke="none" />
          </g>
        </g>
      </g>
      <path d="M27.2374 6.16763C27.2374 6.16763 31.5018 3.58729 30.5796 1.16188C30.4888 0.923086 30.07 0.340186 29.5769 0.144662C29.0837 -0.0508627 28.4759 -0.0871071 27.9594 0.283342C27.6214 0.525792 27.2374 0.946579 27.2374 0.946579C27.2374 0.946579 26.4574 0.0631439 25.7322 0.0631439C25.007 0.0631439 24.4877 0.266756 24.0585 0.946579C22.6544 3.17054 27.2374 6.16763 27.2374 6.16763Z" id="Path-45-Copy" fill="url(#gradient_28)" fill-rule="evenodd" stroke="none" />
    </g>
    <g id="Group-27" transform="translate(63.268982 172.6936)">
      <g id="Group-25" transform="translate(9.269214 0)">
        <path d="M3.69801 0L63.9673 0Q64.1489 0 64.3297 0.0178069Q64.5105 0.0356139 64.6887 0.0710562Q64.8669 0.106499 65.0407 0.159235Q65.2146 0.211972 65.3824 0.281494Q65.5503 0.351017 65.7105 0.436656Q65.8707 0.522296 66.0217 0.623227Q66.1728 0.724158 66.3132 0.83941Q66.4537 0.954661 66.5821 1.08312Q66.7106 1.21158 66.8259 1.35202Q66.9411 1.49245 67.042 1.64351Q67.143 1.79456 67.2286 1.95478Q67.3142 2.115 67.3838 2.28284Q67.4533 2.45069 67.506 2.62453Q67.5588 2.79838 67.5942 2.97656Q67.6296 3.15475 67.6475 3.33554Q67.6653 3.51634 67.6653 3.69801L67.6653 19.1222Q67.6653 19.3039 67.6475 19.4847Q67.6296 19.6655 67.5942 19.8437Q67.5588 20.0218 67.506 20.1957Q67.4533 20.3695 67.3838 20.5374Q67.3142 20.7052 67.2286 20.8654Q67.143 21.0257 67.042 21.1767Q66.9411 21.3278 66.8258 21.4682Q66.7106 21.6086 66.5821 21.7371Q66.4537 21.8656 66.3132 21.9808Q66.1728 22.0961 66.0217 22.197Q65.8707 22.2979 65.7105 22.3836Q65.5503 22.4692 65.3824 22.5387Q65.2146 22.6083 65.0407 22.661Q64.8669 22.7137 64.6887 22.7492Q64.5105 22.7846 64.3297 22.8024Q64.1489 22.8202 63.9673 22.8202L3.69801 22.8202Q3.51634 22.8202 3.33554 22.8024Q3.15475 22.7846 2.97656 22.7492Q2.79838 22.7137 2.62453 22.661Q2.45069 22.6083 2.28284 22.5387Q2.115 22.4692 1.95478 22.3836Q1.79456 22.2979 1.64351 22.197Q1.49245 22.0961 1.35202 21.9808Q1.21158 21.8656 1.08312 21.7371Q0.954661 21.6086 0.83941 21.4682Q0.724158 21.3278 0.623227 21.1767Q0.522296 21.0257 0.436656 20.8654Q0.351017 20.7052 0.281494 20.5374Q0.211972 20.3695 0.159235 20.1957Q0.106499 20.0218 0.0710562 19.8437Q0.0356139 19.6655 0.0178069 19.4847Q0 19.3039 0 19.1222L0 3.69801Q0 3.51634 0.0178069 3.33554Q0.0356139 3.15475 0.0710562 2.97656Q0.106499 2.79838 0.159235 2.62453Q0.211972 2.45069 0.281494 2.28284Q0.351017 2.115 0.436656 1.95478Q0.522296 1.79456 0.623227 1.64351Q0.724158 1.49245 0.83941 1.35202Q0.954661 1.21158 1.08312 1.08312Q1.21158 0.954661 1.35202 0.83941Q1.49245 0.724158 1.64351 0.623227Q1.79456 0.522296 1.95478 0.436656Q2.115 0.351017 2.28284 0.281494Q2.45069 0.211972 2.62453 0.159235Q2.79838 0.106499 2.97656 0.0710562Q3.15475 0.0356139 3.33554 0.0178069Q3.51634 0 3.69801 0Z" id="Rectangle" fill="url(#gradient_29)" stroke="none" />
        <g id="Group-24-Copy" transform="translate(51.59862 6.1676283)">
          <path d="M1.232 0L9.27311 0Q9.33363 0 9.39386 0.00593243Q9.4541 0.0118649 9.51346 0.0236726Q9.57282 0.0354803 9.63074 0.0530496Q9.68866 0.0706189 9.74457 0.0937806Q9.80049 0.116942 9.85387 0.145473Q9.90725 0.174004 9.95757 0.20763Q10.0079 0.241256 10.0547 0.279652Q10.1015 0.318048 10.1443 0.360845Q10.1871 0.403643 10.2255 0.450429Q10.2639 0.497215 10.2975 0.547539Q10.3311 0.597863 10.3596 0.651241Q10.3882 0.704619 10.4113 0.760536Q10.4345 0.816453 10.4521 0.874372Q10.4696 0.93229 10.4814 0.991651Q10.4932 1.05101 10.4992 1.11125Q10.5051 1.17148 10.5051 1.232L10.5051 9.25296Q10.5051 9.31349 10.4992 9.37372Q10.4932 9.43395 10.4814 9.49332Q10.4696 9.55268 10.4521 9.6106Q10.4345 9.66851 10.4113 9.72443Q10.3882 9.78035 10.3596 9.83373Q10.3311 9.8871 10.2975 9.93743Q10.2639 9.98775 10.2255 10.0345Q10.1871 10.0813 10.1443 10.1241Q10.1015 10.1669 10.0547 10.2053Q10.0079 10.2437 9.95757 10.2773Q9.90725 10.311 9.85387 10.3395Q9.80049 10.368 9.74457 10.3912Q9.68866 10.4143 9.63074 10.4319Q9.57282 10.4495 9.51346 10.4613Q9.4541 10.4731 9.39386 10.479Q9.33363 10.485 9.27311 10.485L1.232 10.485Q1.17148 10.485 1.11125 10.479Q1.05101 10.4731 0.991651 10.4613Q0.93229 10.4495 0.874372 10.4319Q0.816453 10.4143 0.760536 10.3912Q0.704619 10.368 0.651241 10.3395Q0.597863 10.311 0.547539 10.2773Q0.497215 10.2437 0.450429 10.2053Q0.403643 10.1669 0.360845 10.1241Q0.318048 10.0813 0.279652 10.0345Q0.241256 9.98775 0.20763 9.93743Q0.174004 9.8871 0.145473 9.83373Q0.116942 9.78035 0.0937806 9.72443Q0.0706189 9.66851 0.0530496 9.6106Q0.0354803 9.55268 0.0236726 9.49332Q0.0118649 9.43395 0.00593243 9.37372Q0 9.31349 0 9.25296L0 1.232Q0 1.17148 0.00593243 1.11125Q0.0118649 1.05101 0.0236726 0.991651Q0.0354803 0.93229 0.0530496 0.874372Q0.0706189 0.816453 0.0937806 0.760536Q0.116942 0.704619 0.145473 0.651241Q0.174004 0.597863 0.20763 0.547539Q0.241256 0.497215 0.279652 0.450429Q0.318048 0.403643 0.360845 0.360845Q0.403643 0.318048 0.450429 0.279652Q0.497215 0.241256 0.547539 0.20763Q0.597863 0.174004 0.651241 0.145473Q0.704619 0.116942 0.760536 0.0937806Q0.816453 0.0706189 0.874372 0.0530496Q0.93229 0.0354803 0.991651 0.0236726Q1.05101 0.0118649 1.11125 0.00593243Q1.17148 0 1.232 0L1.232 0Z" id="Rectangle-Copy-9" fill="#FFFFFF" fill-rule="evenodd" stroke="none" />
          <g clip-path="url(#mask_2)">
            <path d="M5.25255 5.55087C6.10576 5.55087 6.79742 4.86053 6.79742 4.00896C6.79742 3.15739 6.10576 2.46705 5.25255 2.46705C4.39935 2.46705 3.70769 3.15739 3.70769 4.00896C3.70769 4.86053 4.39935 5.55087 5.25255 5.55087Z" id="Oval" fill="none" fill-rule="evenodd" stroke="#9079DC" stroke-width="1.6275645" stroke-linecap="round" stroke-linejoin="round" />
            <path d="M5.25255 13.5688C6.78833 13.5688 8.03332 12.3262 8.03332 10.7933C8.03332 9.26052 6.78833 8.01792 5.25255 8.01792C3.71678 8.01792 2.47179 9.26052 2.47179 10.7933C2.47179 12.3262 3.71678 13.5688 5.25255 13.5688Z" id="Oval-Copy-5" fill="none" fill-rule="evenodd" stroke="#9079DC" stroke-width="1.6275645" stroke-linecap="round" stroke-linejoin="round" />
          </g>
        </g>
        <path d="M44.5998 8.51184L14.3673 8.51184" id="Path-41" fill="none" fill-rule="evenodd" stroke="#FFFFFF" stroke-width="1.3563038" stroke-linecap="round" stroke-linejoin="round" />
        <path d="M44.5998 14.6795L26.7262 14.6795" id="Path-41-Copy" fill="none" fill-rule="evenodd" stroke="#FFFFFF" stroke-width="1.3563038" stroke-linecap="round" stroke-linejoin="round" />
      </g>
      <g id="Group-25-Copy" transform="translate(0 34.847095)">
        <path d="M3.69801 0L73.2365 0Q73.4181 0 73.5989 0.0178069Q73.7797 0.0356139 73.9579 0.0710562Q74.1361 0.106499 74.3099 0.159235Q74.4838 0.211972 74.6516 0.281494Q74.8195 0.351017 74.9797 0.436656Q75.1399 0.522296 75.291 0.623227Q75.442 0.724158 75.5825 0.83941Q75.7229 0.954661 75.8513 1.08312Q75.9798 1.21158 76.0951 1.35202Q76.2103 1.49245 76.3112 1.64351Q76.4122 1.79456 76.4978 1.95478Q76.5835 2.115 76.653 2.28284Q76.7225 2.45069 76.7752 2.62453Q76.828 2.79838 76.8634 2.97656Q76.8989 3.15475 76.9167 3.33554Q76.9345 3.51634 76.9345 3.69801L76.9345 19.1222Q76.9345 19.3039 76.9167 19.4847Q76.8989 19.6655 76.8634 19.8437Q76.828 20.0218 76.7752 20.1957Q76.7225 20.3695 76.653 20.5374Q76.5835 20.7052 76.4978 20.8654Q76.4122 21.0257 76.3112 21.1767Q76.2103 21.3278 76.0951 21.4682Q75.9798 21.6086 75.8513 21.7371Q75.7229 21.8656 75.5825 21.9808Q75.442 22.0961 75.291 22.197Q75.1399 22.2979 74.9797 22.3836Q74.8195 22.4692 74.6516 22.5387Q74.4838 22.6082 74.3099 22.661Q74.1361 22.7137 73.9579 22.7492Q73.7797 22.7846 73.5989 22.8024Q73.4181 22.8202 73.2365 22.8202L3.69801 22.8202Q3.51634 22.8202 3.33554 22.8024Q3.15475 22.7846 2.97656 22.7492Q2.79838 22.7137 2.62453 22.661Q2.45069 22.6082 2.28284 22.5387Q2.115 22.4692 1.95478 22.3836Q1.79456 22.2979 1.64351 22.197Q1.49245 22.0961 1.35202 21.9808Q1.21158 21.8656 1.08312 21.7371Q0.954661 21.6086 0.83941 21.4682Q0.724158 21.3278 0.623227 21.1767Q0.522296 21.0257 0.436656 20.8654Q0.351017 20.7052 0.281494 20.5374Q0.211972 20.3695 0.159235 20.1957Q0.106499 20.0218 0.0710562 19.8437Q0.0356139 19.6655 0.0178069 19.4847Q-1.49475e-14 19.3039 -1.49475e-14 19.1222L-1.49475e-14 3.69801Q-1.49475e-14 3.51634 0.0178069 3.33554Q0.0356139 3.15475 0.0710562 2.97656Q0.106499 2.79838 0.159235 2.62453Q0.211972 2.45069 0.281494 2.28284Q0.351017 2.115 0.436656 1.95478Q0.522296 1.79456 0.623227 1.64351Q0.724158 1.49245 0.83941 1.35202Q0.954661 1.21158 1.08312 1.08312Q1.21158 0.954661 1.35202 0.83941Q1.49245 0.724158 1.64351 0.623227Q1.79456 0.522296 1.95478 0.436656Q2.115 0.351017 2.28284 0.281494Q2.45069 0.211972 2.62453 0.159235Q2.79838 0.106499 2.97656 0.0710562Q3.15475 0.0356139 3.33554 0.0178069Q3.51634 0 3.69801 0Z" id="Rectangle" fill="url(#gradient_30)" fill-rule="evenodd" stroke="none" />
        <g id="Group-24-Copy" transform="translate(60.86784 6.167628)">
          <path d="M1.232 0L9.27311 0Q9.33363 0 9.39386 0.00593243Q9.4541 0.0118649 9.51346 0.0236726Q9.57282 0.0354803 9.63074 0.0530496Q9.68866 0.0706189 9.74457 0.0937806Q9.80049 0.116942 9.85387 0.145473Q9.90725 0.174004 9.95757 0.20763Q10.0079 0.241256 10.0547 0.279652Q10.1015 0.318048 10.1443 0.360845Q10.1871 0.403643 10.2255 0.450429Q10.2639 0.497215 10.2975 0.547539Q10.3311 0.597863 10.3596 0.651241Q10.3882 0.704619 10.4113 0.760536Q10.4345 0.816453 10.4521 0.874372Q10.4696 0.93229 10.4814 0.991651Q10.4932 1.05101 10.4992 1.11125Q10.5051 1.17148 10.5051 1.232L10.5051 9.25296Q10.5051 9.31349 10.4992 9.37372Q10.4932 9.43395 10.4814 9.49331Q10.4696 9.55268 10.4521 9.61059Q10.4345 9.66851 10.4113 9.72443Q10.3882 9.78035 10.3596 9.83372Q10.3311 9.8871 10.2975 9.93743Q10.2639 9.98775 10.2255 10.0345Q10.1871 10.0813 10.1443 10.1241Q10.1015 10.1669 10.0547 10.2053Q10.0079 10.2437 9.95757 10.2773Q9.90725 10.311 9.85387 10.3395Q9.80049 10.368 9.74457 10.3912Q9.68866 10.4143 9.63074 10.4319Q9.57282 10.4495 9.51346 10.4613Q9.4541 10.4731 9.39386 10.479Q9.33363 10.485 9.27311 10.485L1.232 10.485Q1.17148 10.485 1.11125 10.479Q1.05101 10.4731 0.991651 10.4613Q0.93229 10.4495 0.874372 10.4319Q0.816453 10.4143 0.760536 10.3912Q0.704619 10.368 0.651241 10.3395Q0.597863 10.311 0.547539 10.2773Q0.497215 10.2437 0.450429 10.2053Q0.403643 10.1669 0.360845 10.1241Q0.318048 10.0813 0.279652 10.0345Q0.241256 9.98775 0.20763 9.93743Q0.174004 9.8871 0.145473 9.83372Q0.116942 9.78035 0.0937806 9.72443Q0.0706189 9.66851 0.0530496 9.61059Q0.0354803 9.55268 0.0236726 9.49331Q0.0118649 9.43395 0.00593243 9.37372Q0 9.31349 0 9.25296L0 1.232Q0 1.17148 0.00593243 1.11125Q0.0118649 1.05101 0.0236726 0.991651Q0.0354803 0.93229 0.0530496 0.874372Q0.0706189 0.816453 0.0937806 0.760536Q0.116942 0.704619 0.145473 0.651241Q0.174004 0.597863 0.20763 0.547539Q0.241256 0.497215 0.279652 0.450429Q0.318048 0.403643 0.360845 0.360845Q0.403643 0.318048 0.450429 0.279652Q0.497215 0.241256 0.547539 0.20763Q0.597863 0.174004 0.651241 0.145473Q0.704619 0.116942 0.760536 0.0937806Q0.816453 0.0706189 0.874372 0.0530496Q0.93229 0.0354803 0.991651 0.0236726Q1.05101 0.0118649 1.11125 0.00593243Q1.17148 0 1.232 0L1.232 0Z" id="Rectangle-Copy-9" fill="#FFFFFF" fill-rule="evenodd" stroke="none" />
          <g clip-path="url(#mask_3)">
            <path d="M5.25255 5.55087C6.10576 5.55087 6.79742 4.86053 6.79742 4.00896C6.79742 3.15739 6.10576 2.46705 5.25255 2.46705C4.39935 2.46705 3.70769 3.15739 3.70769 4.00896C3.70769 4.86053 4.39935 5.55087 5.25255 5.55087Z" id="Oval" fill="none" fill-rule="evenodd" stroke="#FE9279" stroke-width="1.6275645" stroke-linecap="round" stroke-linejoin="round" />
            <path d="M5.25255 13.5688C6.78833 13.5688 8.03332 12.3262 8.03332 10.7933C8.03332 9.26052 6.78833 8.01791 5.25255 8.01791C3.71678 8.01791 2.47179 9.26052 2.47179 10.7933C2.47179 12.3262 3.71678 13.5688 5.25255 13.5688Z" id="Oval-Copy-5" fill="none" fill-rule="evenodd" stroke="#FE9279" stroke-width="1.6275645" stroke-linecap="round" stroke-linejoin="round" />
          </g>
        </g>
        <path d="M53.869 8.51183L8.18781 8.51183" id="Path-41" fill="none" fill-rule="evenodd" stroke="#FFFFFF" stroke-width="1.3563038" stroke-linecap="round" stroke-linejoin="round" />
        <path d="M53.869 14.6795L36.4999 14.6795M32.074 14.6795L20.5468 14.6795" id="Shape" fill="none" fill-rule="evenodd" stroke="#FFFFFF" stroke-width="1.3563038" stroke-linecap="round" stroke-linejoin="round" />
      </g>
    </g>
    <g id="Group-32" transform="translate(167.70212 79.56241)">
      <g id="Group-26">
        <path d="M10.0416 22.5118C14.9049 22.5118 18.8474 18.5769 18.8474 13.723C18.8474 8.86901 14.9049 4.9341 10.0416 4.9341C5.17836 4.9341 1.23589 8.86901 1.23589 13.723C1.23589 18.5769 5.17836 22.5118 10.0416 22.5118Z" id="Oval-Copy-6" fill="#7C8EF8" fill-opacity="0.11716425" style="mix-blend-mode: multiply;" fill-rule="evenodd" stroke="none" />
        <path d="M8.80575 17.5777C13.669 17.5777 17.6115 13.6428 17.6115 8.78887C17.6115 3.93491 13.669 0 8.80575 0C3.94247 0 0 3.93491 0 8.78887C0 13.6428 3.94247 17.5777 8.80575 17.5777Z" id="Oval" fill="url(#gradient_31)" fill-rule="evenodd" stroke="none" />
      </g>
      <g id="Group-26-Copy" transform="translate(1.2358949 4.9341025)" />
      <path d="M6.5728 8.72992L8.56692 10.7202L11.6567 7.6364" id="Path-44" fill="none" fill-rule="evenodd" stroke="#FF7643" stroke-width="1.3563038" stroke-linecap="round" stroke-linejoin="round" />
    </g>
  </g>
</svg>
