<?xml version="1.0" encoding="utf-8"?>
<svg width="243px" height="232.25px" viewBox="0 0 243 232.25" version="1.1" xmlns:xlink="http://www.w3.org/1999/xlink" xmlns="http://www.w3.org/2000/svg">
  <defs>
    <linearGradient gradientUnits="userSpaceOnUse" x1="-2.094004" y1="31.008501" x2="11.3432865" y2="1.4024345" id="gradient_1">
      <stop offset="0%" stop-color="#DCE2FF" />
      <stop offset="100%" stop-color="#7C8EF9" />
    </linearGradient>
    <linearGradient gradientUnits="userSpaceOnUse" x1="-1.4820098" y1="9.401921" x2="8.028094" y2="0.42522466" id="gradient_2">
      <stop offset="0%" stop-color="#DCE2FF" />
      <stop offset="100%" stop-color="#7C8EF9" />
    </linearGradient>
    <linearGradient gradientUnits="userSpaceOnUse" x1="-1.468338" y1="9.118815" x2="7.9540343" y2="0.4124205" id="gradient_3">
      <stop offset="0%" stop-color="#DCE2FF" />
      <stop offset="100%" stop-color="#7C8EF9" />
    </linearGradient>
    <linearGradient gradientUnits="userSpaceOnUse" x1="18.506681" y1="-3.2014472" x2="4.248804" y2="26.404617" id="gradient_4">
      <stop offset="0%" stop-color="#DCE2FF" />
      <stop offset="100%" stop-color="#7C8EF9" />
    </linearGradient>
    <linearGradient gradientUnits="userSpaceOnUse" x1="12.806075" y1="-0.98201656" x2="2.9400465" y2="8.09939" id="gradient_5">
      <stop offset="0%" stop-color="#DCE2FF" />
      <stop offset="100%" stop-color="#7C8EF9" />
    </linearGradient>
    <linearGradient gradientUnits="userSpaceOnUse" x1="33.171947" y1="-39.200512" x2="-18.509687" y2="65.13222" id="gradient_6">
      <stop offset="0%" stop-color="#F2F4FF" />
      <stop offset="100%" stop-color="#99A8FF" />
      <stop offset="100%" stop-color="#99A8FF" />
    </linearGradient>
    <linearGradient gradientUnits="userSpaceOnUse" x1="19.615028" y1="-34.38731" x2="-8.233934" y2="40.496277" id="gradient_7">
      <stop offset="0%" stop-color="#F2F4FF" />
      <stop offset="100%" stop-color="#99A8FF" />
      <stop offset="100%" stop-color="#99A8FF" />
    </linearGradient>
    <linearGradient gradientUnits="userSpaceOnUse" x1="34.911373" y1="-11.614352" x2="-26.489016" y2="37.62078" id="gradient_8">
      <stop offset="0%" stop-color="#F2F4FF" />
      <stop offset="100%" stop-color="#99A8FF" />
      <stop offset="100%" stop-color="#99A8FF" />
    </linearGradient>
    <linearGradient gradientUnits="userSpaceOnUse" x1="0" y1="7.2158976" x2="15.172235" y2="7.2158976" id="gradient_9">
      <stop offset="0%" stop-color="#DCE2FF" />
      <stop offset="30.041452%" stop-color="#C7D0FE" />
      <stop offset="100%" stop-color="#7C8EF9" />
    </linearGradient>
    <linearGradient gradientUnits="userSpaceOnUse" x1="0" y1="7.2158976" x2="5.4788623" y2="7.2158976" id="gradient_10">
      <stop offset="0%" stop-color="#DCE2FF" />
      <stop offset="30.041452%" stop-color="#C7D0FE" />
      <stop offset="100%" stop-color="#7C8EF9" />
    </linearGradient>
    <linearGradient gradientUnits="userSpaceOnUse" x1="0" y1="4.3523083" x2="11.91332" y2="4.3523083" id="gradient_11">
      <stop offset="0%" stop-color="#92D554" />
      <stop offset="100%" stop-color="#32D2BB" />
    </linearGradient>
    <linearGradient gradientUnits="userSpaceOnUse" x1="0" y1="4.4237847" x2="2.836657" y2="10.759636" id="gradient_12">
      <stop offset="0%" stop-color="#92D554" />
      <stop offset="100%" stop-color="#32D2BB" />
    </linearGradient>
    <linearGradient gradientUnits="userSpaceOnUse" x1="6.4600434" y1="-6.3385787" x2="93.87644" y2="103.06782" id="gradient_13">
      <stop offset="0%" stop-color="#F2F4FF" />
      <stop offset="100%" stop-color="#99A8FF" />
      <stop offset="100%" stop-color="#99A8FF" />
    </linearGradient>
    <linearGradient gradientUnits="userSpaceOnUse" x1="10.683904" y1="-1.7143375" x2="24.089172" y2="28.926487" id="gradient_14">
      <stop offset="0%" stop-color="#F2F4FF" />
      <stop offset="100%" stop-color="#99A8FF" />
      <stop offset="100%" stop-color="#99A8FF" />
    </linearGradient>
    <linearGradient gradientUnits="userSpaceOnUse" x1="7.5544233" y1="-1.1978471" x2="17.033083" y2="20.211605" id="gradient_15">
      <stop offset="0%" stop-color="#F2F4FF" />
      <stop offset="100%" stop-color="#99A8FF" />
      <stop offset="100%" stop-color="#99A8FF" />
    </linearGradient>
    <linearGradient gradientUnits="userSpaceOnUse" x1="1.9076827" y1="-0.46953666" x2="4.3012834" y2="7.9226213" id="gradient_16">
      <stop offset="0%" stop-color="#F2F4FF" />
      <stop offset="100%" stop-color="#99A8FF" />
      <stop offset="100%" stop-color="#99A8FF" />
    </linearGradient>
    <linearGradient gradientUnits="userSpaceOnUse" x1="4.196902" y1="-1.0329807" x2="9.462823" y2="17.429768" id="gradient_17">
      <stop offset="0%" stop-color="#F2F4FF" />
      <stop offset="100%" stop-color="#99A8FF" />
      <stop offset="100%" stop-color="#99A8FF" />
    </linearGradient>
    <linearGradient gradientUnits="userSpaceOnUse" x1="10.978502" y1="-2.5451956" x2="1.958543" y2="9.233184" id="gradient_18">
      <stop offset="0%" stop-color="#FF7C50" />
      <stop offset="100%" stop-color="#EAA05B" />
    </linearGradient>
    <linearGradient gradientUnits="userSpaceOnUse" x1="21.957005" y1="-5.090391" x2="3.917086" y2="18.466368" id="gradient_19">
      <stop offset="0%" stop-color="#FF7C50" />
      <stop offset="100%" stop-color="#EAA05B" />
    </linearGradient>
    <linearGradient gradientUnits="userSpaceOnUse" x1="7.6505704" y1="16.638044" x2="-2.205216" y2="-4.346283" id="gradient_20">
      <stop offset="0%" stop-color="#FFE1D7" />
      <stop offset="100%" stop-color="#FFA88D" />
    </linearGradient>
    <linearGradient gradientUnits="userSpaceOnUse" x1="6.0921607" y1="20.071873" x2="-1.7560169" y2="-5.2432866" id="gradient_21">
      <stop offset="0%" stop-color="#FFE1D7" />
      <stop offset="100%" stop-color="#FFA88D" />
    </linearGradient>
    <linearGradient gradientUnits="userSpaceOnUse" x1="91.044754" y1="154.74275" x2="0" y2="-36.34189" id="gradient_22">
      <stop offset="0%" stop-color="#B1A6FF" />
      <stop offset="100%" stop-color="#FEFDFF" />
    </linearGradient>
    <linearGradient gradientUnits="userSpaceOnUse" x1="60.57038" y1="35.794174" x2="-6.4143505" y2="5.019742" id="gradient_23">
      <stop offset="0%" stop-color="#FFE1D7" />
      <stop offset="100%" stop-color="#FC9C7D" />
    </linearGradient>
    <linearGradient gradientUnits="userSpaceOnUse" x1="5.303223" y1="8.176612" x2="-0.5616067" y2="1.1466805" id="gradient_24">
      <stop offset="0%" stop-color="#FFE1D7" />
      <stop offset="100%" stop-color="#FC9C7D" />
    </linearGradient>
    <linearGradient gradientUnits="userSpaceOnUse" x1="16.477718" y1="14.143072" x2="-9.415621" y2="-1.4083211" id="gradient_25">
      <stop offset="0%" stop-color="#6875F2" />
      <stop offset="100%" stop-color="#B58EFF" />
    </linearGradient>
    <linearGradient gradientUnits="userSpaceOnUse" x1="41.284084" y1="48.694252" x2="9.69723" y2="4.084612" id="gradient_26">
      <stop offset="0%" stop-color="#6875F2" />
      <stop offset="100%" stop-color="#B58EFF" />
    </linearGradient>
    <linearGradient gradientUnits="userSpaceOnUse" x1="65.15037" y1="31.504478" x2="-6.899367" y2="4.418159" id="gradient_27">
      <stop offset="0%" stop-color="#FFE1D7" />
      <stop offset="100%" stop-color="#FC9C7D" />
    </linearGradient>
    <linearGradient gradientUnits="userSpaceOnUse" x1="0" y1="0" x2="7.7972784" y2="6.92084" id="gradient_28">
      <stop offset="0%" stop-color="#FFA53E" />
      <stop offset="100%" stop-color="#FF7643" />
    </linearGradient>
    <linearGradient gradientUnits="userSpaceOnUse" x1="76.725296" y1="0" x2="10.866191" y2="60.500473" id="gradient_29">
      <stop offset="0%" stop-color="#EEF1FF" />
      <stop offset="100%" stop-color="#9079DC" />
    </linearGradient>
    <linearGradient gradientUnits="userSpaceOnUse" x1="-0.9682494" y1="27.825287" x2="5.245038" y2="1.258466" id="gradient_30">
      <stop offset="0%" stop-color="#DCE2FF" />
      <stop offset="100%" stop-color="#7C8EF9" />
    </linearGradient>
    <linearGradient gradientUnits="userSpaceOnUse" x1="-0.93701553" y1="27.825287" x2="5.0758433" y2="1.258466" id="gradient_31">
      <stop offset="0%" stop-color="#DCE2FF" />
      <stop offset="100%" stop-color="#7C8EF9" />
    </linearGradient>
    <linearGradient gradientUnits="userSpaceOnUse" x1="-101.31977" y1="23.625687" x2="121.519035" y2="-25.826603" id="gradient_32">
      <stop offset="0%" stop-color="#F2F4FF" />
      <stop offset="100%" stop-color="#99A8FF" />
      <stop offset="100%" stop-color="#99A8FF" />
    </linearGradient>
    <linearGradient gradientUnits="userSpaceOnUse" x1="-45.649563" y1="23.625687" x2="54.75033" y2="-25.826603" id="gradient_33">
      <stop offset="0%" stop-color="#F2F4FF" />
      <stop offset="100%" stop-color="#99A8FF" />
      <stop offset="100%" stop-color="#99A8FF" />
    </linearGradient>
    <linearGradient gradientUnits="userSpaceOnUse" x1="-9.026583" y1="47.48168" x2="48.89729" y2="2.147474" id="gradient_34">
      <stop offset="0%" stop-color="#DCE2FF" />
      <stop offset="100%" stop-color="#7C8EF9" />
    </linearGradient>
    <linearGradient gradientUnits="userSpaceOnUse" x1="27.923037" y1="6.7672753" x2="-24.97718" y2="80.33285" id="gradient_35">
      <stop offset="0%" stop-color="#F2F4FF" />
      <stop offset="100%" stop-color="#99A8FF" />
      <stop offset="100%" stop-color="#99A8FF" />
    </linearGradient>
    <linearGradient gradientUnits="userSpaceOnUse" x1="32.918842" y1="-24.800493" x2="-24.97718" y2="80.33285" id="gradient_36">
      <stop offset="0%" stop-color="#F2F4FF" />
      <stop offset="100%" stop-color="#99A8FF" />
      <stop offset="100%" stop-color="#99A8FF" />
    </linearGradient>
    <linearGradient gradientUnits="userSpaceOnUse" x1="12.980327" y1="-50.869503" x2="-7.242921" y2="84.52041" id="gradient_37">
      <stop offset="0%" stop-color="#F2F4FF" />
      <stop offset="100%" stop-color="#99A8FF" />
      <stop offset="100%" stop-color="#99A8FF" />
    </linearGradient>
    <path d="M25.6451 3.18136C18.8359 4.00468 10.2937 6.11675 8.19648 9.87397C6.09928 13.6312 3.73554 23.4049 2.82931 28.6902C2.82931 28.6902 9.90792 28.1906 14.1448 28.1906C18.3817 28.1906 11.5891 44.5459 11.5891 55.2513C11.5891 55.2513 18.9607 53.2632 30.2016 54.5687C41.4425 55.8741 46.2981 52.3655 46.2981 52.3655C46.2981 52.3655 40.7661 40.6233 41.8407 30.3987C42.9154 20.1741 40.1057 18.5633 39.1267 13.9135C38.1477 9.26376 37.8369 3.63462 37.8369 3.63462C37.8369 3.63462 32.4544 2.35804 25.6451 3.18136Z" id="path_1" />
    <path d="M14.184 20.5114C14.184 20.5114 21.5563 16.042 19.962 11.8409C19.805 11.4273 19.0811 10.4176 18.2285 10.079C17.3759 9.74028 16.3253 9.6775 15.4323 10.3192C14.8478 10.7391 14.184 11.468 14.184 11.468C14.184 11.468 12.8356 9.93775 11.5819 9.93775C10.3282 9.93775 9.43042 10.2904 8.68839 11.468C6.26094 15.3201 14.184 20.5114 14.184 20.5114Z" id="path_2" />
    <clipPath id="mask_1">
      <use xlink:href="#path_1" />
    </clipPath>
  </defs>
  <g id="Group-24" transform="translate(0 0.25)">
    <g id="Group-19" transform="translate(1 0)">
      <g id="Group-29-Copy" transform="translate(167.11299 145.74695)">
        <g id="Group-21" transform="translate(0 28.310316)">
          <path d="M6.40975 28.9968L1.83762 48.8318Q1.82612 48.8817 1.81912 48.9324Q1.81213 48.9831 1.80969 49.0343Q1.80726 49.0854 1.80941 49.1366Q1.81155 49.1878 1.81826 49.2385Q1.82497 49.2893 1.83619 49.3392Q1.84742 49.3892 1.86306 49.438Q1.8787 49.4867 1.89864 49.5339Q1.91857 49.5811 1.94264 49.6263Q1.96672 49.6715 1.99473 49.7143Q2.02275 49.7572 2.05448 49.7974Q2.08622 49.8376 2.12142 49.8748Q2.15662 49.9119 2.195 49.9458Q2.23338 49.9797 2.27464 50.0101Q2.3159 50.0404 2.3597 50.0669Q2.40351 50.0934 2.44951 50.1159Q2.49551 50.1384 2.54333 50.1567Q2.59116 50.175 2.64043 50.189Q2.6897 50.2029 2.74002 50.2124Q2.79034 50.2219 2.84131 50.2269Q2.89227 50.2318 2.94348 50.2322Q2.99468 50.2326 3.04572 50.2284Q3.09676 50.2242 3.14721 50.2155Q3.19767 50.2067 3.24714 50.1935Q3.29661 50.1803 3.34471 50.1627Q3.3928 50.1451 3.43913 50.1233Q3.48546 50.1015 3.52966 50.0757Q3.57385 50.0498 3.61556 50.0201Q3.65726 49.9904 3.69615 49.957Q3.73503 49.9237 3.77078 49.8871Q3.80653 49.8504 3.83886 49.8107Q3.87119 49.771 3.89985 49.7285Q3.9285 49.6861 3.95324 49.6413L15.3476 28.9968L6.40975 28.9968Z" id="Path-73" fill="url(#gradient_1)" fill-rule="evenodd" stroke="none" />
          <path d="M6.40975 28.9968L4.48548 37.428L11.199 36.5133L15.3476 28.9968L6.40975 28.9968Z" id="Path-73-Copy-3" fill="url(#gradient_2)" fill-opacity="0.53027344" style="mix-blend-mode: multiply;" fill-rule="evenodd" stroke="none" />
          <path d="M21.6712 28.9968L17.0991 48.8318Q17.0876 48.8817 17.0806 48.9324Q17.0736 48.9831 17.0712 49.0343Q17.0687 49.0854 17.0709 49.1366Q17.073 49.1878 17.0797 49.2385Q17.0864 49.2893 17.0977 49.3392Q17.1089 49.3892 17.1245 49.438Q17.1402 49.4867 17.1601 49.5339Q17.18 49.5811 17.2041 49.6263Q17.2282 49.6715 17.2562 49.7143Q17.2842 49.7572 17.3159 49.7974Q17.3477 49.8376 17.3829 49.8748Q17.4181 49.9119 17.4565 49.9458Q17.4948 49.9797 17.5361 50.0101Q17.5774 50.0404 17.6212 50.0669Q17.665 50.0934 17.711 50.1159Q17.757 50.1384 17.8048 50.1567Q17.8526 50.175 17.9019 50.189Q17.9512 50.2029 18.0015 50.2124Q18.0518 50.2219 18.1028 50.2269Q18.1537 50.2318 18.2049 50.2322Q18.2561 50.2326 18.3072 50.2284Q18.3582 50.2242 18.4087 50.2155Q18.4591 50.2067 18.5086 50.1935Q18.5581 50.1803 18.6062 50.1627Q18.6543 50.1451 18.7006 50.1233Q18.7469 50.1015 18.7911 50.0757Q18.8353 50.0498 18.877 50.0201Q18.9187 49.9904 18.9576 49.957Q18.9965 49.9237 19.0322 49.8871Q19.068 49.8504 19.1003 49.8107Q19.1327 49.771 19.1613 49.7285Q19.19 49.6861 19.2147 49.6413L30.609 28.9968L21.6712 28.9968Z" id="Path-73-Copy-2" fill="url(#gradient_1)" fill-rule="evenodd" stroke="none" />
          <path d="M21.6712 28.9968L19.8471 36.91L26.0957 37.1741L30.609 28.9968L21.6712 28.9968Z" id="Path-73-Copy-4" fill="url(#gradient_3)" fill-opacity="0.53027344" style="mix-blend-mode: multiply;" fill-rule="evenodd" stroke="none" />
          <path d="M54.0485 28.9968L59.0726 49.0538Q59.085 49.1034 59.093 49.1538Q59.1009 49.2043 59.1043 49.2553Q59.1078 49.3063 59.1066 49.3573Q59.1055 49.4084 59.0998 49.4592Q59.0941 49.51 59.0839 49.56Q59.0737 49.6101 59.059 49.659Q59.0444 49.708 59.0255 49.7554Q59.0066 49.8029 58.9835 49.8485Q58.9604 49.8941 58.9333 49.9374Q58.9063 49.9807 58.8755 50.0215Q58.8446 50.0622 58.8103 50.1001Q58.776 50.1379 58.7384 50.1725Q58.7009 50.2072 58.6604 50.2383Q58.6199 50.2694 58.5767 50.2968Q58.5336 50.3243 58.4882 50.3477Q58.4429 50.3712 58.3955 50.3905Q58.3483 50.4098 58.2994 50.4248Q58.2506 50.4398 58.2006 50.4504Q58.1506 50.461 58.0999 50.4671Q58.0492 50.4732 57.9981 50.4748Q57.9471 50.4763 57.896 50.4733Q57.8451 50.4703 57.7945 50.4628Q57.744 50.4552 57.6943 50.4432Q57.6447 50.4312 57.5963 50.4148Q57.5479 50.3984 57.5012 50.3778Q57.4544 50.3571 57.4097 50.3324Q57.365 50.3077 57.3227 50.2791Q57.2804 50.2504 57.2408 50.2182Q57.2012 50.1859 57.1646 50.1502Q57.128 50.1145 57.0948 50.0757Q57.0616 50.0369 57.0319 49.9953Q57.0023 49.9537 56.9765 49.9096L44.7291 28.9968L54.0485 28.9968Z" id="Path-73-Copy" fill="url(#gradient_4)" fill-rule="evenodd" stroke="none" />
          <path d="M54.0485 28.9968L55.9977 36.7785L49.7244 37.5264L44.7291 28.9968L54.0485 28.9968Z" id="Path-73-Copy-5" fill="url(#gradient_5)" fill-opacity="0.53027344" style="mix-blend-mode: multiply;" fill-rule="evenodd" stroke="none" />
          <g id="Group-6" transform="translate(1.6155138 0)">
            <path d="M7.58552e-14 0L52.652 0L52.652 32.8121L7.58552e-14 32.8121L7.58552e-14 0Z" id="Rectangle" fill="url(#gradient_6)" fill-rule="evenodd" stroke="none" />
            <path d="M13.3538 0L56.4674 0L56.4674 32.8121L13.3538 32.8121L13.3538 0Z" id="Rectangle-Copy-5" fill="url(#gradient_7)" fill-rule="evenodd" stroke="none" />
            <g id="Group-20" transform="translate(15.642998 3.052292)">
              <path d="M4.48101e-15 0L38.6017 0L38.6017 11.8276L4.48101e-15 11.8276L4.48101e-15 0Z" id="Rectangle-Copy-6" fill="url(#gradient_8)" fill-rule="evenodd" stroke="none" />
              <path d="M14.8799 2.86152L24.0104 2.86152" id="Path-75" fill="none" fill-rule="evenodd" stroke="#8F9EFA" stroke-width="1.526146" stroke-linecap="round" />
            </g>
            <g id="Group-20-Copy" transform="translate(15.642998 17.932217)">
              <path d="M4.48101e-15 0L38.6017 0L38.6017 11.8276L4.48101e-15 11.8276L4.48101e-15 0Z" id="Rectangle-Copy-6" fill="url(#gradient_8)" fill-rule="evenodd" stroke="none" />
              <path d="M14.8799 2.86152L24.0104 2.86152" id="Path-75" fill="none" fill-rule="evenodd" stroke="#8F9EFA" stroke-width="1.526146" stroke-linecap="round" />
            </g>
          </g>
        </g>
        <g id="Group-23" transform="translate(18.974806 0)">
          <g id="Group-22" transform="translate(4.3882895 10.759636)">
            <path d="M0 0L13.7353 0L13.7353 17.5507L0 17.5507L0 0Z" id="Rectangle" fill="url(#gradient_9)" fill-rule="evenodd" stroke="none" />
            <path d="M8.77534 0L13.7353 0L13.7353 17.5507L8.77534 17.5507L8.77534 0Z" id="Rectangle-Copy-9" fill="url(#gradient_10)" fill-opacity="0.53183126" style="mix-blend-mode: multiply;" fill-rule="evenodd" stroke="none" />
          </g>
          <path d="M10.785 10.7596C10.785 10.7596 6.3889 6.58968 2.80166 8.63329C-0.785567 10.6769 0.220268 18.5469 0.220268 18.5469L8.14418 10.7596L10.785 10.7596Z" id="Path-76" fill="url(#gradient_11)" fill-rule="evenodd" stroke="none" />
          <path d="M9.64043 10.7596C9.64043 10.7596 11.7782 1.69436e-14 23.6559 1.69436e-14C23.6559 1.69436e-14 16.7879 5.84696 16.7879 10.7596L9.64043 10.7596Z" id="Path-77" fill="url(#gradient_12)" fill-rule="evenodd" stroke="none" />
        </g>
      </g>
      <g id="Group-19-Copy-2" transform="translate(190.00519 73.25501)">
        <g id="Group-17-Copy-2">
          <g id="Group-13">
            <path d="M0 0L49.5997 0L49.5997 49.5997L0 49.5997L0 0Z" id="Rectangle" fill="url(#gradient_13)" fill-rule="evenodd" stroke="none" />
            <path d="M5.34151 5.34151L44.6398 5.34151L44.6398 44.6398L5.34151 44.6398L5.34151 5.34151Z" id="Rectangle-Copy-3" fill="#FFFFFF" fill-rule="evenodd" stroke="none" />
          </g>
          <g id="Group-16" transform="translate(9.91995 13.353779)">
            <g id="Group-14" transform="translate(0 6.104584)">
              <path d="M1.73503e-13 13.9304L21.3678 13.9304L10.6839 0L1.73503e-13 13.9304Z" id="Path-74" fill="url(#gradient_14)" fill-rule="evenodd" stroke="none" />
              <path d="M14.9807 13.9304L30.0895 13.9304L22.6633 4.1969L14.9807 13.9304Z" id="Path-74-Copy" fill="url(#gradient_15)" fill-rule="evenodd" stroke="none" />
            </g>
            <path d="M18.6953 6.10458C19.7489 6.10458 20.603 5.25049 20.603 4.1969C20.603 3.14332 19.7489 2.28922 18.6953 2.28922C17.6417 2.28922 16.7876 3.14332 16.7876 4.1969C16.7876 5.25049 17.6417 6.10458 18.6953 6.10458Z" id="Oval" fill="url(#gradient_16)" fill-rule="evenodd" stroke="none" />
            <path d="M18.6953 8.3938C21.0132 8.3938 22.8922 6.51479 22.8922 4.1969C22.8922 1.87902 21.0132 0 18.6953 0C16.3774 0 14.4984 1.87902 14.4984 4.1969C14.4984 6.51479 16.3774 8.3938 18.6953 8.3938Z" id="Oval-Copy" fill="url(#gradient_17)" fill-opacity="0.22923642" fill-rule="evenodd" stroke="none" />
          </g>
        </g>
      </g>
      <path d="M0.190768 224.153L239.796 224.153" id="Path-34-Copy-2" fill="none" fill-rule="evenodd" stroke="#292930" stroke-width="0.5" />
      <g id="Group-13" transform="translate(28.233704 0)">
        <g id="Group-9" transform="translate(82.41189 50.36282)">
          <path d="M4.61659 19.0959C7.16627 19.0959 9.23318 17.029 9.23318 14.4793C9.23318 11.9296 7.16627 9.86272 4.61659 9.86272C2.06692 9.86272 0 11.9296 0 14.4793C0 17.029 2.06692 19.0959 4.61659 19.0959Z" id="Oval-Copy-4" fill="url(#gradient_18)" fill-rule="evenodd" stroke="none" />
          <path d="M10.4923 18.4664C15.5916 18.4664 19.7254 14.3325 19.7254 9.23318C19.7254 4.13384 15.5916 0 10.4923 0C5.39291 0 1.25907 4.13384 1.25907 9.23318C1.25907 14.3325 5.39291 18.4664 10.4923 18.4664Z" id="Oval" fill="url(#gradient_19)" fill-rule="evenodd" stroke="none" />
        </g>
        <g id="Group-4" transform="translate(106.31461 207.88962)">
          <path d="M-3.3264e-13 0L4.26186 16.331L15.3011 16.638L9.83903 13.5645L8.67872 0L-3.3264e-13 0Z" id="Path-10" fill="url(#gradient_20)" fill-rule="evenodd" stroke="none" />
          <path d="M3.86071 14.4517L4.26186 16.5346L15.3011 16.638L11.4158 14.4517C11.4158 14.4517 11.0938 15.4871 9.7815 15.4536C8.46922 15.4201 3.86071 14.4517 3.86071 14.4517Z" id="Path-10-Copy-2" fill="#FE8C71" fill-rule="evenodd" stroke="none" />
        </g>
        <g id="Group-8" transform="translate(88.37452 203.84119)">
          <g id="Group-3" transform="translate(0.19330087 0.3673722)">
            <path d="M0.188144 0.381537L0.690581 20.0719L12.3725 20.0719L7.29037 17.4759L9.39813 0L0.188144 0.381537Z" id="Path-10-Copy" fill="url(#gradient_21)" fill-rule="evenodd" stroke="none" />
            <path d="M0.594343 17.4759L0.594343 20.2157L12.7806 20.2157L8.15355 17.7821C8.15355 17.7821 7.83154 18.8175 6.51926 18.784C5.20699 18.7505 0.594343 17.4759 0.594343 17.4759Z" id="Path-10-Copy-3" fill="#FE8C71" fill-rule="evenodd" stroke="none" />
          </g>
        </g>
        <path d="M80.8741 132.331C81.1774 141.047 85.1569 153.67 85.9964 166.092C86.9053 179.542 85.9964 209.511 85.9964 209.511L118.455 209.511L112.846 120.085L82.3015 118.764C82.3015 118.764 80.7337 128.296 80.8741 132.331Z" id="Path-79" fill="url(#gradient_22)" fill-rule="evenodd" stroke="none" />
        <path d="M116.665 90.5844L119.887 94.6619L137.489 81.6597L139.025 79.1379C139.025 79.1379 140.569 76.9199 140.856 76.8706C141.144 76.8213 140.518 79.1379 140.518 79.1379C140.518 79.1379 141.977 78.9637 142.431 78.6736C142.819 78.4251 143.197 78.1894 143.542 77.984C144.392 77.4787 143.324 81.6308 140.778 83.3167C138.232 85.0026 122.943 105.108 118.783 105.108C114.622 105.108 108.668 94.6619 108.668 94.6619L116.665 90.5844Z" id="Path-9" fill="url(#gradient_23)" fill-rule="evenodd" stroke="none" />
        <g id="Group-12-Copy" transform="translate(133.53778 70.9658)">
          <g id="Group-11">
            <path d="M5.58275 0L11.4246 0Q11.4649 0 11.5049 0.00471941Q11.5449 0.00943882 11.5841 0.0188127Q11.6233 0.0281866 11.6611 0.0420859Q11.699 0.0559852 11.7349 0.0742186Q11.7708 0.092452 11.8044 0.114769Q11.8379 0.137085 11.8686 0.163178Q11.8993 0.18927 11.9268 0.21878Q11.9542 0.248289 11.978 0.280809Q12.0018 0.31333 12.0216 0.348413Q12.0415 0.383496 12.057 0.420659Q12.0726 0.457823 12.0837 0.496555Q12.0949 0.535287 12.1014 0.575055Q12.1079 0.614823 12.1097 0.655079Q12.1115 0.695334 12.1085 0.735525Q12.1056 0.775715 12.098 0.815286Q12.0904 0.854857 12.0782 0.893264L8.08723 13.4648Q8.05437 13.5684 8.00563 13.6654Q7.9569 13.7625 7.89351 13.8507Q7.83012 13.9388 7.75365 14.016Q7.67718 14.0931 7.58954 14.1572Q7.50189 14.2213 7.40525 14.2709Q7.30861 14.3204 7.20538 14.3542Q7.10214 14.3879 6.99489 14.405Q6.88764 14.4221 6.77904 14.4221L0.937196 14.4221Q0.8969 14.4221 0.856881 14.4174Q0.816862 14.4126 0.777671 14.4033Q0.73848 14.3939 0.700657 14.38Q0.662833 14.3661 0.626898 14.3479Q0.590963 14.3296 0.557411 14.3073Q0.523858 14.285 0.49315 14.2589Q0.462443 14.2328 0.435002 14.2033Q0.407561 14.1738 0.383766 14.1413Q0.35997 14.1088 0.340147 14.0737Q0.320324 14.0386 0.304746 14.0014Q0.289168 13.9643 0.27805 13.9255Q0.266931 13.8868 0.260426 13.847Q0.25392 13.8073 0.252117 13.767Q0.250314 13.7267 0.253238 13.6866Q0.256162 13.6464 0.263772 13.6068Q0.271383 13.5672 0.283576 13.5288L4.27455 0.957232Q4.30742 0.853719 4.35615 0.756662Q4.40488 0.659605 4.46827 0.571419Q4.53166 0.483234 4.60813 0.406115Q4.6846 0.328997 4.77224 0.264864Q4.85989 0.200731 4.95653 0.151181Q5.05317 0.10163 5.15641 0.0678953Q5.25964 0.0341602 5.36689 0.0170801Q5.47414 0 5.58275 0Z" id="Rectangle-Copy-5" fill="#A5A9FC" fill-rule="evenodd" stroke="none" />
            <path d="M6.26951 0L12.1114 0Q12.1517 0 12.1917 0.00471941Q12.2317 0.00943882 12.2709 0.0188127Q12.3101 0.0281866 12.3479 0.0420859Q12.3857 0.0559852 12.4217 0.0742186Q12.4576 0.092452 12.4911 0.114769Q12.5247 0.137085 12.5554 0.163178Q12.5861 0.18927 12.6135 0.21878Q12.641 0.248289 12.6648 0.280809Q12.6886 0.31333 12.7084 0.348413Q12.7282 0.383496 12.7438 0.420659Q12.7594 0.457823 12.7705 0.496555Q12.7816 0.535287 12.7881 0.575055Q12.7946 0.614823 12.7964 0.655079Q12.7982 0.695334 12.7953 0.735525Q12.7924 0.775715 12.7848 0.815286Q12.7772 0.854857 12.765 0.893264L8.77399 13.4648Q8.74113 13.5684 8.6924 13.6654Q8.64367 13.7625 8.58028 13.8507Q8.51689 13.9388 8.44042 14.016Q8.36395 14.0931 8.2763 14.1572Q8.18866 14.2213 8.09202 14.2709Q7.99537 14.3204 7.89214 14.3542Q7.78891 14.3879 7.68166 14.405Q7.57441 14.4221 7.4658 14.4221L1.62396 14.4221Q1.58367 14.4221 1.54365 14.4174Q1.50363 14.4126 1.46444 14.4033Q1.42525 14.3939 1.38742 14.38Q1.3496 14.3661 1.31366 14.3479Q1.27773 14.3296 1.24418 14.3073Q1.21062 14.285 1.17992 14.2589Q1.14921 14.2328 1.12177 14.2033Q1.09433 14.1738 1.07053 14.1413Q1.04674 14.1088 1.02691 14.0737Q1.00709 14.0386 0.991511 14.0014Q0.975933 13.9643 0.964815 13.9255Q0.953697 13.8868 0.947192 13.847Q0.940686 13.8073 0.938883 13.767Q0.93708 13.7267 0.940004 13.6866Q0.942927 13.6464 0.950538 13.6068Q0.958149 13.5672 0.970342 13.5288L4.96132 0.957232Q4.99418 0.853719 5.04291 0.756662Q5.09165 0.659605 5.15503 0.571419Q5.21842 0.483234 5.29489 0.406115Q5.37136 0.328997 5.45901 0.264864Q5.54666 0.200731 5.6433 0.151181Q5.73994 0.10163 5.84317 0.0678953Q5.9464 0.0341602 6.05366 0.0170801Q6.16091 0 6.26951 0Z" id="Rectangle" fill="#FFFFFF" fill-rule="evenodd" stroke="none" />
          </g>
          <path d="M11.0773 6.77206C10.6351 5.48133 8.48896 3.53695 8.13851 6.57125C7.94594 8.23853 8.78634 11.1173 9.36324 11.3614C10.5873 11.8794 11.5194 8.06279 11.0773 6.77206Z" id="Path-17" fill="url(#gradient_24)" fill-rule="evenodd" stroke="none" />
        </g>
        <g id="Group-7" transform="translate(68.542274 68.59907)">
          <path d="M37.5757 3.81304C37.5757 3.81304 42.7669 5.20768 44.2984 9.62855C44.7681 10.9845 50.5471 23.1906 50.5471 23.1906C50.5471 23.1906 46.8112 26.6583 41.1367 27.3207L35.3473 8.68775L37.5757 3.81304Z" id="Path-5" fill="url(#gradient_25)" fill-rule="evenodd" stroke="none" />
          <g id="Group-14" transform="translate(0 0.2363472)">
            <path d="M25.6451 3.18136C18.8359 4.00468 10.2937 6.11675 8.19648 9.87397C6.09928 13.6312 3.73554 23.4049 2.82931 28.6902C2.82931 28.6902 9.90792 28.1906 14.1448 28.1906C18.3817 28.1906 11.5891 44.5459 11.5891 55.2513C11.5891 55.2513 18.9607 53.2632 30.2016 54.5687C41.4425 55.8741 46.2981 52.3655 46.2981 52.3655C46.2981 52.3655 40.7661 40.6233 41.8407 30.3987C42.9154 20.1741 40.1057 18.5633 39.1267 13.9135C38.1477 9.26376 37.8369 3.63462 37.8369 3.63462C37.8369 3.63462 32.4544 2.35804 25.6451 3.18136Z" id="Path-4" fill="url(#gradient_26)" fill-rule="evenodd" stroke="none" />
          </g>
        </g>
        <path d="M97.3365 67.0837L98.121 71.8708C98.121 71.8708 97.613 75.7796 95.4306 75.7796C93.2483 75.7796 91.6244 72.4091 91.6244 72.4091L91.6244 66.0308L97.3365 67.0837Z" id="Path-2-Copy-5" fill="#FFB69F" fill-rule="evenodd" stroke="none" />
        <path d="M97.2156 67.359L97.7569 70.9733C97.7569 70.9733 95.327 70.9531 94.1785 70.6749C93.03 70.3967 91.649 69.5791 91.649 69.5791L91.5139 67.0837L97.2156 67.359Z" id="Path-2-Copy-4" fill="#FFB69F" fill-opacity="0.617513" style="mix-blend-mode: multiply;" fill-rule="evenodd" stroke="none" />
        <path d="M88.9111 60.7865C88.9111 60.7865 87.0286 60.333 87.0286 62.0762C87.0286 63.8194 88.9111 64.3777 88.9111 64.3777C88.9111 64.3777 91.4064 70.1283 96.0295 69.5211C96.9733 69.3971 98.8604 68.0553 99.611 65.4038C100.248 63.1533 100.317 56.943 100.317 56.943C100.317 56.943 97.0509 60.264 94.2715 60.6923C92.9287 60.8992 88.9111 60.7865 88.9111 60.7865Z" id="Path-Copy" fill="#FFB69F" fill-rule="evenodd" stroke="none" />
        <path d="M72.9877 97.1283C72.9877 97.1283 69.9656 108.01 71.4766 110.549C72.9877 113.088 99.3694 120.758 102.288 121.215C105.207 121.672 108.506 122.045 108.779 121.215C109.052 120.385 103.768 117.903 103.768 117.903C103.768 117.903 105.864 117.338 105.634 117.141C105.404 116.944 104.014 116.714 102.288 117.141C100.562 117.568 80.0445 105.108 80.0445 105.108L81.712 96.8529L72.9877 97.1283Z" id="Path-6" fill="url(#gradient_27)" fill-rule="evenodd" stroke="none" />
        <g id="Group-20-Copy-3" transform="translate(80.88574 0)">
          <path d="M14.6815 35.4676C22.7899 35.4676 29.363 28.8945 29.363 20.7861C29.363 12.6777 22.7899 6.10458 14.6815 6.10458C6.57314 6.10458 -6.00409e-13 12.6777 -6.00409e-13 20.7861C-6.00409e-13 28.8945 6.57314 35.4676 14.6815 35.4676Z" id="Oval-Copy-3" fill="#7C8EF8" fill-opacity="0.11716425" style="mix-blend-mode: multiply;" fill-rule="evenodd" stroke="none" />
          <g id="Group-21">
            <path d="M14.5289 29.0578C22.553 29.0578 29.0578 22.553 29.0578 14.5289C29.0578 6.50481 22.553 0 14.5289 0C6.50481 0 0 6.50481 0 14.5289C0 22.553 6.50481 29.0578 14.5289 29.0578Z" id="Oval" fill="#FFFFFF" fill-rule="evenodd" stroke="none" />
            <g id="Path-45-Copy-2">
              <use stroke="none" fill="#F5F6F9" xlink:href="#path_2" fill-rule="evenodd" />
              <use stroke="none" fill="url(#gradient_28)" xlink:href="#path_2" fill-rule="evenodd" />
            </g>
          </g>
        </g>
        <g id="Group-6" transform="translate(22.89219 17.169144)">
          <path d="M22.9685 45.937C35.6536 45.937 45.937 35.6536 45.937 22.9685C45.937 10.2833 35.6536 0 22.9685 0C10.2833 0 0 10.2833 0 22.9685C0 35.6536 10.2833 45.937 22.9685 45.937Z" id="Oval" fill="url(#gradient_29)" fill-rule="evenodd" stroke="none" />
          <g id="Group-13-Copy-2" transform="matrix(-1 0 0 1 30.980766 12.0184)">
            <g id="Group-10">
              <g id="Group-11" transform="translate(0.08689618 0.11183965)">
                <path d="M0.960472 0L14.7426 0Q14.8372 0 14.93 0.0184552Q15.0228 0.0369104 15.1102 0.0731116Q15.1976 0.109313 15.2762 0.161869Q15.3549 0.214425 15.4218 0.281316Q15.4887 0.348207 15.5412 0.426862Q15.5938 0.505518 15.63 0.592915Q15.6662 0.680313 15.6846 0.773093Q15.7031 0.865874 15.7031 0.960472L15.7031 20.5129Q15.7031 20.6075 15.6846 20.7003Q15.6662 20.7931 15.63 20.8805Q15.5938 20.9679 15.5412 21.0465Q15.4887 21.1252 15.4218 21.1921Q15.3549 21.259 15.2762 21.3115Q15.1976 21.3641 15.1102 21.4003Q15.0228 21.4365 14.93 21.4549Q14.8372 21.4734 14.7426 21.4734L10.4841 21.4734Q10.3971 21.4734 10.3115 21.4578Q10.226 21.4421 10.1446 21.4114Q10.0632 21.3806 9.98869 21.3358Q9.91416 21.2909 9.84891 21.2334Q9.78366 21.1758 9.72981 21.1075Q9.67595 21.0392 9.63525 20.9623Q9.59455 20.8854 9.56833 20.8025Q9.5421 20.7195 9.5312 20.6332L8.2674 10.6232Q8.26521 10.6059 8.26146 10.5889Q8.25771 10.5718 8.25242 10.5552Q8.24714 10.5385 8.24036 10.5224Q8.23358 10.5063 8.22537 10.4909Q8.21716 10.4755 8.20758 10.4609Q8.19801 10.4463 8.18714 10.4326Q8.17628 10.419 8.16422 10.4063Q8.15215 10.3937 8.13899 10.3822Q8.12583 10.3708 8.11169 10.3605Q8.09754 10.3503 8.08252 10.3414Q8.0675 10.3325 8.05173 10.325Q8.03597 10.3175 8.01958 10.3114Q8.0032 10.3054 7.98634 10.3008Q7.96947 10.2963 7.95226 10.2933Q7.93506 10.2903 7.91765 10.2889Q7.90024 10.2875 7.88278 10.2877Q7.86532 10.2879 7.84795 10.2897Q7.83058 10.2915 7.81344 10.2948Q7.7963 10.2981 7.77953 10.303Q7.76277 10.3079 7.74651 10.3143Q7.73026 10.3207 7.71466 10.3285Q7.69905 10.3364 7.68422 10.3456Q7.6694 10.3548 7.65547 10.3653Q7.64154 10.3759 7.62863 10.3876Q7.61571 10.3994 7.60392 10.4123Q7.59213 10.4251 7.58155 10.439Q7.57098 10.4529 7.56171 10.4677Q7.55245 10.4825 7.54456 10.4981Q7.53668 10.5137 7.53024 10.5299Q7.52381 10.5462 7.51887 10.5629Q7.51394 10.5797 7.51055 10.5968Q7.50716 10.6139 7.50534 10.6313L6.45874 20.6131Q6.44953 20.7009 6.42448 20.7855Q6.39943 20.8702 6.35937 20.9488Q6.31931 21.0275 6.26558 21.0975Q6.21186 21.1675 6.14627 21.2266Q6.08068 21.2857 6.00542 21.3318Q5.93016 21.3779 5.84776 21.4096Q5.76535 21.4412 5.67856 21.4573Q5.59177 21.4734 5.5035 21.4734L0.960472 21.4734Q0.865874 21.4734 0.773093 21.4549Q0.680313 21.4365 0.592915 21.4003Q0.505518 21.3641 0.426862 21.3115Q0.348207 21.259 0.281316 21.1921Q0.214425 21.1252 0.161869 21.0465Q0.109313 20.9679 0.0731116 20.8805Q0.0369104 20.7931 0.0184552 20.7003Q0 20.6075 0 20.5129L0 0.960472Q0 0.865874 0.0184552 0.773093Q0.0369104 0.680313 0.0731116 0.592915Q0.109313 0.505518 0.161869 0.426862Q0.214425 0.348207 0.281316 0.281316Q0.348207 0.214425 0.426862 0.161869Q0.505518 0.109313 0.592915 0.0731116Q0.680313 0.0369104 0.773093 0.0184552Q0.865874 0 0.960472 0L0.960472 0Z" id="Path-46" fill="none" fill-rule="evenodd" stroke="#FFFFFF" stroke-width="1.0576192" stroke-linecap="round" stroke-linejoin="round" />
                <path d="M-1.17134e-15 2.41962L15.7031 2.41962" id="Path-6" fill="none" fill-rule="evenodd" stroke="#FFFFFF" stroke-width="1.0576192" stroke-linecap="round" stroke-linejoin="round" />
                <path d="M0.384589 19.0371L6.55769 19.0371M9.44835 19.0371L15.5498 19.0371" id="Shape" fill="none" fill-rule="evenodd" stroke="#FFFFFF" stroke-width="1.0576192" stroke-linecap="round" stroke-linejoin="round" />
                <g id="Group-12" transform="translate(5.815577 1.2638173)">
                  <path d="M1.29932 -2.69168e-15L4.33757e-14 3.16668" id="Path-47" fill="none" fill-rule="evenodd" stroke="#FFFFFF" stroke-width="1.0576192" stroke-linecap="round" stroke-linejoin="round" />
                  <path d="M2.88442 -2.69168e-15L4.23048 3.16668" id="Path-47-Copy" fill="none" fill-rule="evenodd" stroke="#FFFFFF" stroke-width="1.0576192" stroke-linecap="round" stroke-linejoin="round" />
                </g>
              </g>
            </g>
          </g>
        </g>
        <g id="Group-5" transform="translate(130.48549 16.787607)">
          <path d="M22.9685 45.937C35.6536 45.937 45.937 35.6536 45.937 22.9685C45.937 10.2833 35.6536 0 22.9685 0C10.2833 0 0 10.2833 0 22.9685C0 35.6536 10.2833 45.937 22.9685 45.937Z" id="Oval-Copy" fill="url(#gradient_29)" fill-rule="evenodd" stroke="none" />
          <g id="Group-15" transform="translate(9.881796 13.353778)">
            <path d="M10.5577 0L10.5577 1.27945Q10.5577 1.3422 10.5639 1.40466Q10.57 1.46711 10.5823 1.52866Q10.5945 1.59022 10.6127 1.65027Q10.6309 1.71033 10.655 1.7683Q10.679 1.82628 10.7086 1.88163Q10.7381 1.93698 10.773 1.98916Q10.8079 2.04134 10.8477 2.08985Q10.8875 2.13836 10.9319 2.18274Q10.9763 2.22711 11.0248 2.26693Q11.0733 2.30674 11.1255 2.34161Q11.1776 2.37647 11.233 2.40605Q11.2883 2.43564 11.3463 2.45965Q11.4043 2.48367 11.4643 2.50189Q11.5244 2.52011 11.5859 2.53235Q11.6475 2.54459 11.71 2.55074Q11.7724 2.55689 11.8352 2.55689L13.5656 2.55689Q13.6284 2.55689 13.6908 2.55074Q13.7533 2.54459 13.8148 2.53235Q13.8764 2.52011 13.9364 2.50189Q13.9965 2.48367 14.0545 2.45965Q14.1125 2.43564 14.1678 2.40605Q14.2232 2.37647 14.2753 2.34161Q14.3275 2.30674 14.376 2.26693Q14.4245 2.22711 14.4689 2.18274Q14.5133 2.13836 14.5531 2.08985Q14.5929 2.04134 14.6278 1.98916Q14.6626 1.93698 14.6922 1.88163Q14.7218 1.82628 14.7458 1.7683Q14.7698 1.71033 14.7881 1.65027Q14.8063 1.59022 14.8185 1.52866Q14.8308 1.46711 14.8369 1.40466Q14.8431 1.3422 14.8431 1.27945L14.8431 0L20.5222 0Q20.724 0 20.9087 0.0811815Q21.0934 0.162363 21.2298 0.311003L25.4848 4.94683Q25.5492 5.01696 25.5985 5.09837Q25.6479 5.17977 25.6803 5.26928Q25.7127 5.3588 25.7269 5.45293Q25.7411 5.54706 25.7366 5.64215Q25.732 5.73724 25.7089 5.82959Q25.6858 5.92194 25.645 6.00795Q25.6042 6.09396 25.5473 6.17029Q25.4904 6.24662 25.4196 6.31029L23.1289 8.3714Q23.0582 8.43503 22.9764 8.48355Q22.8946 8.53207 22.8048 8.5636Q22.715 8.59512 22.6208 8.60843Q22.5266 8.62174 22.4317 8.61631Q22.3367 8.61088 22.2446 8.58692Q22.1526 8.56297 22.067 8.52142Q21.9814 8.47987 21.9056 8.42234Q21.8299 8.36481 21.7669 8.29353L20.9226 7.3385Q20.9014 7.31451 20.8785 7.29218Q20.8555 7.26985 20.8309 7.24932Q20.8063 7.22878 20.7803 7.21017Q20.7542 7.19155 20.7268 7.17495Q20.6994 7.15836 20.6708 7.14387Q20.6423 7.12939 20.6127 7.11711Q20.5831 7.10482 20.5527 7.09481Q20.5223 7.08479 20.4912 7.0771Q20.4601 7.06941 20.4285 7.06409Q20.3969 7.05877 20.365 7.05585Q20.3331 7.05292 20.3011 7.05242Q20.269 7.05191 20.2371 7.05382Q20.2051 7.05573 20.1734 7.06005Q20.1416 7.06437 20.1103 7.07108Q20.079 7.07778 20.0483 7.08683Q20.0175 7.09588 19.9876 7.10722Q19.9576 7.11856 19.9286 7.13213Q19.8996 7.14571 19.8717 7.16143Q19.8438 7.17715 19.8171 7.19493Q19.7905 7.21272 19.7653 7.23246Q19.74 7.2522 19.7164 7.2738Q19.6927 7.29539 19.6708 7.3187Q19.6488 7.34202 19.6287 7.36692Q19.6085 7.39183 19.5903 7.41819Q19.5721 7.44454 19.556 7.4722Q19.5398 7.49985 19.5258 7.52865Q19.5117 7.55744 19.4999 7.58722Q19.4881 7.61699 19.4786 7.64757Q19.469 7.67815 19.4618 7.70936Q19.4546 7.74057 19.4498 7.77224Q19.445 7.8039 19.4426 7.83584Q19.4402 7.86778 19.4402 7.89981L19.4402 18.0991Q19.4402 18.1937 19.4217 18.2865Q19.4032 18.3792 19.367 18.4666Q19.3308 18.554 19.2783 18.6327Q19.2257 18.7113 19.1588 18.7782Q19.092 18.8451 19.0133 18.8977Q18.9346 18.9502 18.8472 18.9864Q18.7598 19.0226 18.6671 19.0411Q18.5743 19.0596 18.4797 19.0596L6.95649 19.0596Q6.86189 19.0596 6.76911 19.0411Q6.67633 19.0226 6.58893 18.9864Q6.50153 18.9502 6.42288 18.8977Q6.34422 18.8451 6.27733 18.7782Q6.21044 18.7113 6.15788 18.6327Q6.10533 18.554 6.06913 18.4666Q6.03293 18.3792 6.01447 18.2865Q5.99602 18.1937 5.99602 18.0991L5.99602 7.79352Q5.99602 7.76498 5.99381 7.73654Q5.9916 7.70809 5.98721 7.6799Q5.98281 7.65171 5.97625 7.62395Q5.96968 7.59618 5.961 7.56901Q5.95231 7.54183 5.94154 7.51541Q5.93078 7.48899 5.918 7.46348Q5.90523 7.43796 5.89052 7.41352Q5.87581 7.38907 5.85926 7.36583Q5.84271 7.34259 5.82441 7.3207Q5.80611 7.29882 5.78617 7.27841Q5.76624 7.258 5.74478 7.23919Q5.72333 7.22038 5.70048 7.20329Q5.67764 7.1862 5.65354 7.17092Q5.62944 7.15565 5.60424 7.14228Q5.57903 7.12891 5.55287 7.11753Q5.52671 7.10615 5.49974 7.09683Q5.47278 7.08751 5.44517 7.0803Q5.41757 7.07309 5.38949 7.06803Q5.36141 7.06298 5.33302 7.06011Q5.30464 7.05724 5.27612 7.05657Q5.24759 7.0559 5.2191 7.05744Q5.19061 7.05898 5.16233 7.06271Q5.13404 7.06645 5.10613 7.07236Q5.07822 7.07827 5.05085 7.08632Q5.02348 7.09438 4.99681 7.10452Q4.97014 7.11466 4.94434 7.12683Q4.91854 7.13901 4.89375 7.15314Q4.86897 7.16727 4.84535 7.18328Q4.82173 7.19928 4.79942 7.21706Q4.77711 7.23484 4.75624 7.2543Q4.73537 7.27375 4.71606 7.29476Q4.69676 7.31577 4.67914 7.33821L4.02745 8.16798Q3.99608 8.20792 3.96068 8.24433Q3.92528 8.28073 3.88623 8.3132Q3.84719 8.34568 3.80494 8.37385Q3.76269 8.40202 3.7177 8.42558Q3.67271 8.44914 3.62549 8.46783Q3.57828 8.48651 3.52935 8.50011Q3.48042 8.51372 3.43033 8.52208Q3.38025 8.53045 3.32955 8.53349Q3.27886 8.53653 3.22813 8.5342Q3.17741 8.53188 3.1272 8.52422Q3.077 8.51656 3.02789 8.50365Q2.97878 8.49074 2.9313 8.47272Q2.88382 8.4547 2.83851 8.43178Q2.79319 8.40885 2.75055 8.38128Q2.70791 8.3537 2.66841 8.32178Q2.62891 8.28987 2.593 8.25396L0.59991 6.26126Q0.538317 6.19968 0.488806 6.12802Q0.439296 6.05637 0.403482 5.97698Q0.367669 5.89758 0.346721 5.81304Q0.325773 5.7285 0.320375 5.64157Q0.314976 5.55464 0.325303 5.46816Q0.335629 5.38168 0.361344 5.29846Q0.387059 5.21525 0.427324 5.13802Q0.467588 5.06079 0.521089 4.99206L4.11865 0.370492Q4.186 0.283968 4.27112 0.214851Q4.35625 0.145734 4.45475 0.0975797Q4.55326 0.0494257 4.66009 0.0247129Q4.76691 0 4.87656 0L10.5577 0Z" id="Path-48" fill="none" fill-rule="evenodd" stroke="#FFFFFF" stroke-width="1.0576192" stroke-linecap="round" stroke-linejoin="round" />
            <path d="M24.5126 4.2816L1.33477 4.2816" id="Path-49" fill="none" fill-rule="evenodd" stroke="#FFFFFF" stroke-width="1.0576192" stroke-linecap="round" stroke-linejoin="round" />
            <path d="M19.2843 9.28126L6.14518 9.28126L19.2843 9.28126Z" id="Path-49-Copy" fill="none" fill-rule="evenodd" stroke="#FFFFFF" stroke-width="1.0576192" stroke-linecap="round" stroke-linejoin="round" />
            <path d="M19.2843 14.4732L6.14518 14.4732L19.2843 14.4732Z" id="Path-49-Copy-2" fill="none" fill-rule="evenodd" stroke="#FFFFFF" stroke-width="1.0576192" stroke-linecap="round" stroke-linejoin="round" />
          </g>
        </g>
        <g id="Group-2" transform="translate(0 78.21499)">
          <path d="M22.9685 45.937C35.6536 45.937 45.937 35.6536 45.937 22.9685C45.937 10.2833 35.6536 0 22.9685 0C10.2833 0 0 10.2833 0 22.9685C0 35.6536 10.2833 45.937 22.9685 45.937Z" id="Oval-Copy-2" fill="url(#gradient_29)" fill-rule="evenodd" stroke="none" />
          <g id="Group" transform="matrix(-1 0 0 1 33.918594 14.42208)">
            <path d="M-9.21733e-14 14.2514L-9.21733e-14 17.2071L24.2124 17.2071L24.2124 14.2514L-9.21733e-14 14.2514Z" id="Path-51" fill="none" fill-rule="evenodd" stroke="#FFFFFF" stroke-width="1.0576192" stroke-linecap="round" stroke-linejoin="round" />
            <path d="M4.69615 8.85755C5.69179 8.85755 6.49891 8.05043 6.49891 7.05479C6.49891 6.05916 5.69179 5.25203 4.69615 5.25203C3.70051 5.25203 2.89339 6.05916 2.89339 7.05479C2.89339 8.05043 3.70051 8.85755 4.69615 8.85755Z" id="Oval" fill="none" fill-rule="evenodd" stroke="#FFFFFF" stroke-width="1.0576192" stroke-linecap="round" stroke-linejoin="round" />
            <path d="M-8.67514e-14 -2.0705e-14L-8.67514e-14 17.2071L24.2124 17.2071L24.2124 14.0782Q24.2124 13.9074 24.1994 13.7372Q24.1864 13.5669 24.1605 13.3981Q24.1346 13.2293 24.096 13.063Q24.0573 12.8967 24.0061 12.7338Q23.9549 12.5709 23.8914 12.4124Q23.828 12.2539 23.7526 12.1006Q23.6773 11.9474 23.5905 11.8003Q23.5038 11.6532 23.4061 11.5132Q23.3084 11.3732 23.2003 11.2409Q23.0922 11.1087 22.9744 10.9851Q22.8566 10.8616 22.7297 10.7473Q22.6028 10.633 22.4676 10.5287Q22.3324 10.4244 22.1897 10.3307Q22.0469 10.237 21.8975 10.1544Q21.748 10.0718 21.5927 10.0009Q21.4374 9.92991 21.2771 9.87096L13.473 7.00045Q13.3201 6.94421 13.1719 6.87649Q13.0237 6.80877 12.8811 6.72997Q12.7385 6.65118 12.6022 6.56176Q12.466 6.47234 12.337 6.37282Q12.208 6.2733 12.0869 6.16425Q11.9658 6.05521 11.8534 5.93726Q11.741 5.81932 11.6379 5.69317Q11.5347 5.56702 11.4415 5.43339Q11.3483 5.29976 11.2655 5.15942Q11.1827 5.01908 11.1108 4.87286Q11.0389 4.72663 10.9784 4.57536Q10.9178 4.42408 10.869 4.26864Q10.8201 4.1132 10.7832 3.9545Q10.7463 3.79579 10.7216 3.63473Q10.6969 3.47368 10.6845 3.31121Q10.6721 3.14874 10.6721 2.9858L10.6721 -2.0705e-14L-8.67514e-14 -2.0705e-14Z" id="Path-51-Copy" fill="none" fill-rule="evenodd" stroke="#FFFFFF" stroke-width="1.0576192" stroke-linecap="round" stroke-linejoin="round" />
            <path d="M18.8702 8.94334L18.8702 14.2514" id="Path-52" fill="none" fill-rule="evenodd" stroke="#FFFFFF" stroke-width="1.0576192" stroke-linecap="round" stroke-linejoin="round" />
            <path d="M11.1462 14.2514L11.1462 17.2071" id="Path-53" fill="none" fill-rule="evenodd" stroke="#FFFFFF" stroke-width="1.0576192" stroke-linecap="round" stroke-linejoin="round" />
            <path d="M8.67514e-14 15.7293L11.1462 15.7293" id="Path-54" fill="none" fill-rule="evenodd" stroke="#FFFFFF" stroke-width="1.0576192" stroke-linecap="round" stroke-linejoin="round" />
            <path d="M-8.67514e-14 1.78599L10.6144 1.78599" id="Path-55" fill="none" fill-rule="evenodd" stroke="#FFFFFF" stroke-width="1.0576192" stroke-linecap="round" stroke-linejoin="round" />
            <path d="M8.68863 1.78599L8.68856 1.78684Q8.67532 1.94697 8.66913 2.10754Q8.66294 2.2681 8.66382 2.42878Q8.66469 2.58945 8.67263 2.74994Q8.68056 2.91042 8.69554 3.0704Q8.71052 3.23038 8.73251 3.38955Q8.75451 3.54872 8.78347 3.70677Q8.81244 3.86482 8.84832 4.02144Q8.88421 4.17806 8.92694 4.33296Q8.96967 4.48785 9.01917 4.64072Q9.06867 4.79358 9.12484 4.94413Q9.18101 5.09467 9.24373 5.2426Q9.30646 5.39053 9.37563 5.53556Q9.4448 5.68059 9.52027 5.82245Q9.59575 5.9643 9.67738 6.10269Q9.75902 6.24109 9.84666 6.37577Q9.9343 6.51045 10.0278 6.64114Q10.1212 6.77184 10.2204 6.8983Q10.3195 7.02476 10.4241 7.14674Q10.5287 7.26873 10.6385 7.386Q10.7484 7.50327 10.8632 7.61559Q10.9781 7.72792 11.0979 7.8351Q11.2176 7.94227 11.3419 8.04408Q11.4662 8.14588 11.5949 8.24213Q11.7235 8.33838 11.8563 8.42888Q11.9891 8.51938 12.1257 8.60396Q12.2623 8.68853 12.4025 8.76703Q12.5427 8.84552 12.6862 8.91777Q12.8298 8.99003 12.9763 9.05591Q13.1229 9.12179 13.2722 9.18116Q13.4215 9.24054 13.5733 9.29329Q13.725 9.34605 13.879 9.39209Q14.0329 9.43813 14.1887 9.47735L18.8702 10.6559" id="Path-56" fill="none" fill-rule="evenodd" stroke="#FFFFFF" stroke-width="1.0576192" stroke-linecap="round" stroke-linejoin="round" />
            <path d="M8.91521 3.37696L12.1062 3.37696" id="Path-57" fill="none" fill-rule="evenodd" stroke="#FFFFFF" stroke-width="1.0576192" stroke-linecap="round" stroke-linejoin="round" />
            <path d="M9.2998 5.29991L13.0692 5.29991" id="Path-57-Copy" fill="none" fill-rule="evenodd" stroke="#FFFFFF" stroke-width="1.0576192" stroke-linecap="round" stroke-linejoin="round" />
          </g>
        </g>
      </g>
    </g>
    <g id="Group-59-Copy-3" transform="matrix(-1 0 0 1 94.85799 147.65463)">
      <path d="M2.61397 51.5074L7.52249 76.4599L9.71055 76.4599L9.71055 51.5074L2.61397 51.5074Z" id="Path-58-Copy-2" fill="url(#gradient_30)" fill-rule="evenodd" stroke="none" />
      <path d="M68.5435 51.5074L73.452 76.4599L75.4111 76.4599L75.4111 51.5074L68.5435 51.5074Z" id="Path-58-Copy" fill="url(#gradient_31)" fill-rule="evenodd" stroke="none" />
      <path d="M0.0958292 51.7364L0.0958292 51.7354Q0.0958292 51.5106 0.106858 51.2861Q0.117887 51.0616 0.139917 50.8379Q0.161948 50.6142 0.194928 50.3919Q0.227907 50.1696 0.271757 49.9491Q0.315606 49.7287 0.370219 49.5107Q0.424832 49.2926 0.490078 49.0775Q0.555324 48.8624 0.631044 48.6508Q0.706765 48.4392 0.792779 48.2315Q0.878792 48.0239 0.974891 47.8207Q1.07099 47.6175 1.17694 47.4193Q1.2829 47.2211 1.39845 47.0283Q1.514 46.8355 1.63887 46.6486Q1.76374 46.4617 1.89764 46.2812Q2.03153 46.1007 2.17412 45.9269Q2.31671 45.7532 2.46765 45.5866Q2.61859 45.4201 2.77752 45.2612Q2.93645 45.1022 3.10299 44.9513Q3.26953 44.8004 3.44328 44.6578Q3.61702 44.5152 3.79756 44.3813Q3.97809 44.2474 4.16497 44.1225Q4.35186 43.9976 4.54464 43.8821Q4.73743 43.7665 4.93565 43.6606Q5.13388 43.5546 5.33706 43.4585Q5.54025 43.3624 5.7479 43.2764Q5.95556 43.1904 6.16718 43.1147Q6.37881 43.039 6.59389 42.9737Q6.80898 42.9085 7.02701 42.8539Q7.24504 42.7993 7.46548 42.7554Q7.68593 42.7116 7.90826 42.6786Q8.13059 42.6456 8.35427 42.6236Q8.57795 42.6015 8.80245 42.5905Q9.02694 42.5795 9.2517 42.5795L83.4234 42.5795L83.4234 42.5805Q83.4234 42.8052 83.4124 43.0297Q83.4013 43.2542 83.3793 43.4779Q83.3573 43.7016 83.3243 43.9239Q83.2913 44.1462 83.2475 44.3667Q83.2036 44.5871 83.149 44.8052Q83.0944 45.0232 83.0292 45.2383Q82.9639 45.4534 82.8882 45.665Q82.8125 45.8766 82.7264 46.0843Q82.6404 46.2919 82.5443 46.4951Q82.4482 46.6983 82.3423 46.8965Q82.2363 47.0947 82.1208 47.2875Q82.0052 47.4803 81.8803 47.6672Q81.7555 47.8541 81.6216 48.0346Q81.4877 48.2151 81.3451 48.3889Q81.2025 48.5626 81.0516 48.7292Q80.9006 48.8957 80.7417 49.0546Q80.5828 49.2136 80.4162 49.3645Q80.2497 49.5155 80.076 49.6581Q79.9022 49.8006 79.7217 49.9345Q79.5411 50.0684 79.3542 50.1933Q79.1674 50.3182 78.9746 50.4337Q78.7818 50.5493 78.5836 50.6552Q78.3854 50.7612 78.1822 50.8573Q77.979 50.9534 77.7713 51.0394Q77.5637 51.1254 77.3521 51.2011Q77.1404 51.2768 76.9253 51.3421Q76.7102 51.4073 76.4922 51.4619Q76.2742 51.5166 76.0537 51.5604Q75.8333 51.6043 75.611 51.6372Q75.3886 51.6702 75.165 51.6923Q74.9413 51.7143 74.7168 51.7253Q74.4923 51.7364 74.2675 51.7364L0.0958292 51.7364Z" id="Path-55" fill="url(#gradient_32)" fill-rule="evenodd" stroke="none" />
      <path d="M68.5435 51.7364L69.486 56.456L75.4111 56.5437L75.4111 51.7364L68.5435 51.7364Z" id="Path-58-Copy-5" fill="#C9CCDB" fill-opacity="0.242234" style="mix-blend-mode: multiply;" fill-rule="evenodd" stroke="none" />
      <g id="Group-62" transform="translate(48.16943 51.507427)">
        <path d="M0 -7.93547e-16L4.90852 24.9525L7.09658 24.9525L7.09658 0L0 -7.93547e-16Z" id="Path-58" fill="url(#gradient_30)" fill-rule="evenodd" stroke="none" />
        <path d="M0 0.228922L1.01706 5.2652L7.09658 5.13297L7.09658 0.228922L0 0.228922Z" id="Path-58-Copy-7" fill="#DFE1EB" fill-opacity="0.51376486" style="mix-blend-mode: multiply;" fill-rule="evenodd" stroke="none" />
      </g>
      <path d="M55.0361 42.5795L83.4234 42.5795L83.4234 42.5805Q83.4234 42.8052 83.4124 43.0297Q83.4013 43.2542 83.3793 43.4779Q83.3573 43.7016 83.3243 43.9239Q83.2913 44.1462 83.2475 44.3667Q83.2036 44.5871 83.149 44.8052Q83.0944 45.0232 83.0292 45.2383Q82.9639 45.4534 82.8882 45.665Q82.8125 45.8766 82.7264 46.0843Q82.6404 46.2919 82.5443 46.4951Q82.4482 46.6983 82.3423 46.8965Q82.2363 47.0947 82.1208 47.2875Q82.0052 47.4803 81.8803 47.6672Q81.7555 47.8541 81.6216 48.0346Q81.4877 48.2151 81.3451 48.3889Q81.2025 48.5626 81.0516 48.7292Q80.9006 48.8957 80.7417 49.0546Q80.5828 49.2136 80.4162 49.3645Q80.2497 49.5155 80.0759 49.6581Q79.9022 49.8006 79.7217 49.9345Q79.5411 50.0684 79.3542 50.1933Q79.1674 50.3182 78.9746 50.4337Q78.7818 50.5493 78.5836 50.6552Q78.3853 50.7612 78.1822 50.8573Q77.979 50.9534 77.7713 51.0394Q77.5637 51.1254 77.352 51.2011Q77.1404 51.2768 76.9253 51.3421Q76.7102 51.4073 76.4922 51.4619Q76.2742 51.5166 76.0537 51.5604Q75.8333 51.6043 75.611 51.6372Q75.3886 51.6702 75.165 51.6923Q74.9413 51.7143 74.7168 51.7253Q74.4923 51.7364 74.2675 51.7364L45.8802 51.7364L45.8802 51.7354Q45.8802 51.5106 45.8912 51.2861Q45.9023 51.0616 45.9243 50.8379Q45.9463 50.6142 45.9793 50.3919Q46.0123 50.1696 46.0561 49.9491Q46.1 49.7287 46.1546 49.5107Q46.2092 49.2926 46.2745 49.0775Q46.3397 48.8624 46.4154 48.6508Q46.4911 48.4392 46.5772 48.2315Q46.6632 48.0239 46.7593 47.8207Q46.8554 47.6175 46.9613 47.4193Q47.0673 47.2211 47.1828 47.0283Q47.2984 46.8355 47.4233 46.6486Q47.5481 46.4617 47.682 46.2812Q47.8159 46.1007 47.9585 45.9269Q48.1011 45.7532 48.252 45.5866Q48.403 45.4201 48.5619 45.2612Q48.7208 45.1022 48.8874 44.9513Q49.0539 44.8004 49.2277 44.6578Q49.4014 44.5152 49.5819 44.3813Q49.7625 44.2474 49.9493 44.1225Q50.1362 43.9976 50.329 43.8821Q50.5218 43.7665 50.72 43.6606Q50.9183 43.5546 51.1214 43.4585Q51.3246 43.3624 51.5323 43.2764Q51.7399 43.1904 51.9516 43.1147Q52.1632 43.039 52.3783 42.9737Q52.5934 42.9085 52.8114 42.8539Q53.0294 42.7993 53.2499 42.7554Q53.4703 42.7116 53.6926 42.6786Q53.915 42.6456 54.1387 42.6236Q54.3623 42.6015 54.5868 42.5905Q54.8113 42.5795 55.0361 42.5795Z" id="Path-55-Copy" fill="url(#gradient_33)" fill-rule="evenodd" stroke="none" />
      <path d="M23.9037 51.5074L28.8122 76.4599L31.0003 76.4599L31.0003 51.5074L23.9037 51.5074Z" id="Path-58-Copy-3" fill="url(#gradient_30)" fill-rule="evenodd" stroke="none" />
      <path d="M29.1923 6.19453L17.4939 42.5795L72.8318 42.5795L83.6523 0L37.6908 0Q37.3392 0 36.9887 0.0276538Q36.6382 0.0553076 36.2909 0.110444Q35.9437 0.16558 35.6019 0.247857Q35.26 0.330134 34.9257 0.439043Q34.5914 0.547951 34.2667 0.682815Q33.942 0.81768 33.6289 0.977665Q33.3158 1.13765 33.0162 1.32177Q32.7167 1.50588 32.4326 1.71298Q32.1484 1.92009 31.8815 2.1489Q31.6145 2.37771 31.3664 2.62681Q31.1182 2.8759 30.8905 3.14375Q30.6627 3.41159 30.4567 3.69652Q30.2507 3.98144 30.0677 4.28169Q29.8847 4.58194 29.726 4.89565Q29.5672 5.20936 29.4336 5.53458Q29.2999 5.85981 29.1923 6.19453Z" id="Path-56" fill="url(#gradient_34)" fill-rule="evenodd" stroke="none" />
      <g id="Group-60" transform="translate(27.241707 17.398064)">
        <path d="M12.0963 2.21027L4.57844 25.2559L34.2782 25.2559L39.8331 4.31291Q39.8583 4.218 39.878 4.12181Q39.8977 4.02562 39.9118 3.92847Q39.926 3.83131 39.9346 3.7335Q39.9432 3.63569 39.9462 3.53754Q39.9492 3.4394 39.9466 3.34125Q39.944 3.2431 39.9357 3.14525Q39.9275 3.04741 39.9137 2.9502Q39.8999 2.85299 39.8806 2.75672Q39.8612 2.66046 39.8364 2.56546Q39.8116 2.47046 39.7814 2.37703Q39.7512 2.2836 39.7157 2.19205Q39.6802 2.1005 39.6396 2.01113Q39.5989 1.92176 39.5532 1.83486Q39.5075 1.74796 39.4569 1.66381Q39.4063 1.57966 39.351 1.49855Q39.2957 1.41743 39.2358 1.33961Q39.1759 1.26179 39.1117 1.18751Q39.0475 1.11324 38.9791 1.04276Q38.9107 0.972282 38.8385 0.905824Q38.7662 0.839367 38.6902 0.777149Q38.6143 0.714932 38.5349 0.657158Q38.4555 0.599384 38.3729 0.546242Q38.2904 0.4931 38.2049 0.444765Q38.1194 0.396429 38.0313 0.353058Q37.9432 0.309686 37.8528 0.27142Q37.7624 0.233155 37.6699 0.20012Q37.5775 0.167086 37.4833 0.13939Q37.3891 0.111695 37.2934 0.0894293Q37.1978 0.0671635 37.1011 0.0504001Q37.0043 0.0336367 36.9068 0.0224306Q36.8092 0.0112245 36.7112 0.00561224Q36.6132 -1.9572e-13 36.515 -1.9572e-13L15.1422 -1.9572e-13Q15.0165 -1.9572e-13 14.8911 0.00985817Q14.7657 0.0197163 14.6415 0.039372Q14.5173 0.0590277 14.395 0.0883599Q14.2727 0.117692 14.1531 0.15652Q14.0334 0.195349 13.9172 0.243434Q13.801 0.291519 13.6889 0.348566Q13.5769 0.405612 13.4696 0.471269Q13.3623 0.536926 13.2605 0.610789Q13.1588 0.684651 13.0631 0.766266Q12.9674 0.84788 12.8784 0.936743Q12.7894 1.02561 12.7076 1.12117Q12.6259 1.21674 12.5519 1.31842Q12.4779 1.4201 12.412 1.52727Q12.3462 1.63444 12.289 1.74644Q12.2318 1.85843 12.1836 1.97457Q12.1353 2.09071 12.0963 2.21027L12.0963 2.21027Z" id="Path-56-Copy-2" fill="url(#gradient_35)" fill-rule="evenodd" stroke="none" />
        <path d="M7.51786 2.21027L1.46288e-15 25.2559L29.6998 25.2559L35.8649 2.01202Q35.8884 1.9234 35.9017 1.83267Q35.9149 1.74195 35.9177 1.6503Q35.9205 1.55866 35.9128 1.4673Q35.9051 1.37593 35.8871 1.28604Q35.869 1.19615 35.8408 1.10891Q35.8126 1.02167 35.7747 0.938214Q35.7367 0.854761 35.6894 0.776186Q35.6422 0.697611 35.5863 0.624942Q35.5304 0.552273 35.4665 0.48646Q35.4027 0.420647 35.3318 0.362549Q35.2608 0.304451 35.1837 0.254828Q35.1066 0.205205 35.0244 0.164705Q34.9421 0.124206 34.8558 0.0933584Q34.7694 0.0625113 34.6802 0.0417198Q34.5909 0.0209283 34.4998 0.0104641Q34.4087 -1.9572e-13 34.317 -1.9572e-13L10.5638 -1.9572e-13Q10.438 -1.9572e-13 10.3127 0.00985817Q10.1873 0.0197163 10.0631 0.039372Q9.93884 0.0590277 9.81654 0.0883599Q9.69424 0.117692 9.57462 0.15652Q9.455 0.195349 9.3388 0.243434Q9.22259 0.291519 9.11051 0.348566Q8.99842 0.405612 8.89116 0.471269Q8.78389 0.536926 8.6821 0.610789Q8.58031 0.684651 8.48463 0.766266Q8.38894 0.84788 8.29995 0.936743Q8.21095 1.02561 8.1292 1.12117Q8.04745 1.21674 7.97343 1.31842Q7.89942 1.4201 7.83361 1.52727Q7.7678 1.63444 7.71059 1.74644Q7.65337 1.85843 7.60512 1.97457Q7.55686 2.09071 7.51786 2.21027L7.51786 2.21027Z" id="Path-56-Copy" fill="url(#gradient_36)" fill-rule="evenodd" stroke="none" />
        <path d="M17.8048 14.1034C18.5177 14.3629 19.3234 13.9472 19.6044 13.1749C19.8855 12.4027 19.5355 11.5664 18.8227 11.3069C18.1098 11.0475 17.3041 11.4632 17.0231 12.2354C16.742 13.0076 17.092 13.844 17.8048 14.1034Z" id="Oval" fill="#F7FAFF" fill-rule="evenodd" stroke="none" />
      </g>
      <path d="M23.9037 51.5074L24.9832 57.0016L31.0003 56.9153L31.0003 51.5074L23.9037 51.5074Z" id="Path-58-Copy-4" fill="#C9CCDB" fill-opacity="0.242234" style="mix-blend-mode: multiply;" fill-rule="evenodd" stroke="none" />
      <path d="M83.3865 0L72.6641 42.5795L83.3865 42.5795L91.0339 9.62354Q91.0838 9.40858 91.1215 9.19115Q91.1593 8.97373 91.1847 8.75453Q91.2102 8.53533 91.2233 8.31504Q91.2363 8.09476 91.237 7.87409Q91.2377 7.65342 91.226 7.43305Q91.2143 7.21269 91.1903 6.99334Q91.1662 6.77398 91.1299 6.55632Q91.0935 6.33866 91.045 6.12339Q90.9965 5.90812 90.9359 5.69591Q90.8754 5.4837 90.803 5.27523Q90.7307 5.06676 90.6467 4.86269Q90.5627 4.65862 90.4674 4.45958Q90.3721 4.26054 90.2658 4.06718Q90.1595 3.87381 90.0424 3.68672Q89.9254 3.49964 89.7981 3.31942Q89.6707 3.1392 89.5334 2.96643Q89.3962 2.79365 89.2494 2.62886Q89.1026 2.46407 88.9468 2.30778Q88.7911 2.15149 88.6267 2.00421Q88.4624 1.85692 88.2901 1.7191Q88.1177 1.58128 87.9379 1.45336Q87.7581 1.32544 87.5714 1.20782Q87.3846 1.09021 87.1916 0.983267Q86.9986 0.876328 86.7999 0.780402Q86.6011 0.684476 86.3973 0.599867Q86.1935 0.515258 85.9853 0.442233Q85.777 0.369208 85.565 0.307999Q85.353 0.246789 85.1379 0.197587Q84.9228 0.148386 84.7052 0.111348Q84.4877 0.0743103 84.2684 0.0495532Q84.0491 0.0247962 83.8288 0.0123981Q83.6085 0 83.3878 0L83.3865 0Z" id="Path-57" fill="url(#gradient_37)" fill-rule="evenodd" stroke="none" />
      <path d="M2.61397 51.5074L3.70625 57.1166L9.48163 57.2305L9.48163 51.5074L2.61397 51.5074Z" id="Path-58-Copy-6" fill="#DFE1EB" fill-opacity="0.51376486" style="mix-blend-mode: multiply;" fill-rule="evenodd" stroke="none" />
    </g>
  </g>
</svg>
